<svg width="32" height="33" viewBox="0 0 32 33" fill="none" xmlns="http://www.w3.org/2000/svg">
<g clip-path="url(#clip0)">
<path d="M4.71041 28.5211H23.4723L22.5762 25.6197L24.7196 27.4592L26.6841 29.2197L30.263 32.2105V3.88816C30.1736 2.12764 28.6578 0.631584 26.7788 0.631584L4.71699 0.635532C2.83936 0.635532 1.31567 2.13422 1.31567 3.89474V25.2632C1.31567 27.1197 2.83673 28.5211 4.71041 28.5211ZM18.5894 8.10921L18.5459 8.125L18.5617 8.10921H18.5894ZM8.54857 9.77895C10.9604 8.02369 13.1959 8.1079 13.1959 8.1079L13.3762 8.28553C10.4249 8.98948 9.08673 10.3079 9.08673 10.3079C9.08673 10.3079 9.44462 10.1329 10.0696 9.86579C14.0446 8.30264 18.3854 8.41579 22.4038 10.3947C22.4038 10.3947 21.063 9.16185 18.2933 8.37237L18.538 8.13158C18.9209 8.1329 20.9473 8.20395 23.1157 9.78948C23.1157 9.78948 25.542 13.9342 25.542 19.0263C25.4617 18.9289 24.0367 21.2184 20.3696 21.2974C20.3696 21.2974 19.7486 20.5947 19.3065 19.9816C21.4512 19.3658 22.2538 18.1342 22.2538 18.1342C21.5499 18.5776 20.9078 18.8408 20.3867 19.1039C19.5854 19.4566 18.7828 19.6303 17.9815 19.8079C14.1867 20.4237 12.0565 19.3934 10.0433 18.5763L9.35515 18.2263C9.35515 18.2263 10.1565 19.4579 12.2157 20.0737C11.6749 20.6908 11.1394 21.3921 11.1394 21.3921C7.47357 21.3053 6.13673 19.0158 6.13673 19.0158C6.13673 13.9158 8.54857 9.77895 8.54857 9.77895Z" fill="white"/>
<path d="M18.8263 17.4355C19.7618 17.4355 20.5236 16.646 20.5236 15.6724C20.5236 14.7053 19.7657 13.9158 18.8263 13.9158V13.9197C17.8947 13.9197 17.1315 14.7066 17.1289 15.6803C17.1289 16.646 17.8907 17.4355 18.8263 17.4355Z" fill="white"/>
<path d="M12.7499 17.4355C13.6854 17.4355 14.4472 16.646 14.4472 15.6724C14.4472 14.7053 13.6906 13.9158 12.7551 13.9158L12.7499 13.9197C11.8143 13.9197 11.0525 14.7066 11.0525 15.6803C11.0525 16.646 11.8143 17.4355 12.7499 17.4355Z" fill="white"/>
</g>
<defs>
<clipPath id="clip0">
<rect width="31.5789" height="31.5789" fill="white" transform="translate(-0.00012207 0.631592)"/>
</clipPath>
</defs>
</svg>
