<svg width="32" height="33" viewBox="0 0 32 33" fill="none" xmlns="http://www.w3.org/2000/svg">
<g clip-path="url(#clip0)">
<path d="M15.9 8.31319C11.4224 8.31319 7.79736 11.9421 7.79736 16.4158C7.79736 20.8934 11.4263 24.5184 15.9 24.5184C20.3776 24.5184 24.0026 20.8895 24.0026 16.4158C24.0026 11.9382 20.3737 8.31319 15.9 8.31319ZM15.9 21.675C12.9934 21.675 10.6408 19.3211 10.6408 16.4158C10.6408 13.5106 12.9947 11.1566 15.9 11.1566C18.8053 11.1566 21.1592 13.5106 21.1592 16.4158C21.1605 19.3211 18.8066 21.675 15.9 21.675Z" fill="white"/>
<path d="M22.405 0.73233C19.4998 0.596803 12.3037 0.603382 9.39582 0.73233C6.84056 0.852066 4.58661 1.46917 2.76951 3.28628C-0.267333 6.32312 0.120825 10.4152 0.120825 16.4165C0.120825 22.5586 -0.22128 26.556 2.76951 29.5468C5.81819 32.5942 9.96951 32.1955 15.8998 32.1955C21.984 32.1955 24.084 32.1994 26.2353 31.3665C29.1603 30.231 31.3682 27.6165 31.584 22.9205C31.7208 20.0139 31.7129 12.8192 31.584 9.91127C31.3234 4.36786 28.3484 1.00601 22.405 0.73233ZM27.0037 27.5376C25.0129 29.5284 22.2511 29.3507 15.8616 29.3507C9.28266 29.3507 6.64451 29.4481 4.71951 27.5178C2.5024 25.3113 2.90372 21.7678 2.90372 16.3955C2.90372 9.12575 2.15767 3.89022 9.45372 3.51654C11.13 3.45733 11.6235 3.43759 15.8432 3.43759L15.9024 3.47707C22.9142 3.47707 28.4156 2.74285 28.7458 10.0376C28.8208 11.7021 28.8379 12.2021 28.8379 16.4152C28.8366 22.9178 28.9603 25.5718 27.0037 27.5376Z" fill="white"/>
<path d="M24.3236 9.88683C25.3693 9.88683 26.217 9.03912 26.217 7.99341C26.217 6.9477 25.3693 6.09999 24.3236 6.09999C23.2779 6.09999 22.4302 6.9477 22.4302 7.99341C22.4302 9.03912 23.2779 9.88683 24.3236 9.88683Z" fill="white"/>
</g>
<defs>
<clipPath id="clip0">
<rect width="31.5789" height="31.5789" fill="white" transform="translate(0.105225 0.631592)"/>
</clipPath>
</defs>
</svg>
