<svg width="32" height="33" viewBox="0 0 32 33" fill="none" xmlns="http://www.w3.org/2000/svg">
<g clip-path="url(#clip0)">
<path d="M28.3868 9.99079C29.671 9.07895 30.7513 7.94079 31.6316 6.63027V6.62895C30.4566 7.14342 29.2066 7.48553 27.9013 7.65132C29.2434 6.85 30.2684 5.59079 30.75 4.07369C29.4987 4.81974 28.1171 5.34606 26.6447 5.64079C25.4566 4.375 23.7631 3.59211 21.9158 3.59211C18.3316 3.59211 15.446 6.50132 15.446 10.0671C15.446 10.5803 15.4895 11.0737 15.596 11.5434C10.2145 11.2803 5.4513 8.70132 2.2513 4.77106C1.6934 5.74079 1.36445 6.85 1.36445 8.04342C1.36445 10.2855 2.5184 12.2724 4.24077 13.4237C3.19998 13.4039 2.18024 13.1013 1.31577 12.6263V12.6974C1.31577 15.8434 3.55919 18.4566 6.50261 19.0592C5.97498 19.2039 5.4013 19.2724 4.80524 19.2724C4.39077 19.2724 3.97235 19.2487 3.58024 19.1618C4.4184 21.725 6.79998 23.6105 9.62893 23.6724C7.42629 25.3947 4.62893 26.4329 1.6013 26.4329C1.07103 26.4329 0.561823 26.4092 0.0526123 26.3447C2.92103 28.1934 6.3184 29.25 9.98419 29.25C21.4092 29.25 28.8552 19.7184 28.3868 9.99079Z" fill="white"/>
</g>
<defs>
<clipPath id="clip0">
<rect width="31.5789" height="31.5789" fill="white" transform="translate(0.0526123 0.631592)"/>
</clipPath>
</defs>
</svg>
