<svg width="40" height="40" viewBox="0 0 40 40" fill="none" xmlns="http://www.w3.org/2000/svg">
<g clip-path="url(#clip0)">
<path d="M29.1667 15C31.9233 15 34.4883 15.8033 36.6667 17.17V4.16667C36.6667 1.865 34.8017 0 32.5 0H4.16667C1.865 0 0 1.865 0 4.16667V19.1667C0 21.4683 1.865 23.3333 4.16667 23.3333H16.2717C18.5 18.4267 23.435 15 29.1667 15ZM3.33333 4.11667L18.3333 11.1167L33.3333 4.11667V6.88333L19.2167 13.4667C18.9333 13.6 18.6333 13.6667 18.3333 13.6667C18.0333 13.6667 17.7333 13.6 17.45 13.4667L3.33333 6.88333V4.11667Z" fill="#FFF466"/>
<path d="M29.1666 35C25.9499 35 23.3333 32.3834 23.3333 29.1667C23.3333 25.95 25.9499 23.3334 29.1666 23.3334C32.3833 23.3334 34.9999 25.95 34.9999 29.1667C34.9999 32.3834 32.3833 35 29.1666 35ZM29.1666 25.8334C27.3283 25.8334 25.8333 27.3284 25.8333 29.1667C25.8333 31.005 27.3283 32.5 29.1666 32.5C31.0049 32.5 32.4999 31.005 32.4999 29.1667C32.4999 27.3284 31.0049 25.8334 29.1666 25.8334Z" fill="#FFF466"/>
<path d="M29.1667 40C25.89 40 22.825 38.5417 20.7567 35.9967C18.6883 33.4517 17.8933 30.1184 18.5733 26.8501C19.4283 22.7534 22.7533 19.4284 26.8483 18.5751C30.1167 17.8951 33.4517 18.6901 35.995 20.7584C38.54 22.8251 40 25.8917 40 29.1667V31.2501C40 33.3184 38.3167 35 36.25 35C34.1834 35 32.5 33.3184 32.5 31.2501V24.5834C32.5 23.8934 33.06 23.3334 33.75 23.3334C34.44 23.3334 35 23.8934 35 24.5834V31.2501C35 31.9401 35.5617 32.5001 36.25 32.5001C36.9384 32.5001 37.5 31.9401 37.5 31.2501V29.1667C37.5 26.6467 36.3767 24.2884 34.4184 22.6967C32.46 21.1034 29.8834 20.4934 27.36 21.0217C24.2233 21.6751 21.6767 24.2217 21.0217 27.3601C20.495 29.8901 21.105 32.4634 22.6967 34.4201C24.2883 36.3767 26.6467 37.5 29.1667 37.5C29.8567 37.5 30.4167 38.0601 30.4167 38.75C30.4167 39.4401 29.8567 40 29.1667 40Z" fill="#FFF466"/>
</g>
<defs>
<clipPath id="clip0">
<rect width="40" height="40" fill="white"/>
</clipPath>
</defs>
</svg>
