<svg width="20" height="20" viewBox="0 0 20 20" fill="none" xmlns="http://www.w3.org/2000/svg">
<g clip-path="url(#clip0)">
<path d="M19.8878 6.51255L16.7628 2.1376C16.6378 1.9751 16.4503 1.8751 16.2503 1.8751H3.75043C3.55043 1.8751 3.36294 1.9751 3.23794 2.1376L0.112968 6.51255C0.0754686 6.62505 0.037969 6.73755 0.000469378 6.85005C-0.0120305 8.23753 1.11296 9.37502 2.50044 9.37502C3.25044 9.37502 3.91293 9.05002 4.37543 8.52503C4.83792 9.05002 5.50042 9.37502 6.25041 9.37502C7.0004 9.37502 7.66289 9.05002 8.12539 8.52503C8.58788 9.05002 9.25038 9.37502 10.0004 9.37502C10.7504 9.37502 11.4129 9.05002 11.8754 8.52503C12.3378 9.05002 13.0003 9.37502 13.7503 9.37502C14.5003 9.37502 15.1628 9.05002 15.6253 8.52503C16.0878 9.05002 16.7503 9.37502 17.5003 9.37502C18.8878 9.37502 20.0128 8.23753 20.0003 6.85005C19.9628 6.73755 19.9253 6.62505 19.8878 6.51255Z" fill="white"/>
<path d="M17.5 10.625C16.8362 10.625 16.19 10.4475 15.625 10.12C14.495 10.7738 13.005 10.7738 11.875 10.12C10.745 10.7738 9.25379 10.7738 8.12505 10.12C6.99632 10.7738 5.50383 10.7738 4.37509 10.12C3.43635 10.665 2.27386 10.735 1.25012 10.3813V16.875C1.25012 17.5649 1.81012 18.1249 2.50011 18.1249H12.5V11.875H16.25V18.1249H17.5C18.19 18.1249 18.75 17.5649 18.75 16.875V10.3963C18.3525 10.5375 17.9337 10.625 17.5 10.625ZM8.75005 15.625H3.7501V11.875H8.75005V15.625Z" fill="white"/>
</g>
<defs>
<clipPath id="clip0">
<rect width="20" height="20" fill="white"/>
</clipPath>
</defs>
</svg>
