<svg width="20" height="20" viewBox="0 0 20 20" fill="none" xmlns="http://www.w3.org/2000/svg">
<g clip-path="url(#clip0)">
<path d="M19.6875 9.04614L17.5 6.89614V1.45864C17.5 1.11364 17.22 0.833637 16.875 0.833637H13.9583C13.6133 0.833637 13.3333 1.11364 13.3333 1.45864V2.84864L10.4233 0.166137C10.1808 -0.0580298 9.80583 -0.0538632 9.5675 0.17447L0.308333 9.05031C0.1125 9.24614 0 9.51614 0 9.79197C0 10.3661 0.4675 10.8336 1.04167 10.8336H2.5V18.7503C2.5 19.4403 3.06 20.0003 3.75 20.0003H7.29167C7.63667 20.0003 7.91667 19.7203 7.91667 19.3753V13.7503C7.91667 13.6361 8.01 13.542 8.125 13.542H11.875C11.9892 13.542 12.0833 13.6361 12.0833 13.7503V19.3753C12.0833 19.7203 12.3633 20.0003 12.7083 20.0003H16.25C16.94 20.0003 17.5 19.4403 17.5 18.7503V10.8336H18.9583C19.5325 10.8336 20 10.3661 20 9.79197C20 9.51614 19.8875 9.24614 19.6875 9.04614Z" fill="white"/>
</g>
<defs>
<clipPath id="clip0">
<rect width="20" height="20" fill="white"/>
</clipPath>
</defs>
</svg>
