<svg width="20" height="20" viewBox="0 0 20 20" fill="none" xmlns="http://www.w3.org/2000/svg">
<g clip-path="url(#clip0)">
<path d="M9.99977 5.0001C11.3805 5.0001 12.4997 3.88083 12.4997 2.50015C12.4997 1.11946 11.3805 0.00019455 9.99977 0.00019455C8.61909 0.00019455 7.49982 1.11946 7.49982 2.50015C7.49982 3.88083 8.61909 5.0001 9.99977 5.0001Z" fill="white"/>
<path d="M13.7448 11.795L13.1773 7.37506C13.1135 6.73382 12.5785 6.25008 11.9348 6.25008H11.2498C11.0835 6.25008 10.9248 6.31633 10.8073 6.43258L9.99982 7.24007L9.19233 6.43258C9.07483 6.31633 8.91608 6.25008 8.74984 6.25008H8.0661C7.42111 6.25008 6.88612 6.73383 6.82362 7.35881L6.25488 11.7962C6.23238 11.9737 6.28738 12.1537 6.40613 12.2875C6.52488 12.4225 6.69487 12.5 6.87487 12.5H7.54986L8.07235 18.8749C8.13485 19.5149 8.67109 19.9998 9.31608 19.9998H10.6848C11.3298 19.9998 11.8648 19.5149 11.9298 18.8636L12.451 12.5H13.1248C13.3048 12.5 13.4748 12.4225 13.5935 12.2875C13.7135 12.1537 13.7685 11.9737 13.7448 11.795Z" fill="white"/>
<path d="M16.2497 5.0001C17.6303 5.0001 18.7496 3.88083 18.7496 2.50015C18.7496 1.11946 17.6303 0.00019455 16.2497 0.00019455C14.869 0.00019455 13.7497 1.11946 13.7497 2.50015C13.7497 3.88083 14.869 5.0001 16.2497 5.0001Z" fill="white"/>
<path d="M3.74989 0.00019455C2.37117 0.00019455 1.24994 1.12142 1.24994 2.50015C1.24994 3.87887 2.37117 5.0001 3.74989 5.0001C5.12737 5.0001 6.24984 3.87887 6.24984 2.50015C6.24984 1.12142 5.12737 0.00019455 3.74989 0.00019455Z" fill="white"/>
<path d="M19.9946 11.795L19.4271 7.37631C19.3633 6.73383 18.8296 6.25008 18.1846 6.25008H17.4996C17.3334 6.25008 17.1746 6.31633 17.0571 6.43258L16.2497 7.24007L15.4422 6.43258C15.3247 6.31633 15.1659 6.25008 15.0009 6.25008H14.3159C14.2384 6.25008 14.1684 6.27758 14.0947 6.29133C14.2559 6.57633 14.3822 6.88507 14.4197 7.23132L14.9859 11.6362C15.0559 12.1725 14.8884 12.7125 14.5284 13.1187C14.3584 13.3137 14.1409 13.4512 13.9084 13.5587L14.3234 17.6249C14.3872 18.2661 14.9222 18.7499 15.5672 18.7499H16.9359C17.5809 18.7499 18.1159 18.2649 18.1809 17.6136L18.7009 12.5H19.3746C19.5546 12.5 19.7246 12.4225 19.8433 12.2875C19.9633 12.1537 20.0183 11.9737 19.9946 11.795Z" fill="white"/>
<path d="M5.4669 13.1125C5.1119 12.7112 4.94691 12.1725 5.01441 11.6387L5.58315 7.20007C5.61564 6.86757 5.73814 6.56758 5.89439 6.29008C5.82439 6.27758 5.75814 6.25008 5.68439 6.25008H4.99941C4.83316 6.25008 4.67441 6.31633 4.55691 6.43258L3.74943 7.24007L2.94194 6.43258C2.82444 6.31633 2.6657 6.25008 2.5007 6.25008H1.81567C1.17068 6.25008 0.635693 6.73383 0.573194 7.35881L0.00445372 11.7962C-0.0180459 11.9737 0.0369531 12.1537 0.155701 12.2875C0.274449 12.4225 0.445696 12.5 0.624443 12.5H1.29943L1.82192 17.6249C1.88442 18.2649 2.42066 18.7499 3.06565 18.7499H4.43438C5.07937 18.7499 5.61436 18.2649 5.67936 17.6136L6.09435 13.5575C5.86064 13.4487 5.64189 13.31 5.4669 13.1125Z" fill="white"/>
</g>
<defs>
<clipPath id="clip0">
<rect width="20" height="20" fill="white"/>
</clipPath>
</defs>
</svg>
