<svg width="446" height="354" viewBox="0 0 446 354" fill="none" xmlns="http://www.w3.org/2000/svg">
<g clip-path="url(#clip0)">
<path d="M109.042 353.314H74.0302C72.8472 353.313 71.713 352.843 70.8764 352.007C70.0399 351.172 69.5693 350.039 69.568 348.857V276.169C69.5693 274.987 70.0399 273.854 70.8764 273.018C71.713 272.183 72.8472 271.713 74.0302 271.711H109.042C110.225 271.713 111.359 272.183 112.195 273.018C113.032 273.854 113.502 274.987 113.504 276.169V348.857C113.502 350.039 113.032 351.172 112.195 352.007C111.359 352.843 110.225 353.313 109.042 353.314Z" fill="#FFF021"/>
<path d="M192.108 354H157.096C155.731 353.998 154.423 353.456 153.457 352.492C152.492 351.528 151.949 350.22 151.948 348.857V207.595C151.949 206.231 152.492 204.924 153.457 203.96C154.423 202.996 155.731 202.453 157.096 202.452H192.108C193.473 202.453 194.781 202.996 195.747 203.96C196.712 204.924 197.255 206.231 197.256 207.595V348.857C197.255 350.22 196.712 351.528 195.747 352.492C194.781 353.456 193.473 353.998 192.108 354ZM157.096 203.823C156.095 203.824 155.136 204.222 154.428 204.929C153.72 205.636 153.322 206.595 153.321 207.595V348.857C153.322 349.857 153.72 350.815 154.428 351.522C155.136 352.23 156.095 352.627 157.096 352.628H192.108C193.109 352.627 194.068 352.23 194.776 351.522C195.484 350.815 195.882 349.857 195.883 348.857V207.595C195.882 206.595 195.484 205.636 194.776 204.929C194.068 204.222 193.109 203.824 192.108 203.823H157.096Z" fill="#FFF021"/>
<path d="M275.174 354H240.163C238.797 353.998 237.489 353.456 236.524 352.492C235.558 351.528 235.015 350.22 235.014 348.857V117.763C235.015 116.399 235.558 115.092 236.524 114.128C237.489 113.164 238.797 112.621 240.163 112.62H275.174C276.539 112.621 277.848 113.164 278.813 114.128C279.778 115.092 280.321 116.399 280.323 117.763V348.857C280.321 350.22 279.778 351.528 278.813 352.492C277.848 353.456 276.539 353.998 275.174 354ZM240.163 113.991C239.161 113.992 238.202 114.39 237.494 115.097C236.786 115.804 236.388 116.763 236.387 117.763V348.857C236.388 349.857 236.786 350.815 237.494 351.522C238.202 352.23 239.161 352.627 240.163 352.628H275.174C276.175 352.627 277.135 352.23 277.842 351.522C278.55 350.815 278.948 349.857 278.95 348.857V117.763C278.948 116.763 278.55 115.804 277.842 115.097C277.135 114.39 276.175 113.992 275.174 113.991H240.163Z" fill="#FFF021"/>
<path d="M359.015 353.657H324.004C322.821 353.656 321.687 353.186 320.85 352.35C320.014 351.514 319.543 350.382 319.542 349.2V23.4739C319.543 22.2922 320.014 21.1592 320.85 20.3236C321.687 19.488 322.821 19.018 324.004 19.0166H359.015C360.198 19.018 361.333 19.488 362.169 20.3236C363.006 21.1592 363.476 22.2922 363.478 23.4739V349.2C363.476 350.382 363.006 351.514 362.169 352.35C361.333 353.186 360.198 353.656 359.015 353.657Z" fill="#FFF021"/>
<path d="M141.267 152.48C141.394 151.48 141.3 150.464 140.991 149.504C140.683 148.544 140.167 147.664 139.481 146.924C138.795 146.185 137.955 145.605 137.021 145.225C136.086 144.845 135.079 144.674 134.071 144.725L121.867 122.364L119.121 131.964L127.482 152.458C127.68 154.143 128.49 155.698 129.758 156.827C131.027 157.957 132.666 158.582 134.365 158.585C136.064 158.587 137.705 157.967 138.977 156.842C140.249 155.717 141.064 154.165 141.267 152.48V152.48Z" fill="#A0616A"/>
<path d="M47.242 240.772L54.039 245.729L76.4154 221.897L66.3829 214.581L47.242 240.772Z" fill="#A0616A"/>
<path d="M62.5406 261.594L41.1769 246.015L47.2029 237.769L60.3125 247.33C62.5016 248.926 63.9662 251.326 64.3841 254.001C64.8019 256.676 64.1388 259.407 62.5406 261.594L62.5406 261.594Z" fill="#2F2E41"/>
<path d="M83.2041 267.011L91.6205 267.01L95.6242 234.583L83.2027 234.584L83.2041 267.011Z" fill="#A0616A"/>
<path d="M107.852 274.816L81.4011 274.817L81.4007 264.609L97.6321 264.608C100.343 264.608 102.942 265.683 104.859 267.598C106.775 269.512 107.852 272.109 107.852 274.816Z" fill="#2F2E41"/>
<path d="M108.481 140.536C108.481 140.536 112.6 180.308 102.302 207.738L94.7508 259.854H81.7074L83.0804 198.138L78.2749 143.279C78.2749 143.279 87.8859 118.592 108.481 140.536Z" fill="#2F2E41"/>
<path d="M63.8586 143.278L77.5886 190.594L50.8152 233.11L64.2019 244.425L94.751 196.766L85.8265 138.478L63.8586 143.278Z" fill="#2F2E41"/>
<path d="M98.8725 37.1768C108.185 37.1768 115.734 29.6362 115.734 20.3344C115.734 11.0326 108.185 3.49194 98.8725 3.49194C89.5604 3.49194 82.0115 11.0326 82.0115 20.3344C82.0115 29.6362 89.5604 37.1768 98.8725 37.1768Z" fill="#A0616A"/>
<path d="M84.7967 43.5037C84.7967 43.5037 95.0941 36.6463 106.765 51.7326L109.854 146.707C109.854 146.707 100.929 134.364 82.3939 146.022C63.8585 157.679 59.7395 144.65 59.7395 144.65C59.7395 144.65 46.6961 46.5895 84.7967 43.5037Z" fill="#FFF021"/>
<path d="M105.934 51.4931C108.896 51.653 111.693 52.9012 113.789 54.9976C115.885 57.094 117.131 59.8905 117.286 62.8491L119.465 104.192L133.881 143.279L125.643 150.136L98.8699 103.506L93.3884 65.1777C93.1371 63.421 93.2789 61.6305 93.8036 59.935C94.3282 58.2396 95.2226 56.6815 96.4224 55.3727C97.6222 54.064 99.0975 53.0373 100.742 52.3664C102.387 51.6956 104.16 51.3973 105.934 51.4931Z" fill="#FFF021"/>
<path d="M86.4834 32.9679C89.2398 35.9008 94.359 34.3263 94.7181 30.3195C94.7463 30.0084 94.7443 29.6953 94.712 29.3846C94.5266 27.6097 93.5001 25.9984 93.746 24.1244C93.8016 23.658 93.9756 23.2135 94.2514 22.833C96.4479 19.8949 101.604 24.1472 103.677 21.4874C104.948 19.8565 103.454 17.2886 104.43 15.4658C105.717 13.06 109.53 14.2468 111.922 12.9292C114.582 11.4633 114.423 7.38553 112.672 4.90524C110.536 1.88045 106.791 0.26639 103.092 0.0337527C99.3941 -0.198884 95.7213 0.799784 92.2685 2.14387C88.3455 3.67101 84.4552 5.78159 82.0411 9.22729C79.1052 13.4177 78.8227 19.0512 80.2909 23.951C81.1841 26.9316 84.2324 30.5728 86.4834 32.9679Z" fill="#2F2E41"/>
<path d="M445.183 353.709H0.817407C0.601029 353.708 0.393722 353.622 0.24094 353.469C0.0881594 353.316 0.00238037 353.109 0.00238037 352.892C0.00238037 352.676 0.0881594 352.469 0.24094 352.316C0.393722 352.163 0.601029 352.077 0.817407 352.076H445.183C445.399 352.077 445.606 352.163 445.759 352.316C445.912 352.469 445.998 352.676 445.998 352.892C445.998 353.109 445.912 353.316 445.759 353.469C445.606 353.622 445.399 353.708 445.183 353.709Z" fill="#FFF021"/>
</g>
<defs>
<clipPath id="clip0">
<rect width="446" height="354" fill="white"/>
</clipPath>
</defs>
</svg>
