<svg width="453" height="290" viewBox="0 0 453 290" fill="none" xmlns="http://www.w3.org/2000/svg">
<g clip-path="url(#clip0)">
<path d="M453 0.256592H0.193359V290H453V0.256592Z" fill="#DFCEF2"/>
<path d="M440.052 31.812H13.1412V277.563H440.052V31.812Z" fill="#F0E3FF"/>
<path d="M453 0H0V19.0976H453V0Z" fill="#4940FF"/>
<path d="M14.2953 13.6844C16.4279 13.6844 18.1568 11.9571 18.1568 9.82635C18.1568 7.69559 16.4279 5.96826 14.2953 5.96826C12.1627 5.96826 10.4338 7.69559 10.4338 9.82635C10.4338 11.9571 12.1627 13.6844 14.2953 13.6844Z" fill="white"/>
<path d="M27.8287 13.6844C29.9613 13.6844 31.6902 11.9571 31.6902 9.82635C31.6902 7.69559 29.9613 5.96826 27.8287 5.96826C25.6961 5.96826 23.9672 7.69559 23.9672 9.82635C23.9672 11.9571 25.6961 13.6844 27.8287 13.6844Z" fill="white"/>
<path d="M41.3621 13.6844C43.4947 13.6844 45.2236 11.9571 45.2236 9.82635C45.2236 7.69559 43.4947 5.96826 41.3621 5.96826C39.2295 5.96826 37.5006 7.69559 37.5006 9.82635C37.5006 11.9571 39.2295 13.6844 41.3621 13.6844Z" fill="white"/>
<path d="M272.861 87.7261H180.9V167.974H272.861V87.7261Z" fill="#DFCEF2"/>
<path d="M212.663 93.6235L215.486 104.905L214.276 121.425L225.164 129.886L228.793 101.682L226.777 94.8324L212.663 93.6235Z" fill="#FFB8B8"/>
<path d="M222.744 119.007L224.76 108.128L228.793 100.473L238.875 141.167L215.889 144.391L209.84 111.755L214.998 102.956L218.712 109.74L222.744 119.007Z" fill="white"/>
<path d="M248.682 167.974H210.44L210.646 164.939L219.515 159.3H231.614L248.553 166.553L248.682 167.974Z" fill="#2F2E41"/>
<path d="M220.325 99.6671C225.67 99.6671 230.003 95.3377 230.003 89.9972C230.003 84.6566 225.67 80.3271 220.325 80.3271C214.979 80.3271 210.646 84.6566 210.646 89.9972C210.646 95.3377 214.979 99.6671 220.325 99.6671Z" fill="#FFB8B8"/>
<path d="M257.023 136.737L247.749 129.078L248.676 149.108L248.766 151.031L248.881 153.571L249.139 159.114L249.551 167.974H229.362L227.985 163.731L227.437 167.974H208.973C208.844 165.75 208.774 163.068 208.889 160.361C208.961 157.878 209.278 155.407 209.836 152.986C210.182 151.34 210.871 149.784 211.856 148.42L208.227 135.528L206.611 143.585L195.323 144.389C195.323 144.389 195.329 144.183 195.349 143.797V143.791C195.509 139.823 196.7 117.369 202.582 112.965L214.559 101.204C214.559 101.204 214.566 102.059 214.682 103.499V103.506C214.772 104.727 214.939 106.367 215.242 108.264V108.283C215.917 112.559 217.256 118.121 219.92 123.034C220.905 124.847 221.703 126.391 222.353 127.702C225.166 133.393 225.166 134.724 225.166 134.724L226.331 120.854L226.337 120.803L226.343 120.751L227.894 102.181L228.126 99.4098V99.4033C228.126 99.4033 246.539 102.49 252.183 110.952C256.72 117.742 265.158 128.706 268.298 132.75C268.337 132.795 268.369 132.84 268.408 132.885L268.878 133.496C268.968 133.612 269.051 133.715 269.122 133.811C269.199 133.908 269.264 133.985 269.315 134.055L269.521 134.319L257.023 136.737Z" fill="#4940FF"/>
<path d="M225.971 141.973C226.639 141.973 227.18 141.432 227.18 140.764C227.18 140.097 226.639 139.556 225.971 139.556C225.302 139.556 224.761 140.097 224.761 140.764C224.761 141.432 225.302 141.973 225.971 141.973Z" fill="#2F2E41"/>
<path d="M227.584 152.852C228.252 152.852 228.793 152.311 228.793 151.643C228.793 150.976 228.252 150.435 227.584 150.435C226.915 150.435 226.374 150.976 226.374 151.643C226.374 152.311 226.915 152.852 227.584 152.852Z" fill="#2F2E41"/>
<path d="M252.183 156.076L248.554 159.702L246.134 153.255L248.764 151.034L252.183 156.076Z" fill="#FFB8B8"/>
<path d="M206.21 157.687L209.84 161.314L210.647 153.255L208.227 152.449L206.21 157.687Z" fill="#FFB8B8"/>
<path d="M209.033 82.555C209.033 82.555 206.21 78.9771 209.033 77.1882V78.0826C209.033 78.0826 215.082 71.3741 218.712 73.163L221.938 72.2686V73.163L223.954 72.2686L223.551 73.6103H226.374L225.164 74.5047C225.164 74.5047 234.439 74.0575 228.793 80.7661C228.793 80.7661 231.477 84.7882 228.925 87.0259C228.925 87.0259 226.777 82.1078 223.954 83.4495C223.189 83.8461 222.327 84.0148 221.469 83.9356C220.611 83.8563 219.794 83.5323 219.115 83.0022C219.115 83.0022 213.469 82.555 214.276 85.2384C215.082 87.9219 214.679 88.8163 214.679 88.8163C214.679 88.8163 212.663 90.158 213.066 91.0525C213.469 91.947 213.469 94.6304 213.469 94.6304C213.469 94.6304 211.453 91.4998 210.646 91.947C209.84 92.3942 205.404 87.9219 209.033 82.555Z" fill="#1F1B26"/>
<path d="M196.935 142.779L195.322 143.812V144.794C195.414 146.521 195.971 148.192 196.935 149.629C198.548 152.046 207.42 160.105 207.42 160.105L209.84 151.643L206.614 143.585L204.597 141.167L196.935 142.779Z" fill="#4940FF"/>
<path d="M263.878 132.303L268.303 132.752L269.524 134.318C269.524 134.318 270.33 137.944 268.717 139.959C267.104 141.973 252.99 158.493 252.99 158.493L246.941 151.24L257.426 138.347L257.022 136.735L263.878 132.303Z" fill="#4940FF"/>
<path d="M412.13 86.938H319.267V167.974H412.13V86.938Z" fill="#DFCEF2"/>
<path d="M376.641 104.553L355.671 104.956L352.848 85.6162H376.641V104.553Z" fill="#2F2E41"/>
<path d="M386.925 107.575C386.925 107.575 394.183 107.575 394.99 115.23C395.797 122.886 392.974 142.628 392.974 142.628L390.554 168.012H384.869L385.312 148.672L386.925 120.871L382.085 115.633L386.925 107.575Z" fill="#A0616A"/>
<path d="M357.083 107.575C357.083 107.575 350.227 105.963 343.775 115.231C343.775 115.231 327.241 127.318 332.483 131.75C337.726 136.182 351.84 139.003 351.84 139.003C351.84 139.003 346.598 149.881 349.824 150.284C353.05 150.687 357.889 138.6 356.679 136.585C355.47 134.571 351.034 133.362 351.034 133.362L340.549 128.124C340.549 128.124 354.002 116.577 354.736 121.545L358.696 119.663L357.083 107.575Z" fill="#A0616A"/>
<path d="M372.004 93.876C372.855 96.7662 374.35 99.4269 376.375 101.659C378.4 103.892 380.903 105.639 383.698 106.769L373.213 115.633L360.712 107.575C360.712 107.575 365.148 104.755 363.938 98.711L372.004 93.876Z" fill="#A0616A"/>
<path d="M363.938 100.322C369.284 100.322 373.617 95.993 373.617 90.6524C373.617 85.3118 369.284 80.9824 363.938 80.9824C358.593 80.9824 354.26 85.3118 354.26 90.6524C354.26 95.993 358.593 100.322 363.938 100.322Z" fill="#A0616A"/>
<path d="M355.47 106.769L362.83 105.328C362.83 105.328 365.148 110.798 372.81 109.993C380.472 109.187 381.823 105.88 381.823 105.88L388.941 107.575C388.941 107.575 384.908 112.007 386.925 120.871C386.925 120.871 387.731 135.376 383.295 140.614L382.892 148.673C382.892 148.673 388.134 162.372 385.312 168.013H345.791C345.791 168.013 347.404 147.867 354.663 142.629L356.276 139.003C356.276 139.003 353.05 124.9 354.663 122.483C354.663 122.483 355.873 107.172 355.47 106.769Z" fill="#FFF021"/>
<path d="M382.339 99.7388C380.142 98.5334 379.119 95.8278 379.046 93.3246C378.973 90.8214 379.581 88.344 379.629 85.8402C379.653 85.3279 379.61 84.8147 379.499 84.3139C379.317 83.6924 379.033 83.1052 378.659 82.5763C375.802 78.2024 370.835 75.1256 365.604 75.0772C364.848 75.0673 364.098 75.2051 363.395 75.4829C362.854 75.6993 362.677 75.6728 362.574 76.3363C361.335 75.9278 359.991 75.9705 358.78 76.4568C357.581 76.9439 356.462 77.6095 355.462 78.4309C354.868 78.8724 354.307 79.3574 353.785 79.8819C351.021 82.7433 350.384 87.1533 351.185 91.049C351.445 92.3156 350.196 93.5383 349.162 94.3162C348.129 95.0941 346.935 95.8085 346.427 96.9978C345.939 98.142 346.207 99.4504 346.109 100.69C345.998 101.862 345.562 102.98 344.85 103.918C344.137 104.855 343.177 105.575 342.076 105.996C342.301 106.265 342.594 106.468 342.924 106.584C343.254 106.7 343.61 106.725 343.953 106.656C344.67 106.505 345.34 106.186 345.909 105.726C348.049 104.142 349.58 101.872 350.246 99.2962C350.55 100.676 350.432 102.099 350.421 103.512C350.447 105.088 350.157 106.654 349.566 108.116C348.966 109.585 347.865 110.795 346.46 111.534C347.815 112.197 349.31 111.716 350.459 110.738C351.56 109.693 352.356 108.369 352.76 106.906C353.531 104.572 353.844 102.112 353.681 99.6591C354.943 101.781 355.404 104.283 354.981 106.714C354.54 109.193 353.244 111.439 351.319 113.064C354.676 113.036 357.976 112.205 360.946 110.642C361.712 110.295 362.388 109.775 362.92 109.123C363.876 107.798 363.65 105.992 363.382 104.382C363.17 103.108 364.762 101.267 363.85 100.353C363.614 100.115 363.303 99.9667 362.969 99.9333C359.668 99.4624 356.698 97.568 355.268 94.5578C354.65 93.3202 354.311 91.9621 354.276 90.5794C354.276 89.1266 354.604 87.6925 355.236 86.3838C355.867 85.075 356.785 83.9252 357.922 83.0197C359.059 82.1143 360.386 81.4764 361.804 81.1536C363.222 80.8308 364.694 80.8312 366.111 81.155C367.529 81.4787 368.855 82.1174 369.992 83.0236C371.128 83.9298 372.046 85.0801 372.676 86.3893C373.307 87.6984 373.634 89.1327 373.633 90.5855C373.633 92.0383 373.305 93.4723 372.674 94.7811C372.568 96.7302 372.245 98.6615 371.709 100.539C371.019 102.939 369.85 105.389 367.687 106.641C368.443 106.965 369.256 107.137 370.079 107.147C372.793 107.446 375.648 107.38 378.104 106.189C380.561 104.998 382.514 102.462 382.339 99.7388Z" fill="#1F1B26"/>
<path d="M375.431 88.4366C368.176 85.5313 361.024 84.9116 354.058 88.4366V82.5806C354.058 82.0798 354.157 81.5838 354.349 81.1211C354.541 80.6583 354.822 80.2379 355.176 79.8837C355.531 79.5295 355.952 79.2486 356.415 79.0569C356.878 78.8653 357.374 78.7666 357.876 78.7666H372.416C373.216 78.7666 373.983 79.0841 374.548 79.6491C375.114 80.2142 375.431 80.9806 375.431 81.7797V88.4366Z" fill="#1F1B26"/>
<path d="M373.617 92.0625C374.452 92.0625 375.129 90.9802 375.129 89.645C375.129 88.3099 374.452 87.2275 373.617 87.2275C372.782 87.2275 372.104 88.3099 372.104 89.645C372.104 90.9802 372.782 92.0625 373.617 92.0625Z" fill="#A0616A"/>
<path d="M139.921 87.4819H47.6772V167.975H139.921V87.4819Z" fill="#DFCEF2"/>
<path d="M100.413 106.876L80.6529 106.473V79.0747L100.413 81.0892V106.876Z" fill="#2F2E41"/>
<path d="M118.509 167.974H75.808C76.085 166.424 76.5609 164.915 77.2239 163.486C78.4338 161.268 79.9462 156.432 81.1561 152.15C81.8576 149.668 82.4562 147.372 82.8359 145.887C83.1126 144.8 83.2735 144.144 83.2735 144.144L104.241 135.682C104.241 135.682 104.833 136.756 105.786 138.563C105.799 138.59 105.814 138.616 105.831 138.64C106.507 139.92 107.356 141.566 108.296 143.45H108.302C111.739 150.291 116.431 160.335 118.509 167.974Z" fill="#1F1B26"/>
<path d="M84.6856 95.1909L81.8627 109.293L91.5412 110.099C91.5412 110.099 93.1542 97.6084 93.5575 97.2055C93.9608 96.8026 84.6856 95.1909 84.6856 95.1909Z" fill="#FFB8B8"/>
<path d="M90.9362 99.8249C96.2815 99.8249 100.615 95.4955 100.615 90.1549C100.615 84.8143 96.2815 80.4849 90.9362 80.4849C85.591 80.4849 81.2578 84.8143 81.2578 90.1549C81.2578 95.4955 85.591 99.8249 90.9362 99.8249Z" fill="#FFB8B8"/>
<path d="M81.8627 105.264C81.8627 105.264 91.1379 107.279 91.5412 106.876C91.9444 106.473 102.833 108.487 103.639 112.114C104.446 115.74 102.429 129.842 102.429 129.842C102.429 129.842 106.865 131.857 106.462 132.662C106.059 133.468 108.882 134.274 108.075 135.483C107.269 136.692 92.751 157.643 85.8954 157.24C79.0398 156.837 66.5385 111.308 66.5385 111.308C66.5385 111.308 66.9417 105.667 72.1842 105.667C77.4267 105.667 81.8627 105.264 81.8627 105.264Z" fill="#FFF021"/>
<path d="M108.277 137.699C108.277 137.699 102.624 138.977 103.636 141.561C104.647 144.145 110.696 143.34 110.696 143.34L108.277 137.699Z" fill="#FFB8B8"/>
<path d="M90.6361 167.975H75.808C75.763 168.206 75.7115 168.444 75.66 168.682C74.9465 168.387 74.2105 168.151 73.459 167.975C73.2916 167.936 73.1951 167.917 73.1951 167.917C73.1951 167.917 69.9644 155.828 65.5301 140.923C61.5978 127.696 65.5944 114.148 66.5469 111.261V111.254C66.6692 110.894 66.74 110.701 66.74 110.701L70.3698 107.885L82.8359 145.887L86.0989 155.828C86.0989 155.828 86.2018 156.381 86.3756 157.236C86.9033 159.783 88.1133 164.997 89.3232 165.904C89.9261 166.475 90.3774 167.186 90.6361 167.975Z" fill="#FFF021"/>
<path d="M98.1951 110.704L103.228 111.226L114.729 125.611C114.729 125.611 119.165 129.641 116.342 131.252C113.519 132.864 112.31 136.087 112.31 136.087C112.31 136.087 115.939 144.146 110.696 145.354C110.696 145.354 107.067 137.296 105.857 136.49C104.647 135.684 107.47 132.461 107.47 132.461L98.1951 126.417L98.1951 110.704Z" fill="#FFF021"/>
<path d="M90.9362 74.4408C90.9362 74.4408 79.6447 72.4262 77.6283 82.4992C77.145 84.8379 76.8257 87.2075 76.6727 89.5907C76.3554 95.4277 74.754 101.123 71.9825 106.271L90.1297 111.509C90.1297 111.509 85.2904 103.854 86.097 100.63C86.2465 99.8219 86.2352 98.9919 86.0639 98.1877C84.1825 97.0293 82.7547 95.2624 82.0179 93.1807C81.2811 91.099 81.2797 88.8281 82.014 86.7455C82.7482 84.663 84.1739 82.8943 86.0538 81.7335C87.9337 80.5728 90.1547 80.0901 92.3474 80.3655C94.5401 80.641 96.5723 81.658 98.1062 83.2476C99.64 84.8371 100.583 86.9034 100.778 89.1028C100.974 91.3021 100.41 93.502 99.1802 95.3366C97.9506 97.1713 96.1294 98.5301 94.0196 99.1871C92.6701 102.121 91.9359 105.294 93.7591 107.48C96.063 110.293 98.7827 112.739 101.825 114.732C101.825 114.732 99.8082 105.062 103.034 99.4216C106.26 93.7808 103.034 75.2466 90.9362 74.4408Z" fill="#1F1B26"/>
<path d="M100.964 87.3627L82.0435 88.4716L81.5229 79.6144L97.9904 79.0229L100.964 87.3627Z" fill="#1F1B26"/>
<path d="M51.4669 201.18C53.2441 201.18 54.6848 199.74 54.6848 197.965C54.6848 196.189 53.2441 194.75 51.4669 194.75C49.6897 194.75 48.249 196.189 48.249 197.965C48.249 199.74 49.6897 201.18 51.4669 201.18Z" fill="#DFCEF2"/>
<path d="M51.4669 219.184C53.2441 219.184 54.6848 217.745 54.6848 215.969C54.6848 214.193 53.2441 212.754 51.4669 212.754C49.6897 212.754 48.249 214.193 48.249 215.969C48.249 217.745 49.6897 219.184 51.4669 219.184Z" fill="#DFCEF2"/>
<path d="M51.4669 237.188C53.2441 237.188 54.6848 235.749 54.6848 233.973C54.6848 232.198 53.2441 230.758 51.4669 230.758C49.6897 230.758 48.249 232.198 48.249 233.973C48.249 235.749 49.6897 237.188 51.4669 237.188Z" fill="#DFCEF2"/>
<path d="M126.122 195.393H64.9821V200.537H126.122V195.393Z" fill="#DFCEF2"/>
<path d="M126.122 213.397H64.9821V218.541H126.122V213.397Z" fill="#DFCEF2"/>
<path d="M126.122 231.401H64.9821V236.545H126.122V231.401Z" fill="#DFCEF2"/>
<path d="M191.162 201.18C192.939 201.18 194.38 199.74 194.38 197.965C194.38 196.189 192.939 194.75 191.162 194.75C189.385 194.75 187.944 196.189 187.944 197.965C187.944 199.74 189.385 201.18 191.162 201.18Z" fill="#DFCEF2"/>
<path d="M191.162 219.184C192.939 219.184 194.38 217.745 194.38 215.969C194.38 214.193 192.939 212.754 191.162 212.754C189.385 212.754 187.944 214.193 187.944 215.969C187.944 217.745 189.385 219.184 191.162 219.184Z" fill="#DFCEF2"/>
<path d="M191.162 237.188C192.939 237.188 194.38 235.749 194.38 233.973C194.38 232.198 192.939 230.758 191.162 230.758C189.385 230.758 187.944 232.198 187.944 233.973C187.944 235.749 189.385 237.188 191.162 237.188Z" fill="#DFCEF2"/>
<path d="M265.817 195.393H204.677V200.537H265.817V195.393Z" fill="#DFCEF2"/>
<path d="M265.817 213.397H204.677V218.541H265.817V213.397Z" fill="#DFCEF2"/>
<path d="M265.817 231.401H204.677V236.545H265.817V231.401Z" fill="#DFCEF2"/>
<path d="M329.98 201.18C331.757 201.18 333.198 199.74 333.198 197.965C333.198 196.189 331.757 194.75 329.98 194.75C328.203 194.75 326.762 196.189 326.762 197.965C326.762 199.74 328.203 201.18 329.98 201.18Z" fill="#DFCEF2"/>
<path d="M329.98 219.184C331.757 219.184 333.198 217.745 333.198 215.969C333.198 214.193 331.757 212.754 329.98 212.754C328.203 212.754 326.762 214.193 326.762 215.969C326.762 217.745 328.203 219.184 329.98 219.184Z" fill="#DFCEF2"/>
<path d="M329.98 237.188C331.757 237.188 333.198 235.749 333.198 233.973C333.198 232.198 331.757 230.758 329.98 230.758C328.203 230.758 326.762 232.198 326.762 233.973C326.762 235.749 328.203 237.188 329.98 237.188Z" fill="#DFCEF2"/>
<path d="M404.635 195.393H343.495V200.537H404.635V195.393Z" fill="#DFCEF2"/>
<path d="M404.635 213.397H343.495V218.541H404.635V213.397Z" fill="#DFCEF2"/>
<path d="M404.635 231.401H343.495V236.545H404.635V231.401Z" fill="#DFCEF2"/>
</g>
<defs>
<clipPath id="clip0">
<rect width="453" height="290" rx="4" fill="white"/>
</clipPath>
</defs>
</svg>
