<svg width="562" height="281" viewBox="0 0 562 281" fill="none" xmlns="http://www.w3.org/2000/svg">
<g clip-path="url(#clip0)">
<path d="M540.26 18.6033H290.106V143.607H540.26V18.6033Z" fill="white"/>
<path d="M261.345 256.975L267.27 255.268C268.321 252.548 269.218 249.77 269.956 246.948L267.174 246.847L270.207 245.973C271.086 242.475 271.446 240.103 271.446 240.103C271.446 240.103 259.429 243.679 250.38 250.659L249.264 258.488L248.196 252.469C247.211 253.342 246.282 254.276 245.415 255.266C236.703 265.276 232.912 276.235 236.947 279.742C240.982 283.25 251.316 277.979 260.028 267.969C262.724 264.718 264.905 261.074 266.496 257.163L261.345 256.975Z" fill="white"/>
<path d="M36.8764 221.309L33.4994 207.997C27.5113 205.461 21.3849 203.264 15.1494 201.418L14.723 207.604L12.9939 200.789C5.26082 198.582 -1.52588e-05 197.61 -1.52588e-05 197.61C-1.52588e-05 197.61 7.1062 224.616 22.0109 245.264L39.3781 248.312L25.886 250.257C27.7617 252.512 29.7774 254.647 31.9212 256.649C53.6033 276.763 77.7532 285.991 85.8614 277.261C93.9696 268.531 82.9657 245.148 61.2835 225.034C54.5619 218.798 46.118 213.795 37.6658 209.856L36.8764 221.309Z" fill="white"/>
<path d="M68.9948 206.853L72.9889 193.713C69.1746 188.448 65.0663 183.403 60.6835 178.601L57.1187 183.676L59.1637 176.948C53.6852 171.064 49.6845 167.514 49.6845 167.514C49.6845 167.514 41.7997 194.305 43.88 219.679L57.1703 231.261L44.6149 225.955C45.0542 228.855 45.6756 231.724 46.4753 234.545C54.6332 262.964 70.5336 283.34 81.9898 280.055C93.4461 276.771 96.1199 251.069 87.962 222.65C85.433 213.84 80.7927 205.194 75.5941 197.456L68.9948 206.853Z" fill="white"/>
<path d="M123.023 261.859L124.418 268.131L134.18 267.434L133.482 260.465L123.023 261.859Z" fill="#FFB8B8"/>
<path d="M98.6176 261.859L97.2232 268.131L87.4605 267.434L88.1583 260.465L98.6176 261.859Z" fill="#FFB8B8"/>
<path d="M95.8283 58.3684C103.145 58.3684 109.077 52.4403 109.077 45.1275C109.077 37.8148 103.145 31.8867 95.8283 31.8867C88.5113 31.8867 82.5797 37.8148 82.5797 45.1275C82.5797 52.4403 88.5113 58.3684 95.8283 58.3684Z" fill="#FFB8B8"/>
<path d="M87.4605 48.6118L83.9745 64.6405L101.406 70.2154L100.709 50.006L87.4605 48.6118Z" fill="#FFB8B8"/>
<path d="M93.7364 66.7311L84.9635 60.0928C84.9635 60.0928 83.277 57.6715 82.5797 59.7622C81.8824 61.8529 75.6068 69.5186 75.6068 69.5186L80.4879 126.663L117.444 127.36C117.444 127.36 103.003 60.7451 101.159 63.0412C99.3148 65.3373 94.4338 65.3373 93.7364 66.7311Z" fill="#3029BA"/>
<path d="M101.058 58.7168C101.058 58.7168 98.2688 61.5043 99.6634 63.595C101.058 65.6857 100.012 69.5624 101.407 69.8889C102.801 70.2154 100.012 93.9095 104.196 100.182C108.38 106.453 106.288 122.482 106.288 125.269C106.288 128.057 110.471 144.782 110.471 144.782C110.471 144.782 124.417 146.176 124.417 142.692C124.417 139.207 119.536 114.816 119.536 114.816L123.72 71.6092C123.72 71.6092 123.72 67.4279 118.839 66.0341C113.958 64.6403 104.196 61.1559 104.196 61.1559L101.058 58.7168Z" fill="#2F2E41"/>
<path d="M120.931 109.241H117.444C117.444 109.241 99.3147 110.635 100.709 102.969C102.104 95.3033 116.05 100.878 116.05 100.878L120.234 102.969L120.931 109.241Z" fill="#FFB8B8"/>
<path d="M85.5177 57.5449C85.5177 57.5449 79.7905 61.1559 79.0932 62.5497C78.3959 63.9435 62.3582 71.6092 62.3582 77.1843C62.3582 82.7594 67.2392 89.0314 67.2392 89.0314L73.5149 150.357C73.5149 150.357 83.9743 153.842 84.6716 151.054C85.3689 148.267 88.1581 86.9407 86.7635 84.1532C85.3689 81.3656 85.3689 63.2466 85.3689 63.2466L85.5177 57.5449Z" fill="#2F2E41"/>
<path d="M67.2393 158.72L66.542 162.901C66.542 162.901 67.2393 176.839 72.8176 176.142C78.396 175.445 74.9095 161.508 74.9095 161.508L74.2122 158.72H67.2393Z" fill="#FFB8B8"/>
<path d="M75.6068 123.179C75.6068 123.179 76.3041 185.899 79.7906 206.108C83.277 226.318 84.6716 261.162 84.6716 261.162C84.6716 261.162 93.7364 262.556 95.131 263.253C96.5256 263.95 100.012 261.859 100.012 261.859L100.709 158.72L113.958 205.411C113.958 205.411 116.05 261.859 120.234 263.253C124.417 264.647 136.969 261.859 136.969 261.859C136.969 261.859 132.088 208.199 130.693 206.108C129.298 204.018 125.812 142.692 120.234 131.542L118.142 123.876C118.142 123.876 78.396 125.27 75.6068 123.179Z" fill="#2F2E41"/>
<path d="M125.115 265.344C125.115 265.344 121.628 262.556 121.628 264.647C121.628 266.737 118.142 279.63 122.325 279.63C126.509 279.63 154.401 282.069 153.704 276.494C153.006 270.919 136.227 262.016 136.227 262.016C136.227 262.016 129.996 263.95 129.298 264.647C128.601 265.344 125.115 265.344 125.115 265.344Z" fill="#2F2E41"/>
<path d="M96.5256 265.344C96.5256 265.344 100.012 262.556 100.012 264.647C100.012 266.737 103.499 279.63 99.3147 279.63C95.131 279.63 67.2392 282.069 67.9365 276.494C68.6338 270.919 85.413 262.016 85.413 262.016C85.413 262.016 91.6445 263.95 92.3418 264.647C93.0391 265.344 96.5256 265.344 96.5256 265.344Z" fill="#2F2E41"/>
<path d="M118.839 70.9126L123.72 71.6095L133.482 99.4849C133.482 99.4849 136.271 113.423 132.088 115.513C127.904 117.604 120.007 117.195 120.007 117.195L118.839 101.576L122.325 102.272L118.839 95.3036V70.9126Z" fill="#2F2E41"/>
<path d="M65.8446 74.3967L62.3582 77.1843C62.3582 77.1843 58.8717 112.725 59.569 116.21C60.2663 119.694 64.4501 162.204 64.4501 162.204L76.3041 159.417L67.9365 75.0936L65.8446 74.3967Z" fill="#2F2E41"/>
<path d="M81.1714 35.5039C81.1714 35.5039 77.3141 30.6135 81.1714 28.1683V29.3909C81.1714 29.3909 89.437 20.2215 94.3964 22.6667L98.8047 21.4441V22.6667L101.56 21.4441L101.009 23.278H104.866L103.213 24.5006C103.213 24.5006 115.887 23.8893 108.172 33.0587C108.172 33.0587 111.839 38.5564 108.353 41.6149C108.353 41.6149 105.417 34.8926 101.56 36.7265C100.515 37.2686 99.3362 37.4993 98.1639 37.3909C96.9916 37.2825 95.8751 36.8397 94.9475 36.1152C94.9475 36.1152 87.2329 35.5039 88.335 39.1717C89.437 42.8395 88.886 44.062 88.886 44.062C88.886 44.062 86.1308 45.896 86.6818 47.1185C87.2329 48.3411 87.2329 52.0089 87.2329 52.0089C87.2329 52.0089 84.4777 47.7298 83.3756 48.3411C82.2735 48.9524 76.2121 42.8395 81.1714 35.5039Z" fill="#2F2E41"/>
<path d="M232.341 79.2726L203.022 80.0004L199.075 45.0603H232.341V79.2726Z" fill="#2F2E41"/>
<path d="M201.305 124.567L190.603 198.725C190.603 198.725 181.328 225.109 180.614 237.944L177.761 256.483L190.603 259.336L204.159 207.282L222.71 160.22L220.569 214.413L216.288 258.623L229.131 260.762L236.979 204.43L245.541 163.072C245.541 163.072 251.962 127.419 241.974 123.854L201.305 124.567Z" fill="#2F2E41"/>
<path d="M189.744 251.933L188.316 269.288C188.316 269.288 203.599 278.119 198.696 279.83C193.792 281.542 187.08 279.34 185.707 278.951C184.258 278.54 181.551 277.885 179.503 277.4C178.555 277.183 177.701 276.668 177.068 275.931C176.434 275.194 176.053 274.274 175.981 273.304L175.977 273.241C175.853 271.105 180.674 252.546 180.674 252.546L189.744 251.933Z" fill="#2F2E41"/>
<path d="M226.858 252.367L228.061 268.962C228.061 268.962 245.464 275.424 240.978 278.041C236.492 280.658 229.483 279.778 228.061 279.658C225.439 279.437 218.915 279.217 218.915 279.217C218.915 279.217 217.709 280.261 217.179 278.188C216.65 276.116 217.885 257.6 217.885 257.6L226.858 252.367Z" fill="#2F2E41"/>
<path d="M216.288 64.6696C223.775 64.6696 229.845 58.6039 229.845 51.1214C229.845 43.639 223.775 37.5732 216.288 37.5732C208.802 37.5732 202.732 43.639 202.732 51.1214C202.732 58.6039 208.802 64.6696 216.288 64.6696Z" fill="#FFB8B8"/>
<path d="M208.44 58.9651L205.586 74.6526L217.715 80.3573L220.569 60.3916L208.44 58.9651Z" fill="#FFB8B8"/>
<path d="M207.013 133.124L221.996 143.82C221.996 143.82 228.418 160.22 233.412 157.368C238.406 154.516 227.704 140.254 227.704 140.254L215.575 128.132L207.013 133.124Z" fill="#FFB8B8"/>
<path d="M249.822 128.132L251.249 136.689C251.249 136.689 247.682 154.516 243.401 150.95C239.12 147.385 244.828 135.976 244.828 135.976L244.114 128.845L249.822 128.132Z" fill="#FFB8B8"/>
<path d="M216.288 76.0786L214.861 70.3741L206.3 66.0957L203.446 69.661L194.171 72.5133L204.873 129.558C204.873 129.558 241.26 131.697 241.974 125.993C242.687 120.288 234.839 104.601 234.839 104.601C234.839 104.601 236.979 96.7574 236.266 92.479L233.412 75.3655L221.996 71.8002L219.389 68.6479L217.002 72.5132L216.288 76.0786Z" fill="#3029BA"/>
<path d="M196.311 73.9396L194.171 72.5134C194.171 72.5134 189.89 73.2265 188.463 78.931C187.036 84.6355 188.463 110.306 192.03 115.297C195.598 120.289 205.586 135.263 205.586 135.263L219.142 128.845L204.873 112.445L201.305 91.7661L196.311 73.9396Z" fill="#3029BA"/>
<path d="M227.704 76.7918L233.412 75.3657C233.412 75.3657 236.979 76.7918 238.406 81.7833C239.833 86.7747 247.682 111.732 246.968 113.871C246.255 116.01 253.389 130.272 253.389 130.272L243.401 130.985L237.693 116.01L231.985 101.036L227.704 76.7918Z" fill="#3029BA"/>
<path d="M192.793 63.9875C195.652 62.4185 196.982 58.8968 197.077 55.6385C197.172 52.3803 196.381 49.1556 196.319 45.8966C196.287 45.2298 196.344 44.5617 196.488 43.91C196.726 43.1009 197.095 42.3367 197.582 41.6482C201.299 35.9549 207.762 31.9501 214.569 31.8871C215.552 31.8742 216.529 32.0536 217.443 32.4153C218.147 32.6969 218.377 32.6625 218.512 33.5261C220.125 32.9944 221.873 33.05 223.449 33.6829C225.009 34.317 226.465 35.1833 227.766 36.2525C228.539 36.8272 229.269 37.4585 229.948 38.1411C233.546 41.8656 234.374 47.6059 233.332 52.6766C232.993 54.3252 234.619 55.9167 235.964 56.9293C237.309 57.9419 238.862 58.8717 239.523 60.4198C240.158 61.909 239.809 63.6121 239.937 65.226C240.081 66.7516 240.648 68.2067 241.575 69.4271C242.503 70.6475 243.753 71.5846 245.184 72.1326C244.892 72.4821 244.511 72.7464 244.081 72.8975C243.651 73.0485 243.189 73.0809 242.742 72.991C241.81 72.7947 240.937 72.3797 240.197 71.7801C237.413 69.7183 235.421 66.7643 234.554 63.4114C234.158 65.2072 234.312 67.0596 234.326 68.8983C234.292 70.9502 234.67 72.9882 235.438 74.8914C236.22 76.8036 237.651 78.379 239.481 79.3402C237.716 80.2037 235.772 79.5778 234.277 78.304C232.844 76.9445 231.808 75.2204 231.282 73.3171C230.279 70.279 229.872 67.076 230.084 63.8838C228.442 66.6453 227.842 69.9021 228.392 73.0667C228.967 76.2932 230.652 79.2172 233.157 81.3322C228.79 81.2952 224.495 80.2142 220.631 78.1794C219.633 77.7275 218.754 77.0506 218.062 76.2019C216.818 74.4781 217.112 72.127 217.461 70.0308C217.737 68.3733 215.664 65.977 216.851 64.7869C217.204 64.4387 217.675 64.2363 218.17 64.2202C219.955 64.0868 221.685 63.545 223.227 62.6369C224.769 61.7287 226.081 60.4784 227.063 58.9826C228.431 56.9259 229.209 54.5332 229.31 52.0652C229.309 50.2531 228.917 48.4625 228.16 46.8159C227.402 45.1693 226.298 43.7055 224.923 42.5245C223.548 41.3435 221.934 40.4732 220.191 39.9731C218.448 39.473 216.618 39.3549 214.825 39.6269C213.033 39.8988 211.32 40.5544 209.804 41.5488C208.288 42.5432 207.005 43.853 206.042 45.3886C205.08 46.9242 204.46 48.6495 204.226 50.4465C203.992 52.2435 204.149 54.0698 204.686 55.8006C205.114 57.1934 205.421 58.6206 205.603 60.0663C205.818 61.7438 206.159 63.4027 206.625 65.0287C207.523 68.1535 209.044 71.342 211.859 72.9719C210.875 73.3932 209.817 73.617 208.746 73.6306C205.215 74.0195 201.5 73.9337 198.303 72.3833C195.106 70.833 192.565 67.5314 192.793 63.9875Z" fill="#2F2E41"/>
<path d="M200.5 50.1561C210.644 46.0929 220.644 45.2262 230.383 50.1561V41.9662C230.383 40.5515 229.821 39.1948 228.82 38.1944C227.819 37.1941 226.462 36.6321 225.046 36.6321H204.717C204.163 36.6321 203.615 36.7411 203.103 36.9528C202.592 37.1646 202.127 37.475 201.735 37.8663C201.344 38.2576 201.033 38.7222 200.821 39.2335C200.609 39.7447 200.5 40.2927 200.5 40.8461V50.1561Z" fill="#2F2E41"/>
<path d="M203.657 55.2277C204.482 55.2277 205.152 54.1573 205.152 52.837C205.152 51.5166 204.482 50.4463 203.657 50.4463C202.831 50.4463 202.162 51.5166 202.162 52.837C202.162 54.1573 202.831 55.2277 203.657 55.2277Z" fill="#FFB8B8"/>
<path d="M329.285 279.734H0V281H329.285V279.734Z" fill="#3F3D56"/>
<path d="M562 126.27H310.579V0H562V126.27ZM311.845 125.004H560.734V1.26574H311.845V125.004Z" fill="#3F3D56"/>
<path d="M435.561 102.708C435.56 104.728 434.959 106.702 433.836 108.38C432.712 110.058 431.116 111.366 429.249 112.139C427.382 112.911 425.328 113.112 423.346 112.718C421.364 112.324 419.544 111.351 418.115 109.923C416.687 108.495 415.713 106.676 415.319 104.696C414.924 102.715 415.126 100.662 415.899 98.796C416.671 96.93 417.98 95.3348 419.659 94.212C421.339 93.0891 423.314 92.4891 425.334 92.4876C426.678 92.4838 428.01 92.7456 429.252 93.2579C430.495 93.7702 431.624 94.5229 432.574 95.4727C433.525 96.4226 434.278 97.5508 434.79 98.7926C435.303 100.034 435.565 101.365 435.561 102.708Z" fill="#423ADC"/>
<path opacity="0.3" d="M435.561 102.708C435.56 104.728 434.959 106.702 433.836 108.38C432.712 110.058 431.116 111.366 429.249 112.139C427.382 112.911 425.328 113.112 423.346 112.718C421.364 112.324 419.544 111.351 418.115 109.923C416.687 108.495 415.713 106.676 415.319 104.696C414.924 102.715 415.126 100.662 415.899 98.796C416.671 96.93 417.98 95.3348 419.659 94.212C421.339 93.0891 423.314 92.4891 425.334 92.4876C426.678 92.4838 428.01 92.7456 429.252 93.2579C430.495 93.7702 431.624 94.5229 432.574 95.4727C433.525 96.4226 434.278 97.5508 434.79 98.7926C435.303 100.034 435.565 101.365 435.561 102.708Z" fill="black"/>
<path d="M454.083 51.1865C454.103 54.5267 453.414 57.8332 452.063 60.8884C451.478 62.2035 450.777 63.4637 449.967 64.654C448.29 67.0773 446.277 69.2507 443.99 71.1093C443.597 71.4383 443.166 71.7801 442.59 72.2231C441.868 72.761 441.064 73.3243 440.139 73.9318C438.507 74.987 436.936 76.1344 435.434 77.3683C434.544 78.0621 433.772 78.8956 433.148 79.8365C432.37 81.1972 431.977 83.8299 431.977 87.6651V88.298H414.905V85.3361C414.905 83.0198 414.962 81.0706 415.069 79.3745C415.147 77.8375 415.308 76.3059 415.551 74.7862C415.718 73.4496 416.121 72.1532 416.741 70.9574C417.862 69.0904 420.566 66.5526 424.999 63.1984C425.189 63.0592 425.379 62.9136 425.575 62.768C425.759 62.6415 425.936 62.5085 426.119 62.3693C427.655 61.2792 429.069 60.0274 430.337 58.6354C430.707 58.2018 431.05 57.7452 431.363 57.2684L431.445 57.1418C432.438 55.3845 432.924 53.3868 432.851 51.3701C432.856 50.8598 432.822 50.35 432.75 49.8449C432.553 47.8746 431.638 46.0456 430.179 44.7059C428.596 43.2558 426.555 42.4049 424.41 42.301C424.137 42.2757 423.884 42.2694 423.624 42.2694C422.615 42.2638 421.609 42.3828 420.629 42.6238C418.792 43.0767 417.144 44.095 415.918 45.535C415.268 46.3018 414.715 47.1456 414.272 48.0475C412.776 51.4967 411.819 55.1552 411.435 58.8948L411.371 59.5594L395.3 55.2812V48.1994C395.376 47.9146 395.458 47.6298 395.547 47.3513C396.573 43.7996 398.207 40.4527 400.378 37.4596C401.306 36.1894 402.351 35.0092 403.5 33.9345C403.772 33.6623 404.07 33.3966 404.368 33.1371C406.301 31.4592 408.45 30.046 410.757 28.9348L410.96 28.8399C415.329 26.8215 420.097 25.8094 424.91 25.878C425.41 25.878 425.999 25.8844 426.582 25.916C431.365 26.0372 436.059 27.2334 440.317 29.4158C442.228 30.4048 444.02 31.611 445.655 33.0105C450.243 36.7481 453.197 42.1221 453.893 47.9968C454.02 49.0553 454.084 50.1205 454.083 51.1865Z" fill="#423ADC"/>
<path opacity="0.3" d="M454.083 51.1865C454.103 54.5267 453.414 57.8332 452.063 60.8884C451.478 62.2035 450.777 63.4637 449.967 64.654C448.29 67.0773 446.277 69.2507 443.99 71.1093C443.597 71.4383 443.166 71.7801 442.59 72.2231C441.868 72.761 441.064 73.3243 440.139 73.9318C438.507 74.987 436.936 76.1344 435.434 77.3683C434.544 78.0621 433.772 78.8956 433.148 79.8365C432.37 81.1972 431.977 83.8299 431.977 87.6651V88.298H414.905V85.3361C414.905 83.0198 414.962 81.0706 415.069 79.3745C415.147 77.8375 415.308 76.3059 415.551 74.7862C415.718 73.4496 416.121 72.1532 416.741 70.9574C417.862 69.0904 420.566 66.5526 424.999 63.1984C425.189 63.0592 425.379 62.9136 425.575 62.768C425.759 62.6415 425.936 62.5085 426.119 62.3693C427.655 61.2792 429.069 60.0274 430.337 58.6354C430.707 58.2018 431.05 57.7452 431.363 57.2684L431.445 57.1418C432.438 55.3845 432.924 53.3868 432.851 51.3701C432.856 50.8598 432.822 50.35 432.75 49.8449C432.553 47.8746 431.638 46.0456 430.179 44.7059C428.596 43.2558 426.555 42.4049 424.41 42.301C424.137 42.2757 423.884 42.2694 423.624 42.2694C422.615 42.2638 421.609 42.3828 420.629 42.6238C418.792 43.0767 417.144 44.095 415.918 45.535C415.268 46.3018 414.715 47.1456 414.272 48.0475C412.776 51.4967 411.819 55.1552 411.435 58.8948L411.371 59.5594L395.3 55.2812V48.1994C395.376 47.9146 395.458 47.6298 395.547 47.3513C396.573 43.7996 398.207 40.4527 400.378 37.4596C401.306 36.1894 402.351 35.0092 403.5 33.9345C403.772 33.6623 404.07 33.3966 404.368 33.1371C406.301 31.4592 408.45 30.046 410.757 28.9348L410.96 28.8399C415.329 26.8215 420.097 25.8094 424.91 25.878C425.41 25.878 425.999 25.8844 426.582 25.916C431.365 26.0372 436.059 27.2334 440.317 29.4158C442.228 30.4048 444.02 31.611 445.655 33.0105C450.243 36.7481 453.197 42.1221 453.893 47.9968C454.02 49.0553 454.084 50.1205 454.083 51.1865Z" fill="black"/>
<path d="M428.596 102.708C428.594 104.728 427.994 106.702 426.87 108.38C425.747 110.058 424.151 111.366 422.284 112.139C420.416 112.911 418.362 113.112 416.381 112.718C414.399 112.324 412.579 111.351 411.15 109.923C409.721 108.495 408.748 106.676 408.353 104.696C407.959 102.715 408.16 100.662 408.933 98.796C409.706 96.93 411.014 95.3348 412.694 94.212C414.373 93.0891 416.348 92.4891 418.369 92.4876C419.713 92.4838 421.044 92.7456 422.287 93.2579C423.529 93.7702 424.658 94.5229 425.609 95.4727C426.559 96.4226 427.312 97.5508 427.825 98.7926C428.337 100.034 428.599 101.365 428.596 102.708Z" fill="#423ADC"/>
<path d="M447.118 51.1865C447.137 54.5267 446.449 57.8332 445.098 60.8884C444.513 62.2035 443.811 63.4637 443.002 64.654C441.324 67.0773 439.312 69.2507 437.024 71.1093C436.631 71.4383 436.201 71.7801 435.624 72.2231C434.903 72.761 434.098 73.3243 433.174 73.9318C431.541 74.987 429.97 76.1344 428.469 77.3683C427.578 78.0621 426.806 78.8956 426.183 79.8365C425.404 81.1972 425.011 83.8299 425.011 87.6651V88.298H407.939V85.3361C407.939 83.0198 407.996 81.0706 408.104 79.3745C408.181 77.8375 408.342 76.3059 408.585 74.7862C408.752 73.4496 409.155 72.1532 409.775 70.9574C410.896 69.0904 413.6 66.5526 418.033 63.1984C418.223 63.0592 418.413 62.9136 418.609 62.768C418.793 62.6415 418.97 62.5085 419.154 62.3693C420.689 61.2792 422.103 60.0274 423.371 58.6354C423.742 58.2018 424.084 57.7452 424.397 57.2684L424.479 57.1418C425.472 55.3845 425.959 53.3868 425.885 51.3701C425.89 50.8598 425.856 50.35 425.784 49.8449C425.587 47.8746 424.672 46.0456 423.213 44.7059C421.63 43.2558 419.589 42.4049 417.444 42.301C417.172 42.2757 416.919 42.2694 416.659 42.2694C415.65 42.2638 414.644 42.3828 413.664 42.6238C411.827 43.0767 410.179 44.095 408.952 45.535C408.302 46.3018 407.749 47.1456 407.306 48.0475C406.166 50.3195 405.425 53.3319 405.102 56.9962L405.039 57.6608L386.966 55.085L387.055 54.4584C387.372 52.0524 387.883 49.6757 388.581 47.3513C389.607 43.7996 391.242 40.4527 393.413 37.4596C394.34 36.1894 395.386 35.0092 396.534 33.9345C396.807 33.6623 397.104 33.3966 397.402 33.1371C399.336 31.4592 401.484 30.046 403.791 28.9348L403.994 28.8399C408.364 26.8215 413.131 25.8094 417.944 25.878C418.445 25.878 419.033 25.8844 419.616 25.916C424.399 26.0372 429.094 27.2334 433.351 29.4158C435.263 30.4048 437.054 31.611 438.689 33.0105C443.277 36.7481 446.232 42.1221 446.928 47.9968C447.055 49.0553 447.118 50.1205 447.118 51.1865Z" fill="#423ADC"/>
</g>
<defs>
<clipPath id="clip0">
<rect width="562" height="281" fill="white"/>
</clipPath>
</defs>
</svg>
