<svg width="300" height="218" viewBox="0 0 300 218" fill="none" xmlns="http://www.w3.org/2000/svg">
<g clip-path="url(#clip0)">
<path opacity="0.1" d="M280.072 103.965C280.238 102.062 280.326 100.129 280.326 98.175C280.326 67.5844 259.545 42.7841 233.913 42.7841C225.751 42.7841 218.057 45.3139 211.399 49.741C193.255 35.6867 169.568 27.1951 143.654 27.1951C101.488 27.1951 65.2176 49.7017 49.1257 81.9788C48.2336 81.917 47.333 81.8832 46.424 81.8832C20.7777 81.8832 0 106.681 0 137.271C0 148.515 2.81426 158.98 7.6379 167.716C7.6379 195.237 29.7158 217.555 56.9493 217.555H91.2833L91.4353 217.294C93.4531 214.022 98.2852 213.204 101.651 215.062C102.54 215.551 103.368 216.186 104.361 216.411C108.338 217.254 111.008 210.865 115.033 211.487C117.053 211.799 118.629 213.884 120.661 213.671C122.009 213.527 123.031 212.4 124.297 211.922C126.326 211.152 128.384 212.22 129.805 213.955C130.629 211.585 130.624 208.777 131.958 206.604C133.976 203.332 138.808 202.514 142.174 204.372C143.063 204.861 143.89 205.497 144.884 205.721C148.86 206.565 151.531 200.176 155.555 200.797C157.576 201.109 159.152 203.195 161.184 202.981C162.532 202.838 163.553 201.71 164.82 201.233C167.977 200.032 171.211 203.29 171.988 206.573C172.289 208.02 172.448 209.492 172.463 210.969C175.188 209.651 177.49 205.944 180.599 206.424C182.62 206.736 184.196 208.822 186.228 208.608C187.576 208.465 188.598 207.338 189.864 206.86C193.022 205.66 196.255 208.917 197.032 212.201C197.446 213.943 197.474 215.753 197.544 217.541H254.434C275.823 217.541 293.153 200.024 293.153 178.414C297.493 169.981 300 160.065 300 149.445C300 130.612 292.12 113.972 280.072 103.965Z" fill="#FFF021"/>
<path d="M175.328 74.769C188.85 74.769 199.812 63.8204 199.812 50.3145C199.812 36.8086 188.85 25.86 175.328 25.86C161.806 25.86 150.844 36.8086 150.844 50.3145C150.844 63.8204 161.806 74.769 175.328 74.769Z" fill="#FFF021"/>
<path d="M167.446 51.2365L175.289 43.4026L183.211 51.2365H177.827V57.2264H172.829V51.2758L167.446 51.2365Z" fill="white"/>
<path d="M207.557 112.772C207.226 111.067 206.371 109.507 205.112 108.309C203.853 107.111 202.251 106.335 200.53 106.088C198.809 105.84 197.053 106.135 195.507 106.93C193.96 107.724 192.7 108.98 191.901 110.523C190.197 110.709 188.629 111.539 187.519 112.845C186.41 114.15 185.843 115.83 185.936 117.54C186.029 119.249 186.775 120.858 188.019 122.036C189.264 123.213 190.913 123.869 192.628 123.869H207.166C208.645 123.865 210.063 123.277 211.11 122.233C212.158 121.19 212.75 119.776 212.758 118.298C212.763 116.887 212.227 115.528 211.26 114.5C210.292 113.472 208.967 112.854 207.557 112.772ZM201.127 116.066V120.299H197.561V116.055H193.748L199.34 110.47L204.929 116.055L201.127 116.066Z" fill="white"/>
<path d="M250.334 182.2C250.003 180.495 249.148 178.935 247.889 177.738C246.629 176.54 245.028 175.763 243.307 175.516C241.585 175.269 239.83 175.563 238.284 176.358C236.737 177.153 235.477 178.409 234.678 179.952C232.974 180.137 231.406 180.968 230.296 182.273C229.187 183.578 228.62 185.258 228.713 186.968C228.806 188.678 229.552 190.287 230.796 191.464C232.041 192.642 233.69 193.298 235.404 193.298H249.943C251.422 193.293 252.84 192.705 253.887 191.662C254.934 190.618 255.527 189.204 255.535 187.726C255.54 186.316 255.004 184.957 254.036 183.929C253.069 182.901 251.744 182.282 250.334 182.2ZM243.903 185.495V189.728H240.338V185.483H236.524L242.116 179.898L247.706 185.483L243.903 185.495Z" fill="white"/>
<path d="M92.7157 132.105C92.1988 129.472 90.8743 127.064 88.9259 125.216C86.9775 123.369 84.5018 122.172 81.842 121.793C79.1822 121.413 76.4701 121.87 74.0818 123.099C71.6935 124.329 69.7473 126.27 68.5131 128.653C65.8807 128.942 63.459 130.227 61.746 132.244C60.0329 134.261 59.1586 136.857 59.3027 139.498C59.4469 142.14 60.5985 144.625 62.521 146.444C64.4434 148.264 66.9906 149.278 69.6388 149.279H92.1107C94.4008 149.272 96.5949 148.36 98.2137 146.742C99.8325 145.124 100.745 142.932 100.75 140.644C100.758 138.465 99.9292 136.366 98.4349 134.777C96.9406 133.189 94.894 132.233 92.7157 132.105ZM82.7786 137.193V143.753H77.2486V137.193H71.3724L80.015 128.563L88.6491 137.193H82.7786Z" fill="white"/>
<path d="M189.4 154.592V147.762L192.552 150.91L193.34 150.095L188.837 145.597L184.334 150.095L185.122 150.882L188.274 147.762V154.592H189.4Z" fill="white"/>
<path d="M32.0825 163.868V157.037L35.2345 160.185L36.0225 159.37L31.5197 154.873L27.0168 159.37L27.8048 160.157L30.9568 157.037V163.868H32.0825Z" fill="white"/>
<path d="M189.118 90.2231V85.1045L191.482 87.4657L192.073 86.8557L188.696 83.4827L185.319 86.8557L185.91 87.446L188.274 85.1045V90.2231H189.118Z" fill="white"/>
<path d="M127.486 53.1197V48.0011L129.85 50.3623L130.441 49.7523L127.064 46.3793L123.687 49.7523L124.278 50.3426L126.642 48.0011V53.1197H127.486Z" fill="white"/>
<path d="M104.409 103.715V98.5967L106.773 100.958L107.364 100.348L103.987 96.9749L100.61 100.348L101.201 100.938L103.565 98.5967V103.715H104.409Z" fill="white"/>
<path d="M249.062 127.326V122.208L251.426 124.569L252.017 123.959L248.64 120.586L245.263 123.959L245.854 124.549L248.218 122.208V127.326H249.062Z" fill="white"/>
<path d="M99.3433 172.582V167.463L101.707 169.824L102.298 169.214L98.9212 165.841L95.5441 169.214L96.1351 169.804L98.499 167.463V172.582H99.3433Z" fill="white"/>
<path d="M222.045 84.0448C222.978 84.0448 223.734 83.2897 223.734 82.3583C223.734 81.4268 222.978 80.6718 222.045 80.6718C221.112 80.6718 220.356 81.4268 220.356 82.3583C220.356 83.2897 221.112 84.0448 222.045 84.0448Z" fill="white"/>
<path d="M63.0394 79.5475C63.9719 79.5475 64.7279 78.7924 64.7279 77.861C64.7279 76.9295 63.9719 76.1744 63.0394 76.1744C62.1068 76.1744 61.3508 76.9295 61.3508 77.861C61.3508 78.7924 62.1068 79.5475 63.0394 79.5475Z" fill="white"/>
<path d="M112.852 122.273C113.784 122.273 114.54 121.517 114.54 120.586C114.54 119.655 113.784 118.9 112.852 118.9C111.919 118.9 111.163 119.655 111.163 120.586C111.163 121.517 111.919 122.273 112.852 122.273Z" fill="white"/>
<path d="M260.319 150.1C260.785 150.1 261.163 149.723 261.163 149.257C261.163 148.791 260.785 148.414 260.319 148.414C259.853 148.414 259.475 148.791 259.475 149.257C259.475 149.723 259.853 150.1 260.319 150.1Z" fill="white"/>
<path d="M196.998 173.43C197.464 173.43 197.842 173.053 197.842 172.587C197.842 172.121 197.464 171.744 196.998 171.744C196.532 171.744 196.154 172.121 196.154 172.587C196.154 173.053 196.532 173.43 196.998 173.43Z" fill="white"/>
<path d="M88.6492 193.106C89.1155 193.106 89.4935 192.729 89.4935 192.263C89.4935 191.797 89.1155 191.42 88.6492 191.42C88.1829 191.42 87.8049 191.797 87.8049 192.263C87.8049 192.729 88.1829 193.106 88.6492 193.106Z" fill="white"/>
<path d="M27.0169 124.802C27.4832 124.802 27.8612 124.425 27.8612 123.959C27.8612 123.493 27.4832 123.116 27.0169 123.116C26.5506 123.116 26.1726 123.493 26.1726 123.959C26.1726 124.425 26.5506 124.802 27.0169 124.802Z" fill="white"/>
<path d="M35.1783 106.813C35.6445 106.813 36.0225 106.435 36.0225 105.97C36.0225 105.504 35.6445 105.126 35.1783 105.126C34.712 105.126 34.334 105.504 34.334 105.97C34.334 106.435 34.712 106.813 35.1783 106.813Z" fill="white"/>
<path d="M216.698 201.258C217.164 201.258 217.542 200.88 217.542 200.415C217.542 199.949 217.164 199.571 216.698 199.571C216.232 199.571 215.854 199.949 215.854 200.415C215.854 200.88 216.232 201.258 216.698 201.258Z" fill="white"/>
<path d="M60.5065 172.025C60.9728 172.025 61.3508 171.647 61.3508 171.182C61.3508 170.716 60.9728 170.338 60.5065 170.338C60.0402 170.338 59.6622 170.716 59.6622 171.182C59.6622 171.647 60.0402 172.025 60.5065 172.025Z" fill="white"/>
<path d="M79.925 94.7262C80.3913 94.7262 80.7692 94.3486 80.7692 93.8829C80.7692 93.4172 80.3913 93.0397 79.925 93.0397C79.4587 93.0397 79.0807 93.4172 79.0807 93.8829C79.0807 94.3486 79.4587 94.7262 79.925 94.7262Z" fill="white"/>
<path d="M108.771 63.9472H104.409V59.5903H103.846V63.9472H99.484V64.5093H103.846V68.8662H104.409V64.5093H108.771V63.9472Z" fill="white"/>
<path d="M215.009 144.448H212.367V141.808H212.023V144.448H209.381V144.79H212.023V147.43H212.367V144.79H215.009V144.448Z" fill="white"/>
<path d="M198.968 193.638H196.326V190.998H195.982V193.638H193.34V193.98H195.982V196.62H196.326V193.98H198.968V193.638Z" fill="white"/>
<path d="M67.5422 187.454H64.8996V184.814H64.5563V187.454H61.9137V187.797H64.5563V190.436H64.8996V187.797H67.5422V187.454Z" fill="white"/>
<path d="M48.9681 137.983H46.3255V135.343H45.9822V137.983H43.3396V138.325H45.9822V140.965H46.3255V138.325H48.9681V137.983Z" fill="white"/>
<path d="M127.615 188.238L127.635 186.656L126.684 186.644L126.664 188.227L125.023 192.96L129.144 193.008L127.615 188.238Z" fill="#3F3D56"/>
<path d="M131.75 188.328L131.769 186.706L130.793 186.692L130.773 188.317L129.09 193.171L133.317 193.219L131.75 188.328Z" fill="#3F3D56"/>
<path d="M135.858 188.336L135.878 186.754L134.927 186.743L134.907 188.325L133.266 193.059L137.389 193.106L135.858 188.336Z" fill="#3F3D56"/>
<path d="M165.245 188.727L165.265 187.102L164.288 187.091L164.268 188.716L162.585 193.567L166.812 193.618L165.245 188.727Z" fill="#3F3D56"/>
<path d="M169.472 188.778L169.492 187.153L168.515 187.142L168.495 188.766L166.812 193.618L171.04 193.669L169.472 188.778Z" fill="#3F3D56"/>
<path d="M173.699 188.828L173.719 187.204L172.742 187.192L172.722 188.817L171.04 193.669L175.267 193.719L173.699 188.828Z" fill="#3F3D56"/>
<path d="M146.057 188.499L146.077 186.875L145.1 186.863L145.081 188.488L143.398 193.34L147.625 193.39L146.057 188.499Z" fill="#3F3D56"/>
<path d="M150.284 188.55L150.304 186.925L149.33 186.914L149.31 188.539L147.625 193.39L151.852 193.441L150.284 188.55Z" fill="#3F3D56"/>
<path d="M154.511 188.601L154.531 186.976L153.557 186.965L153.538 188.589L151.852 193.441L156.082 193.491L154.511 188.601Z" fill="#3F3D56"/>
<path d="M143.178 74.932C143.119 69.3384 136.523 59.4217 132.962 59.3795C129.402 59.3374 122.893 69.0967 122.702 74.6875H122.533L121.19 187.069L141.841 187.313L143.184 74.9349L143.178 74.932Z" fill="#3F3D56"/>
<path d="M180.901 75.3818C180.841 69.7881 174.245 59.8714 170.685 59.8292C167.125 59.7871 160.615 69.5464 160.427 75.1372H160.258L158.916 187.518L179.567 187.763L180.909 75.3846L180.901 75.3818Z" fill="#3F3D56"/>
<path d="M162.343 22.7455C162.312 14.5462 155.769 0.0421336 152.212 -2.93442e-05C148.655 -0.0421923 142.081 14.3045 141.864 22.4869H141.698L139.728 187.271L160.376 187.518L162.346 22.7314L162.343 22.7455Z" fill="#2F2E41"/>
<path d="M143.282 111.15L151.128 103.313L159.048 111.15H153.667V117.14H148.666V111.186L143.282 111.15Z" fill="#FFF021"/>
<g opacity="0.1">
<path opacity="0.1" d="M161.783 77.2763C163.919 72.2983 168.09 67.1066 170.685 67.1375C174.062 67.1769 180.146 76.0733 180.836 81.754L180.909 75.6517C180.85 70.058 174.253 60.1413 170.693 60.0991C168.132 60.0682 164.04 65.125 161.879 70.044L161.783 77.2763Z" fill="black"/>
<path opacity="0.1" d="M122.536 81.9929H122.704C122.893 76.4021 129.405 66.6428 132.962 66.685C135.287 66.7131 138.903 70.949 141.152 75.4436L141.698 29.8064H141.864C142.083 21.6099 148.655 7.26328 152.212 7.3195C155.572 7.35885 161.6 20.3085 162.281 28.654L162.346 23.0322C162.315 14.8329 155.772 0.328877 152.215 0.286714C148.658 0.244551 142.083 14.5912 141.867 22.7877H141.701L141.155 68.4249C138.903 63.9275 135.29 59.6943 132.965 59.6662C129.408 59.6241 122.896 69.3834 122.707 74.9742H122.538L121.196 187.355H121.28L122.536 81.9929Z" fill="black"/>
</g>
<path d="M152.211 7.13558L152.209 7.13554C151.132 7.12278 150.248 7.98448 150.235 9.06022L150.181 13.6107C150.168 14.6864 151.031 15.5688 152.108 15.5816L152.111 15.5816C153.188 15.5944 154.072 14.7327 154.084 13.657L154.138 9.10649C154.151 8.03075 153.288 7.14835 152.211 7.13558Z" fill="#ECECF3"/>
</g>
<defs>
<clipPath id="clip0">
<rect width="300" height="217.55" fill="white"/>
</clipPath>
</defs>
</svg>
