<svg width="486" height="332" viewBox="0 0 486 332" fill="none" xmlns="http://www.w3.org/2000/svg">
<path d="M417.236 138.623C423.934 145.639 431.408 146.758 439.657 141.981C436.195 136.442 435.371 130.416 436.294 124.069H420.225C420.937 129.646 420.746 134.84 417.236 138.623Z" fill="#FFB8B8"/>
<path d="M443.767 322.229L452.362 317.751L456.099 270.356V245.353L436.293 244.98L441.899 269.983L443.767 322.229Z" fill="#FFB8B8"/>
<path d="M418.853 322.229L410.259 317.751L406.522 270.356V245.353L426.327 244.98L420.722 269.983L418.853 322.229Z" fill="#FFB8B8"/>
<path d="M405.651 250.578L426.578 248.712L429.941 229.679L434.051 248.339L456.846 246.846C457.344 237.778 456.079 228.446 453.109 218.857L403.036 217.738L405.651 250.578Z" fill="#1F1B26"/>
<path d="M383.901 179.101L358.729 159.743C358.468 159.542 358.18 159.378 357.875 159.254L354.216 157.767C351.278 156.573 345.68 152.602 348.41 148.512C350.611 145.215 359.036 151.122 360.072 153.31C360.4 153.998 360.937 154.566 361.607 154.931L366.722 157.73C366.847 157.799 366.975 157.859 367.106 157.913L386.582 165.796C387.122 166.014 387.706 166.101 388.287 166.049C388.867 165.997 389.426 165.807 389.918 165.495L393.449 163.259C393.951 162.941 394.524 162.75 395.117 162.703C395.71 162.655 396.306 162.753 396.852 162.987C397.399 163.221 397.88 163.585 398.255 164.046C398.629 164.508 398.885 165.054 399.001 165.637L400.168 171.519C400.336 172.365 400.198 173.244 399.78 174C399.361 174.755 398.688 175.338 397.881 175.646L387.439 179.62C386.854 179.843 386.221 179.912 385.602 179.821C384.983 179.73 384.397 179.482 383.901 179.101Z" fill="#FFB8B8"/>
<path d="M388.577 164.997C395.546 163.131 394.814 172.854 400.131 177.635L410.586 169.393L404.53 140.115C402.906 140.579 401.411 141.414 400.165 142.553C398.919 143.693 397.955 145.106 397.35 146.681L388.577 164.997Z" fill="#FFF021"/>
<path d="M401.541 219.604H454.231C445.703 196.655 446.533 173.053 453.794 149.001C453.916 148.601 453.895 148.172 453.734 147.787C453.572 147.402 453.282 147.085 452.912 146.891L437.788 138.996C431.852 142.854 425.472 141.668 418.731 136.384L402.288 140.862C406.764 167.708 406.892 194.003 401.541 219.604Z" fill="#FFF021"/>
<path d="M414.716 330.994L392.758 331.923C391.802 331.964 390.865 331.65 390.127 331.041C389.388 330.433 388.902 329.574 388.76 328.628C388.617 327.674 388.836 326.7 389.375 325.899C389.913 325.097 390.732 324.526 391.671 324.296L395.395 323.384L410.033 314.911C412.202 317.154 415.188 319.05 418.839 320.665L418.882 326.622C418.89 327.748 418.46 328.833 417.683 329.648C416.906 330.464 415.842 330.946 414.716 330.994Z" fill="#1F1B26"/>
<path d="M447.723 330.661L469.68 331.59C470.637 331.631 471.574 331.317 472.312 330.708C473.05 330.1 473.537 329.241 473.678 328.295C473.821 327.341 473.602 326.367 473.064 325.566C472.525 324.764 471.706 324.193 470.768 323.963L467.043 323.051L452.405 314.578C450.236 316.821 447.25 318.717 443.599 320.332L443.557 326.289C443.549 327.415 443.978 328.5 444.756 329.315C445.533 330.131 446.596 330.613 447.723 330.661Z" fill="#1F1B26"/>
<path d="M426.578 130.786C433.182 130.786 438.536 125.439 438.536 118.844C438.536 112.249 433.182 106.902 426.578 106.902C419.974 106.902 414.62 112.249 414.62 118.844C414.62 125.439 419.974 130.786 426.578 130.786Z" fill="#FFB8B8"/>
<path d="M445.262 215.872L441.311 223.543C440.963 224.22 440.762 224.963 440.721 225.723C440.68 226.483 440.801 227.243 441.076 227.953C441.351 228.664 441.773 229.308 442.314 229.843C442.856 230.379 443.505 230.794 444.219 231.061C444.974 231.344 445.783 231.455 446.587 231.384C447.391 231.314 448.168 231.065 448.863 230.655C449.558 230.245 450.151 229.685 450.601 229.016C451.05 228.347 451.344 227.586 451.461 226.789L453.109 215.498L459.088 187.137L458.715 172.956H446.757C450.835 183.503 448.812 199.061 445.262 215.872Z" fill="#FFB8B8"/>
<path d="M444.888 174.448H460.957L458.624 156.85C458.308 154.463 457.398 152.193 455.978 150.248C454.558 148.303 452.672 146.744 450.494 145.713L444.888 174.448Z" fill="#FFF021"/>
<path d="M439.291 112.266C439.53 110.671 439.429 109.043 438.996 107.489C438.563 105.935 437.807 104.49 436.777 103.247C434.737 100.836 431.317 98.8631 425.644 99.794C413.265 101.825 409.696 112.116 410.908 114.705C412.121 117.293 415.838 123.292 415.838 123.292C415.838 123.292 413.11 117.353 416.071 116.144C419.032 114.935 430.491 110.173 434.491 112.319C435.623 112.886 436.584 113.744 437.277 114.803C437.969 115.862 438.368 117.086 438.433 118.35L439.291 112.266Z" fill="#1F1B26"/>
<path d="M234.622 62.5663L229.814 65.0025C224.276 54.113 216.94 44.2337 208.113 35.78C164.765 -5.83705 95.596 -4.47642 53.923 38.8131C12.25 82.1026 13.6124 151.179 56.9601 192.796C65.2104 200.733 74.6622 207.321 84.9672 212.318L82.6154 217.162C66.2813 209.242 52.0689 197.553 41.1524 183.063C30.2359 168.573 22.9287 151.696 19.8345 133.828C16.7402 115.96 17.9479 97.613 23.3575 80.3031C28.7672 62.9932 38.2236 47.2172 50.9455 34.2786C63.6674 21.34 79.2896 11.6101 96.5213 5.89304C113.753 0.175936 132.1 -1.36436 150.045 1.39942C167.991 4.1632 185.02 11.1517 199.727 21.7876C214.433 32.4234 226.394 46.4013 234.622 62.5663Z" fill="white"/>
<path d="M71.9654 162.731C64.8937 170.077 61.0337 179.928 61.2346 190.116C61.4356 200.304 65.681 209.995 73.0369 217.058C80.3929 224.12 90.2568 227.975 100.459 227.774C110.661 227.573 120.365 223.334 127.437 215.987L134.06 209.107L78.589 155.85L71.9654 162.731Z" fill="white"/>
<path d="M74.8723 151.943C73.2982 153.582 72.4393 155.777 72.4841 158.048C72.5289 160.318 73.4736 162.478 75.1111 164.054L125.989 212.9C127.629 214.475 129.828 215.334 132.102 215.289C134.377 215.245 136.54 214.3 138.116 212.662C139.693 211.024 140.553 208.828 140.509 206.557C140.464 204.286 139.517 202.125 137.878 200.551L86.9996 151.704C85.3585 150.132 83.16 149.274 80.8865 149.319C78.613 149.364 76.4501 150.307 74.8723 151.943Z" fill="#322BC2"/>
<path d="M227.469 112.075L234.093 105.194C241.164 97.848 245.024 87.9973 244.824 77.8091C244.623 67.6209 240.377 57.9297 233.021 50.8674C229.379 47.3706 225.083 44.6244 220.378 42.7857C215.673 40.9469 210.651 40.0517 205.6 40.1511C195.398 40.3517 185.693 44.5915 178.622 51.9375L171.998 58.818L227.469 112.075Z" fill="white"/>
<path d="M167.942 55.2631C166.368 56.902 165.509 59.0975 165.554 61.368C165.598 63.6384 166.543 65.7985 168.181 67.3742L219.059 116.221C220.699 117.793 222.897 118.651 225.17 118.606C227.444 118.56 229.606 117.615 231.182 115.978C232.757 114.341 233.618 112.146 233.574 109.876C233.53 107.606 232.585 105.446 230.947 103.871L180.069 55.0246C178.428 53.4526 176.229 52.5949 173.956 52.6396C171.682 52.6843 169.52 53.6278 167.942 55.2631Z" fill="#322BC2"/>
<path d="M189.404 168.147V164.178C189.404 164.178 206.746 154.437 220.835 164.178V167.786L189.404 168.147Z" fill="#322BC2"/>
<path d="M347.284 168.147V164.178C347.284 164.178 364.625 154.437 378.715 164.178V167.786L347.284 168.147Z" fill="#322BC2"/>
<path d="M241.428 167.786H224.448C224.448 167.786 220.113 162.735 205.662 163.096C191.21 163.457 188.32 167.786 188.32 167.786C188.32 167.786 174.05 177.347 170.798 189.253C170.798 189.253 153.276 241.749 152.915 282.88C152.553 324.011 168.45 329.783 176.759 330.866C185.069 331.948 199.881 330.505 214.332 294.065L220.474 272.778C220.474 272.778 221.558 260.15 234.564 268.087C247.57 276.025 259.131 263.758 259.131 263.758H307.904C307.904 263.758 324.162 273.86 338.974 265.923C338.974 265.923 344.755 258.346 350.174 283.962C350.174 283.962 366.793 336.639 392.444 331.227C418.095 325.815 415.204 281.798 415.204 281.798C415.204 281.798 411.772 214.509 397.682 190.697C397.682 190.697 384.134 165.982 375.102 164.9C375.102 164.9 355.593 161.292 348.006 164.539L343.671 168.147L241.428 167.786Z" fill="white"/>
<path d="M202.049 234.533C219.408 234.533 233.48 220.48 233.48 203.144C233.48 185.808 219.408 171.755 202.049 171.755C184.69 171.755 170.617 185.808 170.617 203.144C170.617 220.48 184.69 234.533 202.049 234.533Z" fill="#322BC2"/>
<path d="M366.07 234.533C383.429 234.533 397.502 220.48 397.502 203.144C397.502 185.808 383.429 171.755 366.07 171.755C348.711 171.755 334.639 185.808 334.639 203.144C334.639 220.48 348.711 234.533 366.07 234.533Z" fill="#322BC2"/>
<path d="M207.526 196.145L203.335 199.846C202.98 200.158 202.524 200.331 202.051 200.331C201.578 200.331 201.121 200.158 200.766 199.846L196.568 196.145C196.363 195.964 196.198 195.742 196.085 195.493C195.972 195.245 195.912 194.975 195.911 194.702V184.516C195.912 184.002 196.117 183.509 196.481 183.146C196.846 182.783 197.34 182.579 197.854 182.579H206.254C206.769 182.578 207.263 182.781 207.627 183.144C207.992 183.506 208.197 183.999 208.198 184.513V194.694C208.196 194.97 208.135 195.242 208.019 195.492C207.903 195.742 207.735 195.965 207.526 196.145Z" fill="white"/>
<path d="M207.526 210.14L203.335 206.442C202.98 206.13 202.524 205.958 202.051 205.958C201.578 205.958 201.121 206.13 200.766 206.442L196.568 210.144C196.363 210.324 196.198 210.546 196.085 210.795C195.972 211.044 195.912 211.313 195.911 211.587V221.761C195.91 222.275 196.113 222.768 196.476 223.132C196.84 223.496 197.333 223.701 197.847 223.702H206.254C206.769 223.703 207.263 223.5 207.627 223.137C207.992 222.775 208.197 222.282 208.198 221.768V211.59C208.196 211.315 208.135 211.043 208.019 210.793C207.903 210.543 207.735 210.32 207.526 210.14Z" fill="white"/>
<path d="M195.044 208.621L198.751 204.429C199.063 204.074 199.235 203.618 199.235 203.146C199.235 202.674 199.063 202.218 198.751 201.863L195.044 197.671C194.863 197.466 194.64 197.302 194.391 197.188C194.142 197.075 193.872 197.016 193.599 197.014H183.411C182.896 197.015 182.402 197.22 182.038 197.584C181.675 197.948 181.47 198.441 181.47 198.955V207.344C181.47 207.858 181.673 208.351 182.036 208.715C182.399 209.079 182.892 209.284 183.407 209.285H193.602C193.876 209.282 194.146 209.221 194.394 209.107C194.643 208.992 194.864 208.827 195.044 208.621Z" fill="white"/>
<path d="M209.058 208.621L205.358 204.425C205.045 204.071 204.872 203.615 204.872 203.142C204.872 202.67 205.045 202.214 205.358 201.86L209.065 197.667C209.246 197.462 209.468 197.298 209.717 197.185C209.966 197.071 210.237 197.012 210.51 197.011H220.698C221.213 197.01 221.707 197.213 222.071 197.576C222.436 197.938 222.641 198.431 222.642 198.944V207.34C222.643 207.854 222.439 208.347 222.076 208.711C221.713 209.075 221.22 209.28 220.705 209.281H210.514C210.238 209.281 209.966 209.222 209.715 209.108C209.463 208.994 209.24 208.828 209.058 208.621Z" fill="white"/>
<path d="M244.68 260.15C257.25 260.15 267.441 249.973 267.441 237.42C267.441 224.866 257.25 214.69 244.68 214.69C232.11 214.69 221.919 224.866 221.919 237.42C221.919 249.973 232.11 260.15 244.68 260.15Z" fill="#322BC2"/>
<path d="M323.439 260.15C336.01 260.15 346.2 249.973 346.2 237.42C346.2 224.866 336.01 214.69 323.439 214.69C310.869 214.69 300.679 224.866 300.679 237.42C300.679 249.973 310.869 260.15 323.439 260.15Z" fill="#322BC2"/>
<path d="M244.68 252.573C253.06 252.573 259.854 245.789 259.854 237.42C259.854 229.051 253.06 222.266 244.68 222.266C236.3 222.266 229.506 229.051 229.506 237.42C229.506 245.789 236.3 252.573 244.68 252.573Z" fill="white"/>
<path d="M244.68 247.883C242.608 247.883 240.582 247.269 238.859 246.119C237.136 244.97 235.793 243.336 235 241.424C234.207 239.512 234 237.408 234.404 235.378C234.808 233.349 235.806 231.484 237.272 230.021C238.737 228.558 240.604 227.561 242.636 227.158C244.668 226.754 246.775 226.961 248.689 227.753C250.604 228.545 252.24 229.886 253.391 231.607C254.543 233.327 255.157 235.35 255.157 237.42C255.154 240.194 254.049 242.853 252.085 244.815C250.121 246.776 247.458 247.88 244.68 247.883ZM244.68 227.678C242.751 227.678 240.865 228.249 239.261 229.32C237.657 230.39 236.406 231.912 235.668 233.692C234.93 235.472 234.737 237.43 235.113 239.32C235.489 241.21 236.418 242.946 237.783 244.308C239.147 245.67 240.885 246.598 242.777 246.974C244.669 247.35 246.631 247.157 248.413 246.42C250.195 245.682 251.719 244.434 252.791 242.832C253.863 241.23 254.435 239.346 254.435 237.42C254.432 234.837 253.403 232.361 251.574 230.535C249.746 228.708 247.266 227.681 244.68 227.678Z" fill="#322BC2"/>
<path d="M323.439 252.573C331.819 252.573 338.613 245.789 338.613 237.42C338.613 229.051 331.819 222.266 323.439 222.266C315.059 222.266 308.265 229.051 308.265 237.42C308.265 245.789 315.059 252.573 323.439 252.573Z" fill="white"/>
<path d="M323.439 247.883C321.367 247.883 319.342 247.269 317.619 246.119C315.896 244.97 314.553 243.336 313.76 241.424C312.967 239.512 312.759 237.408 313.163 235.378C313.568 233.349 314.566 231.484 316.031 230.021C317.496 228.558 319.363 227.561 321.395 227.158C323.428 226.754 325.534 226.961 327.449 227.753C329.363 228.545 331 229.886 332.151 231.607C333.302 233.327 333.917 235.35 333.917 237.42C333.913 240.194 332.808 242.853 330.844 244.815C328.88 246.776 326.217 247.88 323.439 247.883ZM323.439 227.678C321.51 227.678 319.624 228.249 318.02 229.32C316.416 230.39 315.166 231.912 314.427 233.692C313.689 235.472 313.496 237.43 313.872 239.32C314.249 241.21 315.178 242.946 316.542 244.308C317.906 245.67 319.644 246.598 321.536 246.974C323.429 247.35 325.39 247.157 327.172 246.42C328.955 245.682 330.478 244.434 331.55 242.832C332.622 241.23 333.194 239.346 333.194 237.42C333.191 234.837 332.162 232.361 330.334 230.535C328.505 228.708 326.026 227.681 323.439 227.678Z" fill="#322BC2"/>
<path d="M284.782 246.44C288.374 246.44 291.285 243.532 291.285 239.945C291.285 236.359 288.374 233.451 284.782 233.451C281.191 233.451 278.279 236.359 278.279 239.945C278.279 243.532 281.191 246.44 284.782 246.44Z" fill="#322BC2"/>
<path d="M274.843 219.687C275.627 219.687 276.263 219.052 276.263 218.269C276.263 217.486 275.627 216.851 274.843 216.851C274.059 216.851 273.423 217.486 273.423 218.269C273.423 219.052 274.059 219.687 274.843 219.687Z" fill="#322BC2"/>
<path d="M280.161 219.687C280.946 219.687 281.581 219.052 281.581 218.269C281.581 217.486 280.946 216.851 280.161 216.851C279.377 216.851 278.742 217.486 278.742 218.269C278.742 219.052 279.377 219.687 280.161 219.687Z" fill="#322BC2"/>
<path d="M279.453 226.415C280.237 226.415 280.873 225.781 280.873 224.998C280.873 224.214 280.237 223.58 279.453 223.58C278.669 223.58 278.033 224.214 278.033 224.998C278.033 225.781 278.669 226.415 279.453 226.415Z" fill="#322BC2"/>
<path d="M284.421 226.596C285.219 226.596 285.866 225.95 285.866 225.153C285.866 224.356 285.219 223.709 284.421 223.709C283.623 223.709 282.976 224.356 282.976 225.153C282.976 225.95 283.623 226.596 284.421 226.596Z" fill="#322BC2"/>
<path d="M289.381 226.415C290.165 226.415 290.801 225.781 290.801 224.998C290.801 224.214 290.165 223.58 289.381 223.58C288.597 223.58 287.961 224.214 287.961 224.998C287.961 225.781 288.597 226.415 289.381 226.415Z" fill="#322BC2"/>
<path d="M277.325 223.23C278.109 223.23 278.745 222.595 278.745 221.812C278.745 221.029 278.109 220.394 277.325 220.394C276.541 220.394 275.906 221.029 275.906 221.812C275.906 222.595 276.541 223.23 277.325 223.23Z" fill="#322BC2"/>
<path d="M281.892 223.349C282.69 223.349 283.337 222.703 283.337 221.905C283.337 221.108 282.69 220.462 281.892 220.462C281.094 220.462 280.447 221.108 280.447 221.905C280.447 222.703 281.094 223.349 281.892 223.349Z" fill="#322BC2"/>
<path d="M286.589 223.349C287.387 223.349 288.034 222.703 288.034 221.905C288.034 221.108 287.387 220.462 286.589 220.462C285.791 220.462 285.144 221.108 285.144 221.905C285.144 222.703 285.791 223.349 286.589 223.349Z" fill="#322BC2"/>
<path d="M291.509 223.23C292.293 223.23 292.929 222.595 292.929 221.812C292.929 221.029 292.293 220.394 291.509 220.394C290.725 220.394 290.089 221.029 290.089 221.812C290.089 222.595 290.725 223.23 291.509 223.23Z" fill="#322BC2"/>
<path d="M284.421 219.741C285.219 219.741 285.866 219.095 285.866 218.298C285.866 217.501 285.219 216.854 284.421 216.854C283.623 216.854 282.976 217.501 282.976 218.298C282.976 219.095 283.623 219.741 284.421 219.741Z" fill="#322BC2"/>
<path d="M289.479 219.741C290.277 219.741 290.924 219.095 290.924 218.298C290.924 217.501 290.277 216.854 289.479 216.854C288.681 216.854 288.034 217.501 288.034 218.298C288.034 219.095 288.681 219.741 289.479 219.741Z" fill="#322BC2"/>
<path d="M293.637 219.687C294.421 219.687 295.057 219.052 295.057 218.269C295.057 217.486 294.421 216.851 293.637 216.851C292.853 216.851 292.217 217.486 292.217 218.269C292.217 219.052 292.853 219.687 293.637 219.687Z" fill="#322BC2"/>
<path d="M230.771 170.861C230.102 170.862 229.462 171.127 228.989 171.599C228.517 172.071 228.251 172.711 228.25 173.378V180.955C228.251 181.623 228.517 182.262 228.989 182.734C229.462 183.206 230.102 183.472 230.771 183.472H232.577C233.245 183.472 233.886 183.206 234.359 182.734C234.831 182.262 235.097 181.623 235.098 180.955V173.378C235.097 172.711 234.831 172.071 234.359 171.599C233.886 171.127 233.245 170.862 232.577 170.861H230.771Z" fill="#322BC2"/>
<path d="M336.265 170.861C335.596 170.862 334.955 171.127 334.483 171.599C334.01 172.071 333.745 172.711 333.744 173.378V180.955C333.745 181.623 334.01 182.263 334.483 182.734C334.955 183.206 335.596 183.472 336.265 183.472H338.071C338.739 183.472 339.38 183.206 339.853 182.734C340.325 182.263 340.591 181.623 340.592 180.955V173.378C340.591 172.711 340.325 172.071 339.853 171.599C339.38 171.127 338.739 170.862 338.071 170.861H336.265Z" fill="#322BC2"/>
<path d="M366.432 192.681C371.22 192.681 375.102 188.804 375.102 184.022C375.102 179.24 371.22 175.363 366.432 175.363C361.643 175.363 357.761 179.24 357.761 184.022C357.761 188.804 361.643 192.681 366.432 192.681Z" fill="white"/>
<path d="M348.006 211.082C352.795 211.082 356.677 207.205 356.677 202.423C356.677 197.64 352.795 193.763 348.006 193.763C343.218 193.763 339.336 197.64 339.336 202.423C339.336 207.205 343.218 211.082 348.006 211.082Z" fill="white"/>
<path d="M385.579 209.999C390.368 209.999 394.25 206.122 394.25 201.34C394.25 196.558 390.368 192.681 385.579 192.681C380.791 192.681 376.909 196.558 376.909 201.34C376.909 206.122 380.791 209.999 385.579 209.999Z" fill="white"/>
<path d="M367.877 229.121C372.666 229.121 376.548 225.245 376.548 220.462C376.548 215.68 372.666 211.803 367.877 211.803C363.088 211.803 359.206 215.68 359.206 220.462C359.206 225.245 363.088 229.121 367.877 229.121Z" fill="white"/>
<path d="M247.119 165.81C245.181 165.812 243.324 166.582 241.954 167.95C240.584 169.318 239.813 171.173 239.811 173.108V205.399C239.813 207.334 240.584 209.189 241.954 210.557C243.324 211.925 245.181 212.695 247.119 212.697H321.362C323.299 212.695 325.157 211.925 326.527 210.557C327.896 209.189 328.667 207.334 328.669 205.399V173.108C328.667 171.173 327.896 169.318 326.527 167.95C325.157 166.582 323.299 165.812 321.362 165.81H247.119Z" fill="#322BC2"/>
<path d="M372.322 187.991H360.564L366.24 178.273L372.322 187.991ZM361.822 187.269H371.018L366.262 179.669L361.822 187.269Z" fill="#322BC2"/>
<path d="M352.884 206.752H343.129V198.093H352.884V206.752ZM343.852 206.03H352.161V198.814H343.852V206.03Z" fill="#322BC2"/>
<path d="M385.579 206.752C384.508 206.752 383.46 206.435 382.569 205.84C381.678 205.245 380.983 204.4 380.573 203.411C380.163 202.422 380.055 201.334 380.264 200.284C380.474 199.235 380.99 198.27 381.748 197.513C382.505 196.756 383.471 196.241 384.522 196.032C385.573 195.823 386.663 195.931 387.653 196.34C388.643 196.75 389.49 197.443 390.085 198.333C390.681 199.223 390.999 200.27 390.999 201.34C390.997 202.775 390.426 204.151 389.41 205.165C388.394 206.18 387.016 206.75 385.579 206.752ZM385.579 196.65C384.651 196.65 383.743 196.925 382.97 197.44C382.198 197.956 381.596 198.688 381.24 199.545C380.885 200.402 380.792 201.345 380.973 202.255C381.154 203.165 381.602 204.001 382.258 204.657C382.915 205.313 383.752 205.759 384.663 205.94C385.574 206.121 386.519 206.028 387.377 205.673C388.235 205.318 388.968 204.717 389.485 203.946C390.001 203.175 390.276 202.268 390.276 201.34C390.275 200.097 389.779 198.904 388.899 198.025C388.018 197.146 386.825 196.651 385.579 196.65Z" fill="#322BC2"/>
<path d="M363.978 216.148L363.467 216.658L371.595 224.776L372.106 224.266L363.978 216.148Z" fill="#322BC2"/>
<path d="M371.781 216.142L363.473 224.081L363.972 224.602L372.281 216.663L371.781 216.142Z" fill="#322BC2"/>
<path d="M76.7959 83.3652C57.07 88.7962 35.4693 92.8845 27.7294 86.5419C31.967 79.4966 34.4112 72.5525 34.6185 65.7346C34.6653 62.6151 35.9304 59.6371 38.1443 57.4359C39.6099 56.0218 41.379 54.96 43.3171 54.3311C45.2553 53.7021 47.3114 53.5226 49.3294 53.8061L54.4488 54.5236C54.6211 54.5477 54.7926 54.5751 54.9631 54.6058C57.4203 55.0707 59.67 56.2924 61.3965 58.0994C63.123 59.9064 64.2394 62.2079 64.5892 64.6809C65.6678 72.074 69.2948 78.4742 76.7959 83.3652Z" fill="#1F1B26"/>
<path d="M95.824 153.504L103.493 155.083C104.078 155.204 104.63 155.453 105.107 155.813C105.584 156.173 105.975 156.635 106.252 157.165C106.528 157.694 106.683 158.279 106.704 158.876C106.726 159.473 106.615 160.067 106.378 160.615C106.149 161.145 105.809 161.62 105.38 162.007C104.952 162.394 104.444 162.684 103.893 162.858C103.342 163.032 102.76 163.086 102.187 163.015C101.613 162.945 101.061 162.752 100.569 162.449L88.8387 155.244L68.9142 108.468L79.2341 105.487L95.824 153.504Z" fill="#A0616A"/>
<path d="M41.195 214.883L35.3884 216.569L30.9932 207.504L35.4627 205.178L41.195 214.883Z" fill="#A0616A"/>
<path d="M38.2446 253.722L31.1202 251.839L32.2355 239.615L38.3667 239.992L38.2446 253.722Z" fill="#A0616A"/>
<path d="M38.9875 206.409L31.4419 211.368L2.42047 178.585C1.79096 177.874 1.32611 177.033 1.05897 176.123C0.791835 175.212 0.728989 174.253 0.874892 173.315C1.0208 172.377 1.37187 171.483 1.90313 170.696C2.4344 169.909 3.13281 169.249 3.94867 168.762L40.1021 147.188L45.6395 163.074L26.8143 180.716L38.9875 206.409Z" fill="#1F1B26"/>
<path d="M45.3422 223.569C45.3233 223.594 45.3043 223.618 45.2853 223.643C44.803 226.463 43.956 229.035 42.0645 230.897C41.5038 232.16 40.4968 233.173 39.236 233.741C37.9751 234.31 36.5487 234.395 35.2291 233.98C33.9845 233.589 32.9148 232.778 32.2029 231.686C31.4909 230.594 31.181 229.289 31.326 227.994L32.736 215.408C36.1184 214.631 38.698 212.71 40.0037 208.973L43.2909 211.209C44.2636 211.866 45.0923 212.713 45.7262 213.7C46.3602 214.687 46.7861 215.792 46.9781 216.949C47.17 218.105 47.124 219.289 46.8427 220.427C46.5615 221.566 46.0509 222.635 45.3422 223.569Z" fill="#1F1B26"/>
<path d="M48.9193 80.6698C55.3335 80.6698 60.5332 75.4771 60.5332 69.0715C60.5332 62.6659 55.3335 57.4731 48.9193 57.4731C42.5051 57.4731 37.3054 62.6659 37.3054 69.0715C37.3054 75.4771 42.5051 80.6698 48.9193 80.6698Z" fill="#A0616A"/>
<path d="M58.977 87.6126L40.6677 102.756L39.2417 96.5226L42.4375 91.6576C43.3244 86.8845 42.7518 81.6211 41.2278 76.038L53.1733 76.0489C53.689 80.5607 55.4479 84.4966 58.977 87.6126Z" fill="#A0616A"/>
<path d="M64.1318 127.335L39.4141 134.854L37.4911 126.075C32.8589 119.864 30.8453 114.194 33.8758 109.569L32.3508 102.607C36.7255 99.1668 40.1656 95.6474 42.0547 91.9957L57.2625 86.0613L68.4424 86.7482L71.7437 97.7967L64.1318 127.335Z" fill="#FFF021"/>
<path d="M81.6919 106.723C76.423 106.667 71.2666 108.245 66.9334 111.239L68.4423 86.7482C69.9739 86.9524 71.4259 87.5514 72.6553 88.4861C73.8848 89.4208 74.8494 90.6591 75.4542 92.079L81.6919 106.723Z" fill="#FFF021"/>
<path d="M38.9102 242.918L31.0649 240.99L32.2196 174.417L42.7544 162.897L40.3962 148.291L38.8703 131.929L64.6033 125.556C73.3011 141.328 78.5583 155.668 70.8844 164.625L38.9102 242.918Z" fill="#1F1B26"/>
<path d="M37.1084 265.395C37.0732 265.409 37.038 265.422 37.0027 265.436C34.7246 268.078 32.2217 270.231 29.0748 270.989C27.6945 271.956 26.0059 272.381 24.3315 272.183C22.6572 271.986 21.1144 271.179 19.9976 269.918C18.9445 268.728 18.3379 267.21 18.2817 265.623C18.2255 264.036 18.7231 262.479 19.6895 261.218L29.0821 248.961C33.1023 250.273 37.0045 249.887 40.7197 246.804L42.7448 251.202C43.3474 252.498 43.6793 253.903 43.7202 255.331C43.7611 256.759 43.5102 258.181 42.9828 259.509C42.4553 260.837 41.6624 262.044 40.6524 263.056C39.6424 264.068 38.4365 264.864 37.1084 265.395Z" fill="#1F1B26"/>
<path d="M8.4492 161.512L1.56307 167.4C0.991639 167.888 0.552963 168.513 0.287719 169.216C0.0224747 169.919 -0.0607578 170.677 0.0457355 171.421C0.152229 172.165 0.445004 172.87 0.896918 173.47C1.34883 174.071 1.94526 174.548 2.63092 174.857C3.66311 175.322 4.83369 175.379 5.90603 175.015C6.97837 174.651 7.87247 173.895 8.40758 172.898L13.3872 163.623L36.2237 122.005L27.6348 120.393L8.4492 161.512Z" fill="#A0616A"/>
<path d="M37.5997 123.174C33.1393 121.829 28.9612 121.038 25.7208 122.083C26.4 113.689 27.8 106.19 32.3508 102.606L38.8202 103.365L37.5997 123.174Z" fill="#FFF021"/>
<path d="M61.8845 66.3821L37.0445 64.8558L37.3502 59.8944C46.0213 54.0555 54.3013 54.5643 62.1902 61.4208L61.8845 66.3821Z" fill="#1F1B26"/>
</svg>
