<svg width="300" height="165" viewBox="0 0 300 165" fill="none" xmlns="http://www.w3.org/2000/svg">
<g clip-path="url(#clip0)">
<path d="M103.118 102.81C103.426 102.19 103.939 101.701 104.366 101.153C104.304 101.205 104.239 101.253 104.173 101.297C103.857 101.431 103.565 101.615 103.308 101.842C103.151 102.06 103.044 102.311 102.997 102.577L102.262 105.432C102.406 105.25 102.551 105.071 102.697 104.893C102.688 104.176 102.832 103.466 103.118 102.81Z" fill="white"/>
<path d="M172.472 104.737C172.423 105.06 172.326 105.374 172.183 105.668C172.189 106.879 172.025 108.086 171.697 109.252C171.561 109.742 171.46 110.242 171.394 110.747C170.714 115.397 170.057 120.254 171.218 124.76C171.303 124.487 171.454 124.239 171.659 124.04C172.425 123.098 172.728 121.87 172.956 120.678C174.151 114.394 173.82 107.984 173.532 101.565C173.354 101.37 173.141 101.21 172.904 101.093C172.917 101.372 172.91 101.653 172.884 101.931C172.794 102.873 172.656 103.809 172.472 104.737Z" fill="#6627D9"/>
<path d="M132.075 102.819C132.07 102.443 131.994 102.071 131.85 101.724C131.701 101.441 131.512 101.182 131.291 100.952L130.669 100.243C130.352 107.768 129.678 115.313 131.078 122.683C131.305 123.875 131.608 125.103 132.374 126.045C132.579 126.244 132.731 126.492 132.815 126.765C133.967 122.271 133.319 117.402 132.639 112.752C132.573 112.247 132.472 111.748 132.337 111.257C131.825 109.372 131.705 107.402 131.985 105.469C132.102 104.591 132.132 103.703 132.075 102.819Z" fill="white"/>
<path d="M135.641 86.9359C136.474 88.3072 136.992 89.932 137.459 91.4849L137.658 92.1562C137.563 89.8802 137.517 87.6014 137.499 85.3225C137.05 85.722 136.598 86.1167 136.142 86.5066L135.641 86.9359Z" fill="white"/>
<path d="M142.34 163.734C142.466 162.138 142.342 160.532 141.974 158.974C141.72 157.986 141.328 157.021 141.294 156.004C141.301 155.325 141.384 154.648 141.541 153.987C142.726 147.963 143.235 141.631 141.444 135.759C140.962 134.186 140.326 132.665 139.836 131.098C139.613 131.686 139.341 132.255 139.024 132.798C138.956 132.545 138.833 132.31 138.663 132.111C138.493 131.911 138.28 131.752 138.041 131.645C138.055 131.925 138.048 132.205 138.021 132.484C137.935 133.425 137.802 134.362 137.621 135.29C137.573 135.66 137.452 136.018 137.266 136.341C137.028 136.672 136.709 136.936 136.338 137.108C136.506 137.488 136.673 137.865 136.837 138.26L135.636 138.6C136.425 140.329 135.768 142.302 135.347 144.137C133.841 150.53 135.198 157.358 134.483 163.823L142.34 163.734Z" fill="#6627D9"/>
<path d="M137.978 72.2718C138.286 71.6524 138.799 71.1626 139.225 70.6152C139.163 70.6665 139.099 70.7145 139.032 70.7593C138.717 70.8932 138.425 71.077 138.168 71.3038C138.01 71.5223 137.904 71.7733 137.857 72.0384L137.122 74.8935C137.266 74.712 137.41 74.5333 137.557 74.3547C137.548 73.6384 137.691 72.9284 137.978 72.2718Z" fill="white"/>
<path d="M166.934 72.2804C166.93 71.9045 166.854 71.5329 166.709 71.1856C166.56 70.9034 166.372 70.6434 166.151 70.4136L165.528 69.7048C165.217 77.1175 164.56 84.5475 165.88 91.8104C166.113 91.0239 166.349 90.2403 166.583 89.4567C166.938 88.163 167.402 86.9015 167.968 85.6855C167.833 84.5331 167.666 83.3606 167.499 82.2139C167.433 81.7091 167.332 81.2095 167.196 80.7187C166.685 78.8338 166.565 76.8639 166.845 74.9309C166.961 74.0524 166.991 73.1647 166.934 72.2804Z" fill="#6627D9"/>
<path d="M154.371 128.911L153.385 163.613L155.978 163.584C155.522 159.361 155.314 155.115 155.356 150.867C155.356 149.631 155.399 148.381 155.143 147.174C154.961 146.33 154.644 145.52 154.471 144.673C154.302 143.66 154.237 142.632 154.278 141.605L154.371 128.911Z" fill="white"/>
<path d="M132.089 128.932C132.129 128.834 132.17 128.741 132.207 128.644C132.342 128.292 132.463 127.938 132.576 127.58L132.553 127.621C132.325 127.995 132.077 128.355 131.821 128.71C131.913 128.779 132.003 128.854 132.089 128.932Z" fill="white"/>
<path d="M53.7125 90.1423C53.7082 89.7664 53.6319 89.3948 53.4878 89.0476C53.3386 88.7653 53.1504 88.5054 52.9289 88.2755L52.3066 87.5668C51.9897 95.0918 51.3155 102.637 52.7157 110.007C52.9433 111.199 53.2458 112.427 54.0121 113.369C54.2171 113.568 54.3687 113.816 54.4529 114.089C55.6053 109.595 54.9571 104.726 54.2771 100.076C54.2158 99.5714 54.1195 99.0718 53.9891 98.5807C53.4726 96.6967 53.3481 94.7268 53.6232 92.7928C53.7396 91.9144 53.7695 91.0266 53.7125 90.1423Z" fill="#6627D9"/>
<path d="M53.7269 116.255C53.7672 116.157 53.8076 116.065 53.845 115.967C53.9804 115.616 54.1014 115.261 54.2138 114.904L54.1907 114.945C53.9632 115.319 53.7154 115.679 53.459 116.033C53.5512 116.103 53.6405 116.178 53.7269 116.255Z" fill="#6627D9"/>
<path d="M41.1488 146.773C40.9798 152.795 40.8088 158.816 40.636 164.837L41.8719 164.823C41.6875 164.056 41.4138 163.31 41.2554 162.535C41.0858 161.522 41.0212 160.493 41.0624 159.467L41.1488 146.773Z" fill="#6627D9"/>
<path d="M59.6589 164.174C59.2889 164.003 58.9693 163.739 58.7312 163.408C58.5452 163.084 58.4248 162.727 58.3769 162.356C58.1959 161.429 58.0622 160.492 57.9764 159.55C57.9495 159.272 57.9428 158.992 57.9563 158.712C57.7171 158.819 57.5048 158.978 57.3348 159.177C57.1648 159.377 57.0415 159.611 56.9739 159.864C56.1316 158.374 55.582 156.736 55.3548 155.039C55.2683 155.327 55.179 155.644 55.0667 155.946C54.4674 157.73 53.5974 159.455 53.4245 161.328C53.3414 162.457 53.4387 163.592 53.7126 164.69L59.4342 164.63L59.6589 164.174Z" fill="#6627D9"/>
<path d="M63.4214 154.661C63.5337 155.019 63.6547 155.373 63.7901 155.724C63.8276 155.822 63.8679 155.915 63.9083 156.013C63.9947 155.935 64.084 155.86 64.1762 155.791C63.9198 155.436 63.672 155.076 63.4444 154.702L63.4214 154.661Z" fill="white"/>
<path d="M104.697 160.654C104.293 158.938 104.017 157.194 103.87 155.436C103.413 151.211 102.956 146.986 102.499 142.76C102.484 142.648 102.473 142.538 102.461 142.426C102.444 142.481 102.43 142.535 102.412 142.59C102.064 143.613 101.372 144.477 100.684 145.319C99.9953 146.16 99.1339 147.027 98.1227 146.782C97.7082 146.645 97.332 146.412 97.0251 146.102L94.7203 144.111C94.2651 143.727 93.8128 143.333 93.3634 142.927C93.3432 145.707 93.2798 148.488 93.1358 151.262C93.0897 152.126 93.0176 153.057 92.6028 153.826C93.4532 156.468 93.9246 159.217 94.0029 161.991C94.0231 162.743 94.0029 163.492 93.9799 164.244L100.733 164.172H100.773L105.852 164.117C105.429 162.982 105.002 161.838 104.697 160.654Z" fill="white"/>
<path d="M93.2882 131.974C93.4322 132.152 93.5763 132.331 93.7232 132.513L92.9886 129.669C92.9412 129.404 92.8349 129.153 92.6774 128.934C92.4205 128.708 92.1286 128.524 91.8131 128.39C91.7464 128.345 91.682 128.297 91.6201 128.246C92.0465 128.793 92.5593 129.283 92.8676 129.902C93.1525 130.555 93.2958 131.261 93.2882 131.974Z" fill="white"/>
<path d="M101.64 119.318C101.822 121.317 101.928 123.325 102.029 125.333C102.13 127.341 102.234 129.297 102.335 131.28C102.57 129.747 102.926 128.235 103.401 126.759C102.986 125.99 102.914 125.074 102.868 124.195C102.724 121.421 102.66 118.641 102.64 115.861C102.199 116.255 101.753 116.641 101.303 117.013C101.471 117.772 101.583 118.542 101.64 119.318Z" fill="white"/>
<path d="M63.3667 139.845C62.6868 144.495 62.0299 149.352 63.191 153.858C63.2752 153.584 63.4268 153.337 63.6317 153.137C64.3981 152.195 64.7006 150.968 64.9282 149.775C66.3283 142.406 65.6542 134.861 65.3373 127.336L64.7236 128.044C64.4968 128.27 64.3029 128.526 64.1474 128.805C64.0018 129.148 63.9226 129.516 63.9141 129.888C63.8574 130.77 63.8873 131.656 64.0034 132.533C64.2884 134.471 64.1717 136.447 63.6606 138.338C63.5276 138.833 63.4295 139.336 63.3667 139.845Z" fill="white"/>
<path d="M167.545 163.46L169.804 163.434C168.599 156.499 170.337 149.052 168.7 142.115C168.444 141.034 168.124 139.902 168.043 138.805C167.467 140.337 166.807 141.847 166.658 143.466C166.395 146.272 167.715 148.957 168.205 151.729C168.879 155.552 167.966 159.45 167.559 163.31C167.554 163.376 167.551 163.411 167.545 163.46Z" fill="white"/>
<path d="M245.21 159.983C242.594 152.187 245.21 143.495 243.317 135.494C242.882 133.659 242.225 131.671 243.029 129.957L241.828 129.591C241.992 129.211 242.159 128.834 242.326 128.439C242.092 128.32 241.875 128.171 241.681 127.995L240.799 136.122C240.653 137.88 240.376 139.624 239.972 141.34C239.474 143.259 238.664 145.085 238.085 146.972C236.538 152.034 236.708 157.436 237.541 162.691L246.184 162.596C245.867 161.731 245.507 160.864 245.21 159.983Z" fill="#6627D9"/>
<path d="M241.168 82.9227L241.191 82.842L241.295 82.5049C241.047 82.3006 240.774 82.1292 240.482 81.995C240.416 81.9502 240.351 81.9022 240.289 81.851C240.575 82.214 240.894 82.5539 241.168 82.9227Z" fill="#6627D9"/>
<path d="M212.079 108.278C212.191 108.635 212.312 108.99 212.448 109.341C212.485 109.439 212.525 109.531 212.566 109.629C212.652 109.551 212.741 109.476 212.834 109.407C212.577 109.053 212.33 108.693 212.102 108.318L212.079 108.278Z" fill="#6627D9"/>
<path d="M247.581 114.051C248.465 109.407 248.523 104.694 248.365 99.9578C248.155 100.15 247.904 100.292 247.63 100.371C247.357 100.45 247.069 100.464 246.789 100.413L246.74 100.399C246.67 101.152 246.53 101.898 246.322 102.626C246.187 103.116 246.086 103.616 246.02 104.121C245.34 108.771 244.683 113.628 245.844 118.134C245.928 117.861 246.08 117.613 246.285 117.414C247.051 116.471 247.353 115.244 247.581 114.051Z" fill="#6627D9"/>
<path d="M119.482 163.981C119.482 162.472 119.492 160.961 119.511 159.45C119.467 160.963 119.424 162.475 119.384 163.984L119.482 163.981Z" fill="white"/>
<path d="M299.015 39.0024C298.823 37.9153 298.595 36.8484 298.332 35.8017C295.537 24.5025 288.995 15.4851 277.013 10.6048C275.985 10.188 274.917 9.80389 273.809 9.45242C271.287 8.65141 268.711 8.03518 266.1 7.6086C240.966 3.40529 219.831 5.40467 200.78 9.19601C199.705 9.40632 198.639 9.62815 197.576 9.85287C170.87 15.4967 148.127 24.2404 123.861 23.4769C122.798 23.4452 121.729 23.3934 120.66 23.3242C110.081 22.6213 99.1682 20.0313 87.4802 14.5229C73.666 8.01482 59.6184 10.2015 46.9451 17.9512C39.7917 22.3188 33.0762 28.461 27.0866 35.8132L27.0665 35.8362C26.2214 36.8734 25.3917 37.9297 24.5773 39.0053C5.08764 64.8993 -5.73323 103.619 3.143 133.625C3.46182 134.706 3.80754 135.774 4.18014 136.828C6.7442 144.143 10.5586 150.867 15.7904 156.669C18.8262 160.026 22.7197 162.491 27.0521 163.8C27.7954 164.027 28.5531 164.218 29.3194 164.376C29.5355 160.734 29.2848 157.093 28.2217 153.613C27.6456 151.72 26.8331 149.899 26.3347 147.98C25.9306 146.264 25.6543 144.52 25.5079 142.763C25.0508 138.538 24.5937 134.312 24.1365 130.087C23.8484 127.477 23.5604 124.858 23.6381 122.236C23.7164 119.462 24.1879 116.713 25.0383 114.072C24.6234 113.302 24.5514 112.386 24.5053 111.508C24.3613 108.733 24.2979 105.953 24.2777 103.173C23.8283 103.572 23.376 103.967 22.9208 104.357L20.6016 106.348C20.2947 106.658 19.9185 106.891 19.504 107.028C18.4927 107.272 17.5968 106.374 16.9428 105.564C16.2888 104.755 15.5715 103.859 15.2142 102.836C14.9409 101.886 14.8347 100.895 14.9002 99.9088C14.9232 98.644 14.9866 97.3822 15.0529 96.1203L15.606 85.5904C15.7097 83.5737 15.8135 81.5743 15.995 79.575C16.1246 78.1345 16.309 76.6681 17.0494 75.4408C18.4409 73.136 21.4256 72.3293 24.1365 72.5252C24.0686 72.3921 24.031 72.2455 24.0265 72.096C24.0221 71.9466 24.0508 71.798 24.1106 71.661C24.2796 71.403 24.5226 71.2022 24.8078 71.0848L28.8066 68.9442C29.0905 68.764 29.4116 68.6507 29.7458 68.6129C29.9228 68.6069 30.0986 68.6434 30.2586 68.7195L31.0336 68.1779C31.2072 68.0424 31.4018 67.9364 31.6098 67.8639C31.8699 67.7985 32.1435 67.8115 32.3963 67.9013C32.5916 67.5128 32.7044 67.0881 32.7276 66.6539C32.711 66.1132 32.5958 65.5801 32.3876 65.0808C31.4601 64.3787 30.7061 63.473 30.1837 62.4336C29.6612 61.3943 29.3843 60.2488 29.3741 59.0856C28.5098 58.6016 27.3978 58.3279 27.0463 57.308C26.8072 56.6166 27.0924 55.8503 26.9945 55.1243C26.8031 54.9358 26.6573 54.7063 26.5681 54.453C26.3203 53.7328 26.643 52.9319 26.5105 52.1828C26.4356 51.7737 26.2224 51.3675 26.3059 50.9584C26.3906 50.6686 26.5471 50.405 26.7611 50.1921L29.5931 46.8357C30.2182 46.0982 30.8636 45.3405 31.7221 44.8997C33.7791 43.8453 36.2423 44.8997 38.5529 44.8997C39.3278 44.8997 40.1287 44.7816 40.8576 45.0294C41.3816 45.2448 41.8633 45.5511 42.2808 45.934L45.4499 48.5269C46.5158 49.3912 47.6653 50.4225 47.769 51.7939C47.7936 52.209 47.7328 52.6247 47.5904 53.0154C47.9582 53.4872 48.185 54.0536 48.2444 54.6489C48.3164 55.5996 47.8555 56.5071 47.3254 57.2994C46.5294 58.4816 45.5579 59.5356 44.4444 60.4252C44.1838 61.7916 43.553 63.0602 42.6208 64.0927C42.8291 65.0984 43.1025 66.0896 43.439 67.0601C43.4469 67.0759 43.4537 67.0922 43.4591 67.109C43.7284 67.1246 43.988 67.2154 44.2082 67.3712C44.4358 67.5403 44.6444 67.7335 44.8305 67.9474C44.9301 67.7888 45.0773 67.6658 45.2511 67.5959C45.6775 67.4231 46.1557 67.619 46.5735 67.8091C47.844 68.3853 49.1375 68.9845 50.1718 69.9209C50.5492 70.2632 50.8666 70.6664 51.111 71.1136C52.564 70.899 54.0448 71.2328 55.2653 72.0499C57.4433 73.5422 58.3393 76.2676 59.097 78.7971L60.7939 84.4697C61.5371 86.956 62.2862 89.4653 62.4591 92.0524C62.6175 94.409 62.2948 96.7656 61.9722 99.1021C61.5256 102.335 62.5772 105.884 62.5916 109.148C62.5916 109.986 62.5916 110.833 62.5714 111.683C63.7448 110.955 65.1361 110.66 66.5039 110.851C66.7482 110.403 67.0657 110 67.4431 109.658C68.4774 108.722 69.7709 108.128 71.0414 107.546C71.4592 107.356 71.9374 107.16 72.3638 107.333C72.5376 107.403 72.6848 107.526 72.7844 107.684C72.9705 107.471 73.1791 107.277 73.4067 107.108C73.6269 106.952 73.8864 106.862 74.1557 106.846C74.1612 106.829 74.168 106.813 74.1759 106.797C74.5124 105.827 74.7857 104.836 74.9941 103.83C74.0619 102.797 73.4311 101.529 73.1705 100.162C72.057 99.2727 71.0855 98.2187 70.2895 97.0365C69.7594 96.2442 69.2985 95.3367 69.3705 94.386C69.4299 93.7906 69.6566 93.2243 70.0245 92.7525C69.8821 92.3618 69.8213 91.946 69.8458 91.5309C69.9495 90.1596 71.099 89.134 72.165 88.2639L75.3341 85.6711C75.7515 85.2881 76.2333 84.9819 76.7572 84.7664C77.489 84.5187 78.2899 84.6368 79.062 84.6368C81.3668 84.6368 83.8358 83.5881 85.8928 84.6368C86.7571 85.0776 87.3966 85.8353 88.0218 86.5728L90.8538 89.9291C91.0677 90.1421 91.2243 90.4057 91.309 90.6955C91.3896 91.1046 91.1793 91.5108 91.1044 91.9199C90.9719 92.6689 91.2946 93.4698 91.0468 94.1901C90.9576 94.4433 90.8117 94.6729 90.6204 94.8613C90.5225 95.5873 90.8077 96.3537 90.5686 97.0451C90.2171 98.0649 89.1108 98.3386 88.2408 98.8226C88.227 99.9813 87.9486 101.121 87.4268 102.156C86.905 103.191 86.1537 104.092 85.2301 104.792C85.0219 105.291 84.9067 105.824 84.8902 106.365C84.9133 106.799 85.0261 107.224 85.2215 107.612C85.4742 107.523 85.7479 107.51 86.008 107.575C86.2159 107.648 86.4106 107.754 86.5842 107.889L87.3592 108.431C87.5191 108.355 87.695 108.318 87.872 108.324C88.2061 108.362 88.5273 108.475 88.8112 108.655L92.81 110.796C92.9846 110.886 93.1489 110.995 93.2997 111.121C93.3314 110.346 93.366 109.569 93.4063 108.794L93.9681 98.2666C94.0718 96.2499 94.1755 94.2506 94.357 92.2512C94.4867 90.8107 94.671 89.3443 95.4115 88.117C96.803 85.8122 99.7876 85.0056 102.499 85.2015C102.431 85.0683 102.393 84.9217 102.389 84.7722C102.384 84.6228 102.413 84.4742 102.473 84.3372C102.642 84.0792 102.885 83.8784 103.17 83.761L107.169 81.6204C107.453 81.4402 107.774 81.327 108.108 81.2891C108.285 81.2831 108.461 81.3197 108.621 81.3957L109.396 80.8541C109.569 80.7187 109.764 80.6126 109.972 80.5401C110.232 80.4747 110.506 80.4878 110.758 80.5775C110.954 80.189 111.067 79.7643 111.09 79.3301C111.073 78.7894 110.958 78.2563 110.75 77.7571C109.822 77.0549 109.068 76.1493 108.546 75.1099C108.023 74.0705 107.746 72.9251 107.736 71.7618C106.872 71.2778 105.76 71.0041 105.408 69.9842C105.169 69.2928 105.454 68.5265 105.357 67.8005C105.165 67.612 105.019 67.3825 104.93 67.1292C104.682 66.409 105.005 65.6081 104.873 64.859C104.777 64.5351 104.703 64.2049 104.654 63.8708C104.339 64.4618 104.097 65.0886 103.933 65.7377C103.527 67.3712 103.599 69.0825 103.357 70.7477C103.271 71.3239 103.106 71.9404 102.62 72.2429C102.242 72.4792 101.755 72.459 101.349 72.629C100.669 72.9171 100.292 73.6661 100.197 74.395C100.102 75.1239 100.217 75.8643 100.217 76.6018C100.217 78.5292 99.2921 80.5228 97.6096 81.462C95.3942 82.7008 92.6429 81.8797 90.2488 81.0385C91.3157 80.6536 92.2633 79.996 92.9972 79.1313L90.364 78.5983C91.8934 77.8825 93.308 76.9437 94.5616 75.8124C95.0296 75.4397 95.3979 74.9566 95.6333 74.4065C95.9214 73.597 95.6535 72.6779 95.9214 71.8684C96.3679 70.4827 98.0648 69.9583 98.9291 68.7886C99.6868 67.7688 99.7127 66.4003 99.7098 65.1327L99.6954 60.2985C99.6954 58.907 99.7848 57.3023 100.894 56.4581C102.13 55.5161 103.881 56.0519 105.437 56.0433C107.076 56.0433 108.638 55.3605 110.269 55.179C111.807 55.0033 114.374 56.0807 114.331 57.3023C115.187 57.4538 116.054 57.5434 116.924 57.5702C117.699 57.5702 118.499 57.4521 119.228 57.6998C119.752 57.9153 120.234 58.2215 120.652 58.6045L123.821 61.1973C124.887 62.0616 126.036 63.093 126.125 64.4643C126.15 64.8794 126.089 65.2952 125.947 65.6859C126.315 66.1577 126.541 66.724 126.601 67.3194C126.673 68.2701 126.212 69.1776 125.682 69.9698C124.886 71.1521 123.914 72.2061 122.801 73.0957C122.54 74.4621 121.909 75.7307 120.977 76.7631C121.185 77.7689 121.459 78.7601 121.795 79.7305C121.803 79.7463 121.81 79.7627 121.815 79.7795C122.085 79.795 122.344 79.8859 122.564 80.0417C122.792 80.2108 123.001 80.4039 123.187 80.6179C123.286 80.4592 123.434 80.3362 123.607 80.2664C124.034 80.0935 124.512 80.2894 124.93 80.4796C126.049 80.9433 127.113 81.5328 128.099 82.237C128.099 82.1793 128.099 82.1188 128.099 82.0612C128.122 80.7965 128.185 79.5346 128.252 78.2728L128.828 67.7285C128.931 65.7118 129.035 63.7124 129.217 61.713C129.346 60.2725 129.531 58.8061 130.271 57.5788C131.663 55.2741 134.647 54.4674 137.358 54.6633C137.29 54.5301 137.253 54.3835 137.248 54.2341C137.244 54.0846 137.272 53.936 137.332 53.799C137.501 53.5411 137.744 53.3402 138.029 53.2228L142.028 51.0823C142.312 50.9021 142.633 50.7888 142.967 50.751C143.144 50.7449 143.32 50.7815 143.48 50.8576L144.255 50.3159C144.429 50.1805 144.624 50.0744 144.831 50.0019C145.092 49.9366 145.365 49.9496 145.618 50.0394C145.813 49.6509 145.926 49.2261 145.949 48.7919C145.933 48.2512 145.817 47.7182 145.609 47.2189C144.682 46.5167 143.928 45.6111 143.405 44.5717C142.883 43.5323 142.606 42.3869 142.596 41.2236C141.732 40.7396 140.619 40.4659 140.268 39.4461C140.029 38.7546 140.314 37.9883 140.216 37.2623C140.025 37.0739 139.879 36.8443 139.79 36.5911C139.542 35.8708 139.865 35.0699 139.732 34.3209C139.657 33.9118 139.444 33.5055 139.528 33.0964C139.612 32.8067 139.769 32.5431 139.983 32.3301L142.815 28.9738C143.44 28.2363 144.085 27.4786 144.944 27.0378C147.001 25.9834 149.464 27.0378 151.775 27.0378C152.55 27.0378 153.35 26.9197 154.079 27.1674C154.603 27.3829 155.085 27.6891 155.502 28.0721L158.672 30.6649C159.738 31.5292 160.887 32.5606 160.976 33.9319C161.001 34.347 160.94 34.7628 160.798 35.1534C161.166 35.6253 161.392 36.1916 161.452 36.787C161.524 37.7377 161.063 38.6452 160.533 39.4374C159.737 40.6197 158.765 41.6737 157.652 42.5633C157.391 43.9297 156.76 45.1983 155.828 46.2307C156.036 47.2365 156.31 48.2277 156.646 49.1981C156.654 49.2139 156.661 49.2303 156.666 49.2471C156.936 49.2626 157.195 49.3535 157.415 49.5093C157.643 49.6784 157.852 49.8715 158.038 50.0855C158.137 49.9268 158.285 49.8038 158.458 49.734C158.885 49.5611 159.363 49.757 159.781 49.9472C161.051 50.5234 162.345 51.1226 163.379 52.0589C163.756 52.4013 164.074 52.8044 164.318 53.2516C165.776 53.0334 167.263 53.3673 168.487 54.1879C170.665 55.6803 171.561 58.4057 172.319 60.9352L174.016 66.6078C174.759 69.094 175.508 71.6033 175.681 74.1904C175.828 76.3915 175.554 78.5954 175.254 80.7821C175.326 80.7072 175.398 80.6323 175.479 80.5602C176.513 79.6239 177.807 79.0304 179.077 78.4485C179.495 78.2584 179.973 78.0625 180.4 78.2353C180.574 78.3051 180.721 78.4282 180.82 78.5868C181.006 78.3729 181.215 78.1797 181.443 78.0106C181.663 77.8548 181.922 77.764 182.192 77.7484C182.197 77.7316 182.204 77.7152 182.212 77.6994C182.548 76.729 182.822 75.7378 183.03 74.7321C182.098 73.6996 181.467 72.431 181.206 71.0646C180.093 70.175 179.121 69.121 178.325 67.9388C177.795 67.1465 177.334 66.239 177.406 65.2883C177.466 64.693 177.693 64.1266 178.06 63.6548C177.918 63.2641 177.857 62.8484 177.882 62.4332C177.986 61.0619 179.135 60.0363 180.187 59.1662L183.356 56.5734C183.773 56.1904 184.255 55.8842 184.779 55.6688C185.511 55.421 186.311 55.5391 187.084 55.5391C187.953 55.5123 188.82 55.4228 189.676 55.2712C189.633 54.0497 192.2 52.9664 193.739 53.1479C195.366 53.3352 196.931 54.0122 198.57 54.0122C200.126 54.0122 201.877 53.485 203.113 54.4271C204.222 55.2712 204.315 56.8759 204.312 58.2674L204.323 63.1189C204.323 64.3865 204.346 65.755 205.104 66.7749C205.928 67.8869 207.504 68.4199 208.037 69.6558C208.688 67.982 209.569 66.4291 211.027 65.4323C212.24 64.6131 213.712 64.2723 215.161 64.4758C215.406 64.0287 215.723 63.6255 216.101 63.2831C217.135 62.3468 218.428 61.7533 219.699 61.1714C220.117 60.9812 220.595 60.7853 221.021 60.9582C221.195 61.028 221.342 61.1511 221.442 61.3097C221.628 61.0958 221.837 60.9026 222.064 60.7335C222.284 60.5777 222.544 60.4868 222.813 60.4713C222.819 60.4545 222.825 60.4381 222.833 60.4223C223.17 59.4519 223.443 58.4607 223.652 57.455C222.719 56.4225 222.089 55.1539 221.828 53.7875C220.714 52.8979 219.743 51.8439 218.947 50.6617C218.417 49.8694 217.956 48.9619 218.028 48.0112C218.087 47.4159 218.314 46.8495 218.682 46.3777C218.54 45.987 218.479 45.5712 218.503 45.1561C218.607 43.7848 219.757 42.7592 220.808 41.8891L223.977 39.2963C224.395 38.9133 224.876 38.6071 225.4 38.3917C226.132 38.1439 226.933 38.262 227.705 38.262C228.575 38.2352 229.441 38.1457 230.298 37.9941C230.255 36.7726 232.822 35.6893 234.36 35.8708C235.988 36.0581 237.552 36.7351 239.191 36.7351C240.747 36.7351 242.499 36.2079 243.735 37.15C244.844 37.9941 244.936 39.5988 244.933 40.9903L244.945 45.8332C244.945 47.1008 244.968 48.4692 245.725 49.4891C246.59 50.6588 248.287 51.1831 248.733 52.5688C248.992 53.3813 248.733 54.2974 249.021 55.107C249.257 55.6571 249.625 56.1401 250.093 56.5129C250.738 57.0949 251.427 57.6266 252.153 58.1032C252.271 57.7199 252.456 57.3602 252.697 57.0401C252.555 56.6494 252.494 56.2337 252.519 55.8186C252.622 54.4472 253.772 53.4216 254.824 52.5516L257.993 49.9587C258.41 49.5758 258.892 49.2695 259.416 49.0541C260.148 48.8063 260.948 48.9244 261.721 48.9244C264.025 48.9244 266.494 47.8758 268.551 48.9244C269.416 49.3652 270.055 50.1229 270.68 50.8604L273.512 54.2168C273.726 54.4297 273.883 54.6933 273.968 54.9831C274.048 55.3922 273.838 55.7984 273.763 56.2075C273.63 56.9566 273.953 57.7575 273.705 58.4777C273.616 58.731 273.47 58.9605 273.279 59.149C273.181 59.875 273.466 60.6413 273.227 61.3327C272.876 62.3526 271.769 62.6263 270.899 63.1103C270.886 64.2689 270.607 65.409 270.085 66.4436C269.564 67.4782 268.812 68.3798 267.889 69.0796C267.681 69.5789 267.565 70.112 267.549 70.6526C267.572 71.0869 267.685 71.5116 267.88 71.9001C268.133 71.8103 268.406 71.7973 268.667 71.8626C268.874 71.9351 269.069 72.0412 269.243 72.1767L270.018 72.7183C270.178 72.6422 270.354 72.6057 270.531 72.6117C270.865 72.6495 271.186 72.7628 271.47 72.943L275.469 75.0835C275.754 75.2009 275.997 75.4018 276.166 75.6597C276.226 75.7968 276.254 75.9453 276.25 76.0948C276.245 76.2442 276.208 76.3908 276.14 76.524C278.851 76.3281 281.835 77.1319 283.227 79.4395C283.967 80.6668 284.152 82.1448 284.281 83.5737C284.463 85.5731 284.569 87.5811 284.67 89.5892L285.215 100.145C285.281 101.407 285.344 102.669 285.367 103.933C285.433 104.92 285.327 105.91 285.053 106.861C284.705 107.883 284.013 108.748 283.325 109.589C282.636 110.43 281.775 111.297 280.764 111.052C280.349 110.916 279.973 110.683 279.666 110.372L277.347 108.382C276.892 107.998 276.439 107.603 275.99 107.198C275.97 109.978 275.906 112.758 275.762 115.532C275.716 116.396 275.644 117.327 275.229 118.096C276.08 120.738 276.551 123.487 276.63 126.261C276.651 128.523 276.524 130.783 276.249 133.028C276.491 132.515 276.734 131.997 276.978 131.473C289.493 104.731 303.929 66.1785 299.015 39.0024Z" fill="#6627D9"/>
<path d="M24.6465 89.9118L23.9119 92.7669C24.0559 92.5854 24.2 92.4068 24.3469 92.2282C24.334 91.5127 24.4734 90.8026 24.756 90.1452C25.0643 89.5258 25.5771 89.036 26.0034 88.4886C25.9416 88.5399 25.8771 88.5879 25.8104 88.6327C25.4949 88.7666 25.2031 88.9504 24.9461 89.1772C24.7928 89.3967 24.6904 89.6477 24.6465 89.9118Z" fill="#6627D9"/>
<path d="M201.324 102.876C201.468 103.055 201.612 103.233 201.759 103.415L201.025 100.571C200.977 100.306 200.871 100.055 200.714 99.8368C200.457 99.61 200.165 99.4261 199.849 99.2922C199.783 99.2475 199.718 99.1994 199.656 99.1482C200.083 99.6956 200.595 100.185 200.904 100.805C201.189 101.458 201.332 102.164 201.324 102.876Z" fill="#6627D9"/>
<path d="M246.561 120.289C246.648 120.211 246.737 120.136 246.829 120.067C246.573 119.712 246.325 119.352 246.097 118.978L246.074 118.938C246.187 119.295 246.308 119.649 246.443 120.001C246.48 120.099 246.512 120.191 246.561 120.289Z" fill="#6627D9"/>
<path d="M171.458 125.564C171.57 125.921 171.691 126.275 171.826 126.627C171.864 126.725 171.904 126.817 171.944 126.915C172.031 126.837 172.12 126.762 172.212 126.693C171.956 126.339 171.708 125.979 171.481 125.604L171.458 125.564Z" fill="#6627D9"/>
<path d="M196.297 69.7451C196.283 70.9038 196.005 72.0439 195.483 73.0785C194.961 74.1131 194.21 75.0147 193.286 75.7145C193.078 76.2137 192.963 76.7468 192.947 77.2875C192.97 77.7217 193.082 78.1465 193.278 78.535C193.531 78.4452 193.804 78.4321 194.064 78.4975C194.272 78.57 194.467 78.6761 194.641 78.8115L195.416 79.3531C195.575 79.2771 195.751 79.2405 195.928 79.2465C196.262 79.2844 196.584 79.3977 196.868 79.5779L200.866 81.7184C201.151 81.8358 201.394 82.0366 201.563 82.2946C201.623 82.4316 201.652 82.5802 201.648 82.7296C201.643 82.8791 201.606 83.0257 201.538 83.1589C202.395 83.096 203.257 83.1386 204.104 83.2856C204.412 81.6757 204.811 80.0847 205.3 78.5205C204.343 77.4274 203.82 76.0209 203.831 74.5679C203.831 73.8303 203.949 73.0899 203.851 72.3611C203.753 71.6322 203.376 70.8774 202.699 70.595C202.287 70.4251 201.805 70.4452 201.428 70.209C200.941 69.9209 200.777 69.2813 200.691 68.7138C200.44 67.0486 200.512 65.3373 200.114 63.7038C199.951 63.0547 199.709 62.4278 199.394 61.8369C199.344 62.171 199.271 62.5012 199.175 62.8251C199.043 63.5741 199.365 64.375 199.118 65.0953C199.028 65.3485 198.882 65.5781 198.691 65.7665C198.593 66.4925 198.878 67.2589 198.639 67.9503C198.273 68.9817 197.167 69.2554 196.297 69.7451Z" fill="#6627D9"/>
<path d="M212.024 93.4612C211.344 98.111 210.687 102.968 211.848 107.474C211.933 107.201 212.084 106.953 212.289 106.754C213.056 105.812 213.358 104.585 213.586 103.392C214.986 96.0223 214.312 88.4771 213.995 80.952L213.381 81.6607C213.154 81.886 212.96 82.142 212.805 82.4213C212.659 82.7644 212.58 83.132 212.572 83.5046C212.515 84.3869 212.545 85.2727 212.661 86.1493C212.946 88.0874 212.829 90.0633 212.318 91.9544C212.185 92.4492 212.087 92.9527 212.024 93.4612Z" fill="#6627D9"/>
<path d="M207.639 117.321C207.437 117.489 207.2 117.609 206.945 117.674C206.691 117.74 206.425 117.748 206.167 117.699C205.753 117.562 205.377 117.329 205.07 117.019L202.765 115.028C202.31 114.644 201.857 114.249 201.408 113.844C201.388 116.624 201.324 119.404 201.18 122.179C201.134 123.043 201.062 123.973 200.647 124.743C201.498 127.384 201.969 130.133 202.047 132.907C202.117 135.529 201.834 138.148 201.549 140.758C201.094 144.983 200.637 149.209 200.178 153.434C200.031 155.191 199.755 156.935 199.351 158.652C198.953 160.181 198.357 161.651 197.838 163.146L200.78 163.114L204.525 163.074H204.986L211.324 163.005C211.326 162.998 211.326 162.991 211.324 162.985C211.814 160.213 213.133 157.528 212.871 154.722C212.698 152.849 211.828 151.124 211.229 149.34C208.613 141.544 211.229 132.853 209.336 124.852C208.901 123.017 208.244 121.029 209.048 119.315L207.847 118.949C208.011 118.569 208.178 118.191 208.345 117.797C208.088 117.673 207.851 117.513 207.639 117.321Z" fill="#6627D9"/>
<path d="M184.522 157.433C184.534 159.381 184.546 161.328 184.56 163.276H184.687L184.522 157.433Z" fill="white"/>
<path d="M259.139 150.807C259.159 153.749 259.178 156.689 259.197 159.625L259.387 159.513C259.303 156.611 259.22 153.709 259.139 150.807Z" fill="#6627D9"/>
<path d="M252.156 59.7251L251.669 59.823C251.941 60.1452 252.244 60.4395 252.574 60.7017C252.399 60.3925 252.259 60.065 252.156 59.7251Z" fill="#6627D9"/>
<path d="M225.144 140.147L225.23 152.841C225.272 153.867 225.207 154.895 225.037 155.909C224.865 156.756 224.548 157.565 224.366 158.41C224.11 159.617 224.141 160.867 224.153 162.103C224.153 162.351 224.153 162.598 224.153 162.846L225.786 162.829C225.573 155.269 225.359 147.709 225.144 140.147Z" fill="#6627D9"/>
<path d="M275.941 96.25C276.085 96.4286 276.229 96.6072 276.376 96.7887L275.641 93.9337C275.594 93.6686 275.488 93.4175 275.33 93.1991C275.073 92.9723 274.781 92.7884 274.466 92.6545C274.399 92.6098 274.335 92.5617 274.273 92.5105C274.699 93.0579 275.212 93.5476 275.52 94.1671C275.807 94.8236 275.95 95.5337 275.941 96.25Z" fill="#6627D9"/>
<path d="M236.918 52.4593C236.905 53.6179 236.626 54.7581 236.104 55.7927C235.583 56.8272 234.831 57.7289 233.908 58.4287C233.7 58.9279 233.584 59.461 233.568 60.0017C233.591 60.4359 233.704 60.8606 233.899 61.2491C234.152 61.1593 234.426 61.1463 234.686 61.2117C234.894 61.2842 235.088 61.3903 235.262 61.5257L236.037 62.0673C236.197 61.9912 236.373 61.9547 236.55 61.9607C236.884 61.9985 237.205 62.1118 237.489 62.292L241.488 64.4326C241.773 64.55 242.016 64.7508 242.185 65.0088C242.245 65.1458 242.273 65.2944 242.269 65.4438C242.264 65.5933 242.227 65.7399 242.159 65.8731C244.87 65.6771 247.855 66.4809 249.246 68.7886C249.986 70.0159 250.171 71.4938 250.3 72.9228C250.324 73.1849 250.344 73.4471 250.364 73.7121C251.352 72.9026 252.533 72.3552 253.697 71.8222C254.115 71.6321 254.593 71.4362 255.019 71.609C255.193 71.6789 255.341 71.8019 255.44 71.9605C255.626 71.7466 255.835 71.5534 256.062 71.3843C256.283 71.2285 256.542 71.1377 256.811 71.1222C256.817 71.1053 256.824 71.089 256.832 71.0732C257.168 70.1028 257.441 69.1116 257.65 68.1058C256.718 67.0733 256.087 65.8047 255.826 64.4383C254.953 63.7348 254.165 62.9302 253.481 62.0414C251.329 62.7415 248.99 63.2226 247.059 62.1451C245.377 61.2059 244.467 59.2123 244.467 57.2849C244.467 56.5474 244.585 55.807 244.487 55.0781C244.389 54.3492 244.011 53.5944 243.334 53.3121C242.922 53.1421 242.441 53.1623 242.064 52.926C241.577 52.6379 241.413 51.9984 241.326 51.4308C241.076 49.7656 241.148 48.0543 240.75 46.4208C240.586 45.7717 240.344 45.1449 240.03 44.554C239.98 44.888 239.907 45.2182 239.811 45.5421C239.678 46.2912 240.001 47.0921 239.753 47.8123C239.664 48.0656 239.518 48.2952 239.327 48.4836C239.229 49.2096 239.514 49.9759 239.275 50.6674C238.895 51.6959 237.788 51.9695 236.918 52.4593Z" fill="#6627D9"/>
<path d="M190.334 157.94V164.854H41.9641V157.94C41.9641 157.405 42.1766 156.892 42.5548 156.514C42.933 156.136 43.4459 155.923 43.9808 155.923H188.317C188.852 155.923 189.365 156.136 189.743 156.514C190.121 156.892 190.334 157.405 190.334 157.94Z" fill="#3F3D56"/>
<path d="M134.089 55.1761C135.189 56.3083 136.246 57.6163 136.454 59.1806C134.109 59.7943 131.709 58.6419 129.516 57.6134C122.732 54.4229 115.568 52.1119 108.197 50.7365C107.621 50.63 107.005 50.5118 106.57 50.1143C105.749 49.3623 105.898 47.4667 106.662 46.6859C107.486 45.8447 109.01 45.9657 110.119 45.9052C114.543 45.681 118.965 46.3907 123.096 47.988C127.228 49.5853 130.977 52.0344 134.1 55.1761H134.089Z" fill="#192534"/>
<path d="M182.941 164.843H124.011C123.225 163.048 122.605 161.185 122.161 159.277C122.012 158.683 121.873 158.084 121.735 157.488C121.614 156.963 121.499 156.436 121.389 155.912C121.055 154.335 120.767 152.751 120.525 151.161C120.293 149.663 120.1 148.16 119.949 146.652C119.799 145.21 119.683 143.763 119.6 142.311C119.6 142.27 119.6 142.23 119.6 142.187C119.566 141.498 119.6 140.746 120.073 140.26C120.487 139.842 121.121 139.75 121.712 139.709C126.61 139.375 131.369 141.15 136.255 140.888C137.58 140.81 138.646 140.6 139.879 140.853C140.074 140.89 140.267 140.939 140.455 141C140.744 141.089 141.011 141.184 141.285 141.288C143.161 141.959 144.909 142.806 146.926 143.184C150.36 143.832 153.884 143.705 157.37 143.956C157.658 143.973 157.946 143.996 158.234 144.025C158.588 144.054 158.943 144.091 159.294 144.134C162.281 144.531 165.214 145.265 168.035 146.324C169.556 146.874 171.054 147.497 172.532 148.156C172.956 148.346 173.376 148.537 173.797 148.732C174.546 149.081 175.306 149.45 176.05 149.85C176.338 150.003 176.626 150.159 176.897 150.323C179.135 151.622 181.158 153.235 182.336 155.425C182.425 155.586 182.506 155.751 182.584 155.918C182.661 156.085 182.719 156.226 182.782 156.384C183.811 159.055 183.451 161.936 182.941 164.843Z" fill="#202F42"/>
<path opacity="0.1" d="M182.941 164.843H124.011C123.225 163.048 122.605 161.185 122.161 159.277C122.012 158.683 121.873 158.084 121.735 157.488C121.614 156.963 121.499 156.436 121.389 155.912C121.055 154.335 120.767 152.751 120.525 151.161C120.293 149.663 120.1 148.16 119.949 146.652C119.799 145.21 119.683 143.763 119.6 142.311C119.6 142.27 119.6 142.23 119.6 142.187C119.566 141.498 119.6 140.746 120.073 140.26C120.487 139.842 121.121 139.75 121.712 139.709C126.61 139.375 131.369 141.15 136.255 140.888C137.58 140.81 138.646 140.6 139.879 140.853C140.074 140.89 140.267 140.939 140.455 141C140.744 141.089 141.011 141.184 141.285 141.288C143.161 141.959 144.909 142.806 146.926 143.184C150.36 143.832 153.884 143.705 157.37 143.956C157.658 143.973 157.946 143.996 158.234 144.025C158.588 144.054 158.943 144.091 159.294 144.134C162.281 144.531 165.214 145.265 168.035 146.324C169.556 146.874 171.054 147.497 172.532 148.156C172.956 148.346 173.376 148.537 173.797 148.732C174.546 149.081 175.306 149.45 176.05 149.85C176.338 150.003 176.626 150.159 176.897 150.323C179.135 151.622 181.158 153.235 182.336 155.425C182.425 155.586 182.506 155.751 182.584 155.918C182.661 156.085 182.719 156.226 182.782 156.384C183.811 159.055 183.451 161.936 182.941 164.843Z" fill="black"/>
<path d="M129.156 164.843H62.7359C61.2436 163.201 60.2669 161.06 60.5089 158.879C60.5958 157.972 60.7479 157.073 60.9641 156.188C60.9872 156.093 61.0131 156.001 61.039 155.9C61.4647 154.225 62.5219 152.78 63.9891 151.867C66.605 150.187 69.751 149.53 72.632 148.441C74.1791 147.865 75.6714 147.136 77.2185 146.557C79.4436 145.755 81.7407 145.168 84.078 144.806C84.3373 144.762 84.5995 144.719 84.8588 144.682C85.1181 144.644 85.3918 144.598 85.6597 144.561C87.1002 144.353 88.5407 144.183 89.9955 144.016C93.1646 143.645 96.3826 143.276 99.5718 143.558C102.12 143.823 104.628 144.386 107.045 145.235C108.866 145.843 110.664 146.549 112.45 147.252C115.236 148.352 118.045 149.479 120.531 151.129C120.747 151.273 120.957 151.417 121.168 151.57C122.822 152.772 124.273 154.231 125.466 155.892C126.158 156.844 126.766 157.854 127.284 158.911C128.2 160.784 128.831 162.783 129.156 164.843Z" fill="#202F42"/>
<path d="M110.217 48.6939C109.128 51.0822 107.281 53.2459 104.806 54.1245C103.49 54.5913 102.069 54.6748 100.727 55.058C99.3843 55.4411 98.0302 56.2334 97.5578 57.5442C97.3843 58.1185 97.3007 58.7162 97.31 59.316C97.1055 64.9483 96.9384 70.8024 99.1884 75.9709C101.133 80.4306 104.697 83.954 108.217 87.3132C112.337 91.2428 116.699 95.2272 122.118 96.9846C125.287 98.0073 129.018 98.1197 131.64 96.0828C132.717 95.2445 133.518 94.1123 134.304 92.9944C136.033 90.5312 137.79 88.0334 138.879 85.2159C141.112 79.4539 140.36 73.0352 139.574 66.9131C139.569 66.5496 139.432 66.2002 139.188 65.9307C138.882 65.6743 138.436 65.7089 138.035 65.7319C135.232 65.899 132.172 64.4614 131.233 61.8167C130.83 60.6643 130.841 59.4313 130.862 58.2213L130.971 51.2436C130.971 50.4917 130.991 49.7138 130.709 49.0137C130.216 47.798 128.98 47.0864 127.796 46.4986C123.978 44.5888 119.999 43.0212 115.904 41.8142C114.112 41.287 112.749 40.4083 111.951 42.3328C111.107 44.335 111.144 46.6571 110.217 48.6939Z" fill="#FBBEBE"/>
<path opacity="0.1" d="M110.217 48.6939C109.128 51.0822 107.281 53.2459 104.806 54.1245C103.49 54.5913 102.069 54.6748 100.727 55.058C99.3843 55.4411 98.0302 56.2334 97.5578 57.5442C97.3843 58.1185 97.3007 58.7162 97.31 59.316C97.1055 64.9483 96.9384 70.8024 99.1884 75.9709C101.133 80.4306 104.697 83.954 108.217 87.3132C112.337 91.2428 116.699 95.2272 122.118 96.9846C125.287 98.0073 129.018 98.1197 131.64 96.0828C132.717 95.2445 133.518 94.1123 134.304 92.9944C136.033 90.5312 137.79 88.0334 138.879 85.2159C141.112 79.4539 140.36 73.0352 139.574 66.9131C139.569 66.5496 139.432 66.2002 139.188 65.9307C138.882 65.6743 138.436 65.7089 138.035 65.7319C135.232 65.899 132.172 64.4614 131.233 61.8167C130.83 60.6643 130.841 59.4313 130.862 58.2213L130.971 51.2436C130.971 50.4917 130.991 49.7138 130.709 49.0137C130.216 47.798 128.98 47.0864 127.796 46.4986C123.978 44.5888 119.999 43.0212 115.904 41.8142C114.112 41.287 112.749 40.4083 111.951 42.3328C111.107 44.335 111.144 46.6571 110.217 48.6939Z" fill="black"/>
<path d="M129.113 54.3609C140.887 54.3609 150.432 44.816 150.432 33.0418C150.432 21.2675 140.887 11.7227 129.113 11.7227C117.339 11.7227 107.794 21.2675 107.794 33.0418C107.794 44.816 117.339 54.3609 129.113 54.3609Z" fill="#FBBEBE"/>
<path d="M131.138 66.4666L128.756 72.3812C128.217 73.718 127.67 75.0691 126.84 76.2474C124.55 79.4943 120.038 80.9809 116.275 79.7305C112.723 78.558 109.571 75.2333 105.904 76.0314C104.003 76.4462 102.487 77.9731 101.64 79.7248C100.793 81.4764 100.522 83.447 100.341 85.3858C99.5027 94.354 100.358 103.4 102.862 112.052C103.121 112.945 103.438 113.881 104.126 114.498C104.968 115.235 106.175 115.345 107.296 115.408C112.481 115.718 117.677 115.9 122.882 115.956C126.079 115.993 129.292 115.982 132.449 115.486C135.607 114.991 138.629 114.046 141.743 113.423C144.656 112.847 147.638 112.579 150.484 111.741C150.948 111.605 151.438 111.433 151.723 111.047C151.944 110.678 152.044 110.25 152.011 109.822C152.011 108.163 151.495 106.549 150.936 104.988C149.496 101.004 147.813 97.0825 147.012 92.9253C145.909 87.2066 146.557 81.3151 146.436 75.4898C146.396 73.4039 146.252 71.2836 145.535 69.3216C144.817 67.3597 143.46 65.5562 141.55 64.7121C138.257 63.2457 132.714 62.5888 131.138 66.4666Z" fill="#FFF021"/>
<path d="M120.182 94.4551C118.661 93.1644 118.741 90.8625 118.56 88.8747C118.229 85.1467 116.607 81.6723 115.011 78.2843L110.243 68.1548C108.249 63.9313 106.209 59.123 107.854 54.7468C108.405 53.2718 109.347 51.958 109.831 50.46C110.315 48.9619 110.217 47.0892 108.989 46.1011C107.428 44.845 105.12 45.7006 103.354 46.6542C100.107 48.4154 96.9771 50.3833 93.9825 52.5458C93.1701 53.122 92.3173 53.8047 92.0523 54.7727C91.8881 55.3749 91.9745 56.0346 91.744 56.6166C91.2946 57.7689 89.8945 58.1147 88.6989 58.3855C83.7712 59.5213 79.127 61.6503 75.0502 64.6422C70.9735 67.6342 67.5498 71.4262 64.9886 75.7865C64.1389 77.2015 63.4618 78.7132 62.9719 80.2894C62.3957 82.3061 62.2459 84.4005 62.1076 86.4835C61.7389 91.842 61.3835 97.1977 61.0417 102.551C60.889 104.922 60.7392 107.35 61.3874 109.635C61.8051 111.104 62.5398 112.478 62.8509 113.976C63.4818 117.091 62.1508 120.271 60.4885 122.979C58.8262 125.688 56.7807 128.229 55.7378 131.216C55.125 133.117 54.8101 135.102 54.8044 137.099C54.651 143.84 56.5193 150.472 60.1687 156.142C63.7094 156.664 66.3599 153.143 69.6125 151.648C74.3805 149.461 80.4017 151.213 84.8816 148.511C85.9764 147.851 86.9242 146.952 88.0823 146.407C89.1339 145.915 90.3007 145.739 91.4502 145.572C95.6967 144.958 99.998 144.391 104.265 144.852C110.315 145.506 116.569 148.194 122.259 146.024C123.662 145.488 124.947 144.679 126.356 144.157C131.542 142.236 137.304 144.532 142.826 144.108C141.962 144.062 141.576 143.083 141.415 142.221C141.052 140.31 140.731 138.39 140.452 136.459C140.208 134.786 139.997 133.066 140.38 131.421C140.732 129.894 141.573 128.54 142.279 127.14C144.506 122.732 145.448 117.788 147.358 113.23C148.266 111.058 149.375 108.984 150.452 106.892C154.802 98.3068 158.191 89.2672 160.556 79.9379C158.041 75.4235 155.762 70.7189 153.247 66.2073C152.518 64.8993 151.769 63.5683 150.654 62.5571C149.058 61.0936 146.894 60.4569 144.811 59.8663C143.022 59.3563 141.207 58.8435 139.337 58.8407C137.468 58.8378 132.207 56.8845 130.945 58.2472C129.643 59.6531 132.573 64.1935 132.507 66.1064C132.44 68.0194 132.651 69.9554 132.334 71.8453C131.873 74.6024 130.317 77.0598 129.611 79.7622C129.332 81.0412 129.118 82.3335 128.969 83.6342C128.498 86.5428 127.737 89.3968 126.696 92.1532C126.506 92.7336 126.225 93.2801 125.863 93.7723C124.498 95.4432 122.302 94.8094 120.182 94.4551Z" fill="#192534"/>
<path d="M162.509 124.812C163.057 125.48 163.806 125.938 164.483 126.471C167.148 128.56 168.715 131.738 171.069 134.172C172.256 135.402 173.636 136.431 174.9 137.58C177.842 140.26 180.121 143.57 182.373 146.848C182.95 147.684 183.526 148.539 183.814 149.51C184.318 151.167 183.909 153.014 182.99 154.483C182.071 155.952 180.685 157.076 179.19 157.957C178.41 158.42 177.596 158.824 176.756 159.167C175.027 159.87 173.379 157.966 174.353 156.376C174.971 155.378 175.537 154.349 176.047 153.293C176.373 152.707 176.56 152.055 176.594 151.386C176.571 150.21 175.644 149.214 174.578 148.721C173.512 148.228 172.31 148.145 171.144 148.001C164.545 147.203 158.267 144.706 152.924 140.752C149.899 138.505 146.984 135.212 147.465 131.475C147.822 128.687 150.029 126.468 152.452 125.039C154.42 123.885 156.584 123.103 158.836 122.735C159.47 122.631 161.06 122.196 161.628 122.634C162.132 123.008 162.037 124.236 162.509 124.812Z" fill="#FBBEBE"/>
<path opacity="0.1" d="M162.509 124.812C163.057 125.48 163.806 125.938 164.483 126.471C167.148 128.56 168.715 131.738 171.069 134.172C172.256 135.402 173.636 136.431 174.9 137.58C177.842 140.26 180.121 143.57 182.373 146.848C182.95 147.684 183.526 148.539 183.814 149.51C184.318 151.167 183.909 153.014 182.99 154.483C182.071 155.952 180.685 157.076 179.19 157.957C178.41 158.42 177.596 158.824 176.756 159.167C175.027 159.87 173.379 157.966 174.353 156.376C174.971 155.378 175.537 154.349 176.047 153.293C176.373 152.707 176.56 152.055 176.594 151.386C176.571 150.21 175.644 149.214 174.578 148.721C173.512 148.228 172.31 148.145 171.144 148.001C164.545 147.203 158.267 144.706 152.924 140.752C149.899 138.505 146.984 135.212 147.465 131.475C147.822 128.687 150.029 126.468 152.452 125.039C154.42 123.885 156.584 123.103 158.836 122.735C159.47 122.631 161.06 122.196 161.628 122.634C162.132 123.008 162.037 124.236 162.509 124.812Z" fill="black"/>
<path d="M138.491 20.9964C135.61 23.9465 130.983 24.0704 126.857 23.9984L126.993 22.3821L121.19 24.4622C122.695 23.3443 123.985 21.9643 124.999 20.3885C124.247 19.7288 123.069 19.7489 122.176 20.2041C121.283 20.6593 120.626 21.4631 120.064 22.2928C118.418 24.758 117.37 27.5733 117.004 30.5147C116.638 33.4561 116.964 36.4424 117.955 39.2358C116.803 39.8753 115.333 39.6881 114.227 38.9909C113.121 38.2937 112.349 37.1586 111.824 35.9601C111.482 35.1765 111.124 34.2488 110.306 34.0039C109.621 33.7994 108.866 34.2171 108.485 34.825C108.144 35.4596 108.006 36.1837 108.091 36.8993C108.197 38.576 109.422 40.1663 109.667 41.8257C109.911 43.4852 112.389 44.7758 111.107 45.8591C110.738 46.1731 106.956 47.0288 106.477 46.9538C105.829 46.853 105.4 46.2278 105.129 45.6315C103.838 42.7966 104.302 39.4835 103.539 36.4643C102.925 34.0356 101.542 31.8807 100.18 29.7776C99.8137 29.1648 99.3818 28.5939 98.8918 28.0749C98.4395 27.6312 97.8806 27.2481 97.6617 26.6546C97.4427 26.0611 97.846 25.2141 98.4712 25.3092C97.4622 24.3335 96.3764 23.4404 95.2244 22.6386C96.3652 21.1942 97.4811 19.7317 98.572 18.2508C98.9466 17.7438 99.3355 17.0985 99.0618 16.5223C98.9019 16.2583 98.6767 16.04 98.4078 15.8885L95.4289 13.8718C95.3626 12.5033 98.1485 13.0075 98.5778 11.714C98.6534 11.3702 98.6273 11.0118 98.5029 10.6826L97.4888 6.98342L101.341 8.72928C101.807 8.94247 102.306 9.15854 102.816 9.08364C103.833 8.93671 104.322 7.73247 104.374 6.70396C104.426 5.67546 104.262 4.56918 104.772 3.6732C106.516 3.60406 108.259 3.61654 110.001 3.71065C110.111 2.83399 109.879 1.94868 109.353 1.23879L122.225 0.524308C124.423 0.403307 126.682 0.290953 128.77 0.982384C129.479 1.21862 130.193 1.55857 130.937 1.47503C131.68 1.39148 132.429 0.705811 132.216 -0.00866699C134.145 1.08053 135.91 2.43858 137.456 4.02468C137.874 4.52194 138.379 4.93883 138.946 5.25484C139.522 5.52565 140.311 5.51413 140.749 5.03589C141.101 4.65272 141.277 3.98434 141.795 3.96129C142.118 3.96129 142.371 4.21482 142.576 4.47122C143.312 5.41278 143.911 6.45346 144.356 7.56249C145.28 7.43799 146.185 7.19995 147.05 6.85378C146.151 7.61147 146.128 9.02314 146.557 10.1179C146.987 11.2127 147.764 12.1346 148.286 13.1832C148.805 14.3095 149.153 15.5067 149.32 16.7355C149.582 18.2739 149.585 20.2128 148.22 20.9676C147.033 21.6245 145.56 20.9244 144.474 20.1033C141.484 17.8619 140.913 18.5188 138.491 20.9964Z" fill="#1F1B26"/>
<path d="M153.555 157.11L173.517 155.31C174.32 155.238 175.063 154.857 175.59 154.249C176.118 153.64 176.389 152.85 176.346 152.046L176.332 151.757C176.299 151.117 176.068 150.502 175.672 149.998C175.276 149.493 174.734 149.124 174.119 148.94L170.893 147.972C170.602 147.885 170.3 147.84 169.997 147.839H162.676C162.476 147.84 162.276 147.859 162.08 147.897C160.533 148.199 153.414 149.6 153.149 149.856C153.008 150 152.161 150.634 151.342 151.239C150.853 151.601 150.48 152.098 150.271 152.67C150.061 153.241 150.024 153.862 150.164 154.454L150.225 154.719C150.396 155.454 150.828 156.101 151.44 156.541C152.053 156.981 152.804 157.183 153.555 157.11Z" fill="#464A5F"/>
<path d="M143.806 150.87L151.873 148.565L166.854 146.549C166.854 146.549 176.361 143.956 177.225 152.022L176.418 153.388C176.418 153.388 177.225 148.277 167.43 149.718C167.43 149.718 149.818 149.127 150.559 156.056C150.559 156.05 144.382 154.903 143.806 150.87Z" fill="#FFF021"/>
<path d="M154.754 145.975C155.868 145.975 156.77 145.846 156.77 145.687C156.77 145.528 155.868 145.399 154.754 145.399C153.64 145.399 152.737 145.528 152.737 145.687C152.737 145.846 153.64 145.975 154.754 145.975Z" fill="#FFF021"/>
<path d="M172.76 145.831H171.319V148.424H172.76V145.831Z" fill="#FFF021"/>
<path d="M155.474 145.831H154.033V148.424H155.474V145.831Z" fill="#FFF021"/>
<path d="M173.898 146.066C174.04 145.695 173.192 145.025 172.003 144.569C170.814 144.114 169.735 144.046 169.593 144.417C169.451 144.789 170.299 145.459 171.488 145.914C172.676 146.37 173.755 146.438 173.898 146.066Z" fill="#FFF021"/>
<path d="M90.2288 150.447C90.8454 151.089 91.4734 151.743 92.2657 152.146C93.0496 152.494 93.8841 152.715 94.7375 152.8C103.465 154.145 112.162 155.649 120.827 157.312C123.268 157.784 125.725 158.274 128.03 159.222C129.205 159.709 130.335 160.314 131.487 160.824C138.113 163.731 145.604 163.543 152.832 163.301C154.247 163.255 155.713 163.198 156.989 162.607C157.943 162.172 158.816 161.345 158.902 160.302C159.052 158.49 156.992 157.421 155.347 156.641C151.42 154.788 147.998 151.775 145.929 147.955C145.561 147.28 145.261 146.373 145.779 145.803C146.168 145.376 146.828 145.373 147.407 145.396C149.827 145.49 152.247 145.465 154.667 145.321C155.92 145.244 157.58 144.65 157.381 143.414C157.295 142.884 156.857 142.489 156.442 142.144C154.261 140.311 151.786 138.424 148.937 138.479C147.442 138.508 146.016 139.078 144.616 139.559C137.073 142.118 128.952 142.259 120.992 142.207C119.044 142.207 117.082 142.17 115.175 141.772C113.609 141.402 112.074 140.907 110.586 140.294C105.757 138.453 100.909 136.601 96.4373 134.017C94.6597 132.991 92.6777 131.804 90.6956 132.331C89.8063 132.62 88.9971 133.113 88.3332 133.772C85.9737 135.904 83.9829 138.514 84.6542 141.786C85.337 145.226 87.8837 147.998 90.2288 150.447Z" fill="#FBBEBE"/>
<path d="M88.9438 94.8095C89.6871 97.2151 90.1221 99.7618 91.4013 101.931C92.7582 104.236 95.0169 106.022 95.8005 108.578C96.3536 110.387 96.0886 112.323 96.0886 114.221C96.0886 116.373 96.4948 118.592 97.6847 120.384C98.2839 121.288 99.0646 122.055 99.7474 122.899C102.775 126.644 103.709 131.645 104.086 136.439C101.205 134.809 97.8345 133.126 94.7144 134.247C93.4525 134.702 92.3866 135.578 91.3955 136.485C89.4723 138.241 87.7143 140.17 86.1435 142.247C85.3196 143.333 84.51 144.662 84.8673 145.975C83.1617 143.498 81.4332 141.003 80.1079 138.277C79.1687 136.33 78.4399 134.273 77.3134 132.423C75.896 130.098 73.8995 128.188 72.2199 126.045C68.4458 121.228 66.3283 115.264 65.2998 109.246C64.2713 103.228 64.2281 97.0624 64.2598 90.9432C64.2598 88.9266 64.303 86.8292 65.1529 84.9941C65.657 83.9022 66.4263 82.9572 67.1897 82.0267C68.1577 80.8426 69.1545 79.6355 70.4711 78.8576C74.66 76.3915 79.1543 80.4796 81.9546 83.277C85.1843 86.4981 87.5829 90.4558 88.9438 94.8095Z" fill="#192534"/>
<path d="M161.158 80.9809C161.546 81.3348 161.86 81.7629 162.08 82.2399C162.299 82.816 162.241 83.4499 162.195 84.0635C161.922 87.7173 162.181 91.3915 162.964 94.9708C163.434 97.1344 164.028 99.638 162.648 101.369C162.434 101.597 162.242 101.843 162.071 102.104C161.432 103.303 162.613 104.608 163.512 105.636C166.243 108.805 166.681 113.763 164.563 117.379C164.163 118.067 163.673 118.719 163.448 119.479C163.297 120.105 163.236 120.749 163.27 121.392L163.281 126.212C160.253 125.806 156.868 125.489 154.434 127.336C152.38 128.891 151.567 131.599 149.824 133.483C148.133 135.298 145.503 136.468 144.843 138.859L144.878 128.9C144.921 127.577 144.849 126.252 144.665 124.941C144.319 122.882 143.423 120.954 142.899 118.932C142.213 116.287 142.17 113.524 142.129 110.79C142.063 106.276 142 101.712 142.936 97.2957C143.319 95.498 143.864 93.7378 144.284 91.9487C145.048 88.722 145.437 85.3628 146.776 82.332C148.116 79.3013 150.746 76.5528 154.048 76.2273C157.525 75.8787 159 78.7251 161.158 80.9809Z" fill="#192534"/>
<path d="M174.054 145.615C175.019 145.059 174.962 143.155 173.928 141.364C172.894 139.572 171.274 138.572 170.309 139.129C169.344 139.685 169.401 141.589 170.435 143.38C171.469 145.172 173.09 146.172 174.054 145.615Z" fill="#FBBEBE"/>
<path opacity="0.1" d="M174.054 145.615C175.019 145.059 174.962 143.155 173.928 141.364C172.894 139.572 171.274 138.572 170.309 139.129C169.344 139.685 169.401 141.589 170.435 143.38C171.469 145.172 173.09 146.172 174.054 145.615Z" fill="black"/>
</g>
<defs>
<clipPath id="clip0">
<rect width="300" height="164.846" fill="white"/>
</clipPath>
</defs>
</svg>
