<svg width="608" height="321" viewBox="0 0 608 321" fill="none" xmlns="http://www.w3.org/2000/svg">
<g clip-path="url(#clip0)">
<path opacity="0.1" d="M561.384 253.831C560.706 255.279 560.031 256.708 559.357 258.118C558.306 260.307 557.269 262.454 556.245 264.559C555.79 265.491 555.335 266.407 554.891 267.322C549.87 277.499 545.181 286.501 541.199 293.903C537.586 300.611 532.221 306.231 525.666 310.175C519.111 314.119 511.608 316.241 503.942 316.32L415.397 317.276H414.463L406.873 317.357L400.38 317.426L380.47 317.641H379.664L369.528 317.751H369.219L306.744 318.423L250.978 319.002L244.492 319.072L204.204 319.506H204.158L178.029 319.784H177.749L95.1307 320.67L70.4153 320.937C65.141 320.996 59.8889 320.249 54.8434 318.724C46.0632 316.093 38.1723 311.136 32.0198 304.388C21.4049 292.785 13.6686 279.248 8.47211 264.559C7.72086 262.439 7.02021 260.292 6.37017 258.118C-11.619 197.789 10.3113 119.956 49.7812 67.8705C51.4355 65.6925 53.1171 63.5686 54.8259 61.4988L54.8668 61.4525C67.0055 46.6701 80.6156 34.3206 95.1132 25.5393C120.804 9.95183 149.268 5.56116 177.264 18.6463C200.952 29.7214 223.069 34.9289 244.509 36.3422C246.675 36.4812 248.841 36.5855 250.996 36.6492C300.176 38.1842 346.267 20.6041 400.392 9.25673C402.546 8.80492 404.707 8.35891 406.885 7.93606C445.496 0.3132 488.329 -3.70675 539.266 4.74442C544.558 5.60209 549.78 6.84109 554.891 8.45159C557.137 9.16985 559.301 9.94217 561.384 10.7686C585.696 20.581 598.956 38.7113 604.59 61.4293C605.124 63.5377 605.585 65.6829 605.974 67.8647C615.964 122.511 586.706 200.025 561.384 253.831Z" fill="#322BC2"/>
<g opacity="0.1">
<path opacity="0.1" d="M95.1132 25.5389V320.734L70.3978 321C65.1235 321.059 59.8714 320.313 54.8258 318.787V61.4521H54.8667C67.0055 46.6524 80.6156 34.3029 95.1132 25.5389Z" fill="#322BC2"/>
<path opacity="0.1" d="M606.003 67.8702H49.7811C51.4354 65.6922 53.117 63.5683 54.8258 61.4985V61.4521H604.619C605.153 63.549 605.614 65.6884 606.003 67.8702Z" fill="#322BC2"/>
<path opacity="0.1" d="M561.383 10.774V258.111H559.357C558.306 260.301 557.269 262.448 556.245 264.553C555.79 265.485 555.335 266.4 554.891 267.316V8.43384C557.137 9.1521 559.301 9.93215 561.383 10.774Z" fill="#322BC2"/>
<path opacity="0.1" d="M406.885 7.91833V317.38L400.392 317.449V9.23901C402.546 8.7872 404.707 8.34118 406.885 7.91833Z" fill="#322BC2"/>
<path opacity="0.1" d="M250.996 36.6315V319.06L244.509 319.129V36.3245C246.675 36.4635 248.841 36.5446 250.996 36.6315Z" fill="#322BC2"/>
<path opacity="0.1" d="M559.357 258.117C558.307 260.307 557.269 262.454 556.245 264.559H8.47205C7.7208 262.438 7.02015 260.291 6.3701 258.117H559.357Z" fill="#322BC2"/>
</g>
<path d="M134.641 153.981H123.548V187.38H134.641V153.981Z" fill="#3F3D56"/>
<path d="M433.194 152.243H422.1V187.577H433.194V152.243Z" fill="#3F3D56"/>
<path d="M503.942 309.114V316.644L415.24 317.455L414.294 317.472L380.581 317.779L379.775 317.791L369.528 317.878H369.225L306.762 318.451L204.228 319.396H204.14L178.07 319.639L177.79 319.645L61.949 320.699V312.01L89.1868 295.791L143.837 295.34L145.005 295.334L145.391 295.328L146.558 295.311L172.798 295.096L173.971 295.09L174.345 295.085L175.513 295.079L183.926 295.009L184.148 295.004L204.905 294.83H205.074L367.041 293.474L371.005 293.445H371.402L374.427 293.416L396.41 293.237L397.578 293.219L398.658 293.208H399.218L406.055 293.156L407.41 293.138L409.226 293.127L414.919 293.075L423.951 292.999L425.119 292.988L427.151 292.976H427.53L471.152 292.605L503.942 309.114Z" fill="#65617D"/>
<path opacity="0.2" d="M503.942 309.114V316.644L415.24 317.455L414.294 317.472L380.581 317.779L379.775 317.791L369.528 317.878H369.225L306.762 318.451L204.228 319.396H204.14L178.07 319.639L177.79 319.645L61.949 320.699V312.01L89.1868 295.791L143.837 295.34L145.005 295.334L145.391 295.328L146.558 295.311L172.798 295.096L173.971 295.09L174.345 295.085L175.513 295.079L183.926 295.009L184.148 295.004L204.905 294.83H205.074L367.041 293.474L371.005 293.445H371.402L374.427 293.416L396.41 293.237L397.578 293.219L398.658 293.208H399.218L406.055 293.156L407.41 293.138L409.226 293.127L414.919 293.075L423.951 292.999L425.119 292.988L427.151 292.976H427.53L471.152 292.605L503.942 309.114Z" fill="black"/>
<path d="M172.885 280.157V294.343C172.886 295.015 172.694 295.673 172.332 296.241C171.97 296.809 171.453 297.264 170.842 297.552C170.386 297.771 169.888 297.89 169.382 297.9L149.005 298.328C148.461 298.341 147.921 298.228 147.428 297.998C146.806 297.715 146.278 297.26 145.909 296.688C145.539 296.116 145.343 295.451 145.344 294.772V280.157H172.885Z" fill="#3F3D56"/>
<path opacity="0.1" d="M172.885 280.157V294.343C172.886 295.015 172.694 295.673 172.332 296.241C171.97 296.809 171.453 297.264 170.842 297.552C170.386 297.771 169.888 297.89 169.382 297.9L149.005 298.328C148.461 298.341 147.921 298.228 147.428 297.998C146.806 297.715 146.278 297.26 145.909 296.688C145.539 296.116 145.343 295.451 145.344 294.772V280.157H172.885Z" fill="black"/>
<path d="M174.053 280.157V294.343C174.053 295.015 173.861 295.673 173.5 296.241C173.138 296.809 172.621 297.264 172.009 297.552C171.554 297.771 171.056 297.89 170.55 297.9L150.173 298.328C149.628 298.341 149.089 298.228 148.596 297.998C147.973 297.715 147.446 297.26 147.076 296.688C146.707 296.116 146.511 295.451 146.512 294.772V280.157H174.053Z" fill="#3F3D56"/>
<path d="M425.119 280.157H397.578V298.404H425.119V280.157Z" fill="#3F3D56"/>
<path opacity="0.1" d="M425.119 280.157H397.578V298.404H425.119V280.157Z" fill="black"/>
<path d="M423.951 280.157H396.41V298.404H423.951V280.157Z" fill="#3F3D56"/>
<path opacity="0.1" d="M134.641 153.975V157.294L123.548 157.01V153.975H134.641Z" fill="black"/>
<path d="M207.661 60.4732L194.331 155.469C194.246 156.076 193.939 156.631 193.469 157.027C192.998 157.424 192.397 157.634 191.779 157.618L85.0471 154.873L83.0211 154.821C82.6683 154.812 82.3213 154.73 82.0026 154.58C81.6839 154.43 81.4007 154.214 81.1715 153.948C80.9424 153.682 80.7723 153.371 80.6725 153.035C80.5726 152.699 80.5453 152.347 80.5921 152L95.5568 52.5549C95.6533 51.9389 95.9791 51.3812 96.4699 50.9919C96.9606 50.6026 97.5807 50.4101 98.2076 50.4522L205.325 57.6465C205.671 57.6663 206.009 57.757 206.317 57.9129C206.625 58.0688 206.898 58.2864 207.118 58.552C207.337 58.8176 207.499 59.1254 207.592 59.4561C207.686 59.7868 207.709 60.1331 207.661 60.4732Z" fill="#65617D"/>
<path d="M102.721 57.4379L91.4347 145.095L189.526 148.182L201.588 63.6126L102.721 57.4379Z" fill="#322BC2"/>
<path d="M340.948 56.0825H227.67C225.951 56.0825 224.558 57.4648 224.558 59.1699V153.396C224.558 155.101 225.951 156.483 227.67 156.483H340.948C342.666 156.483 344.06 155.101 344.06 153.396V59.1699C344.06 57.4648 342.666 56.0825 340.948 56.0825Z" fill="#65617D"/>
<path d="M338.799 62.8423H230.198V146.445H338.799V62.8423Z" fill="#322BC2"/>
<path opacity="0.1" d="M433.194 152.237V154.432L422.1 154.658V152.237H433.194Z" fill="black"/>
<path d="M483.249 150.384C483.265 150.624 483.232 150.864 483.152 151.091C483.071 151.318 482.945 151.527 482.782 151.704C482.618 151.881 482.42 152.024 482.199 152.124C481.979 152.223 481.74 152.278 481.498 152.283L372.196 154.525C371.742 154.534 371.302 154.373 370.963 154.073C370.624 153.773 370.412 153.358 370.369 152.909L360.974 56.013C360.951 55.7726 360.977 55.53 361.051 55.3C361.126 55.0699 361.246 54.8572 361.405 54.6747C361.565 54.4922 361.76 54.3437 361.979 54.2382C362.198 54.1327 362.436 54.0724 362.679 54.0609L471.151 48.7087L472.319 48.6508C472.783 48.6265 473.239 48.7821 473.59 49.0847C473.94 49.3873 474.159 49.8133 474.199 50.2727L483.249 150.384Z" fill="#65617D"/>
<path d="M367.216 59.7549L466.282 54.924L474.649 142.969L376.365 145.286L367.216 59.7549Z" fill="#322BC2"/>
<path opacity="0.1" d="M483.249 150.384C483.265 150.623 483.232 150.864 483.152 151.091C483.071 151.318 482.946 151.526 482.782 151.704C482.618 151.881 482.42 152.024 482.2 152.124C481.979 152.223 481.74 152.278 481.498 152.283L471.152 48.7087L472.319 48.6508C472.784 48.6265 473.239 48.7821 473.59 49.0847C473.941 49.3873 474.159 49.8133 474.199 50.2727L483.249 150.384Z" fill="black"/>
<path opacity="0.1" d="M98.2252 50.4464L85.0471 154.873L83.0211 154.821C82.6683 154.812 82.3213 154.73 82.0026 154.58C81.6839 154.43 81.4007 154.214 81.1715 153.948C80.9424 153.682 80.7723 153.371 80.6725 153.035C80.5726 152.699 80.5453 152.347 80.5921 152L95.5568 52.5549C95.6522 51.9347 95.9799 51.373 96.4746 50.9821C96.9693 50.5912 97.5945 50.3999 98.2252 50.4464Z" fill="black"/>
<path opacity="0.1" d="M134.641 177.486H123.548V187.38H134.641V177.486Z" fill="black"/>
<path opacity="0.1" d="M174.053 280.152V283.03L146.512 283.76V280.152H174.053Z" fill="black"/>
<path d="M222.661 180.933V278.362C222.653 278.957 222.416 279.526 221.998 279.952C221.579 280.378 221.012 280.628 220.413 280.65L108.513 283.604H108.484C107.875 283.597 107.292 283.353 106.861 282.926C106.431 282.498 106.185 281.92 106.178 281.316V180.933C106.185 180.328 106.431 179.751 106.861 179.323C107.292 178.896 107.875 178.652 108.484 178.645H220.354C220.964 178.652 221.546 178.896 221.977 179.323C222.408 179.751 222.653 180.328 222.661 180.933Z" fill="#65617D"/>
<path opacity="0.1" d="M108.513 178.645V283.604H108.484C107.875 283.597 107.292 283.353 106.861 282.926C106.431 282.498 106.185 281.92 106.178 281.316V180.933C106.185 180.328 106.431 179.751 106.861 179.323C107.292 178.896 107.875 178.652 108.484 178.645H108.513Z" fill="black"/>
<path d="M113.622 184.866H217.26V270.739L113.622 273.056V184.866Z" fill="white"/>
<path opacity="0.1" d="M433.194 177.486H422.1V187.577H433.194V177.486Z" fill="black"/>
<path opacity="0.1" d="M423.951 280.152V283.865L396.41 283.135V280.152H423.951Z" fill="black"/>
<path d="M460.297 180.933V281.316C460.29 281.925 460.04 282.507 459.603 282.936C459.166 283.364 458.576 283.604 457.962 283.604L346.039 280.65C345.44 280.628 344.872 280.378 344.454 279.952C344.035 279.526 343.798 278.957 343.791 278.362V180.933C343.799 180.328 344.044 179.751 344.475 179.323C344.906 178.896 345.488 178.652 346.097 178.645H457.968C458.581 178.646 459.169 178.887 459.605 179.315C460.041 179.743 460.29 180.324 460.297 180.933Z" fill="#65617D"/>
<path opacity="0.1" d="M460.297 180.933V281.316C460.29 281.925 460.04 282.507 459.603 282.936C459.166 283.364 458.576 283.604 457.962 283.604V178.645C458.576 178.645 459.166 178.885 459.603 179.313C460.04 179.742 460.29 180.323 460.297 180.933Z" fill="black"/>
<path d="M452.853 184.866H349.215V270.739L452.853 273.056V184.866Z" fill="white"/>
<path d="M340.895 180.933V278.362C340.888 278.957 340.651 279.526 340.232 279.952C339.814 280.378 339.246 280.628 338.647 280.65L226.748 283.604C226.133 283.604 225.544 283.364 225.106 282.936C224.669 282.507 224.42 281.925 224.412 281.316V180.933C224.42 180.328 224.665 179.751 225.096 179.323C225.527 178.896 226.109 178.652 226.718 178.645H338.589C339.198 178.652 339.78 178.896 340.211 179.323C340.642 179.751 340.887 180.328 340.895 180.933Z" fill="#65617D"/>
<path d="M231.857 184.866H335.494V270.739L231.857 273.056V184.866Z" fill="white"/>
<path opacity="0.1" d="M503.942 309.114V316.644L415.24 317.455L414.294 317.472L380.581 317.779L379.775 317.791L369.528 317.878H369.225L306.762 318.451L204.228 319.396H204.14L178.07 319.639L177.79 319.645L61.949 320.699V312.01L180.189 311.24H180.47L204.403 311.078H204.514L369.797 309.994H369.966L370.065 309.989H370.34L373.137 309.971H373.989L417.482 309.682L420.051 309.67L420.623 309.664L503.942 309.114Z" fill="black"/>
<path d="M284.499 187.38C301.051 187.38 314.469 174.068 314.469 157.647C314.469 141.226 301.051 127.915 284.499 127.915C267.947 127.915 254.528 141.226 254.528 157.647C254.528 174.068 267.947 187.38 284.499 187.38Z" fill="#FBBEBE"/>
<path d="M314.475 218.468C314.475 218.468 256.379 225.419 261.926 218.468C263.935 215.954 264.489 208.505 264.378 200.019C264.343 197.441 264.25 194.771 264.116 192.112C263.473 179.369 261.926 166.915 261.926 166.915C261.926 166.915 312.723 143.166 306.884 161.992C304.549 169.597 305.314 180.278 307.089 190.305C307.608 193.23 308.21 196.098 308.84 198.82C310.379 205.46 312.26 212.018 314.475 218.468Z" fill="#FBBEBE"/>
<path opacity="0.1" d="M314.475 218.468C314.475 218.468 256.379 225.419 261.926 218.468C263.935 215.954 264.489 208.505 264.378 200.019C273.236 196.265 284.504 199.063 284.504 199.063C296.369 196.717 303.977 197.175 308.84 198.82C310.379 205.46 312.26 212.018 314.475 218.468Z" fill="black"/>
<path d="M204.204 320.05V319.564L306.744 318.457L369.219 317.878H369.394L369.33 318.735L369.417 317.878H369.528V317.779L370.328 309.989L370.632 307.04L370.725 306.119L370.807 305.349L374.415 293.411L378.024 281.49L381.06 271.451L385.696 256.113C385.696 256.113 383.068 250.031 381.609 248.293C380.149 246.556 378.689 234.681 378.689 234.681C378.689 234.681 366.229 222.905 360.782 221.55C358.499 220.97 353.991 220.2 349.204 219.233C347.411 218.873 345.572 218.491 343.803 218.074C342.804 217.848 341.823 217.611 340.883 217.373C339.054 216.92 337.251 216.367 335.482 215.717C334.555 215.382 333.673 214.937 332.855 214.39C328.564 211.268 317.809 210.915 317.394 210.915C317.393 210.901 317.393 210.888 317.394 210.874V210.822C317.409 210.579 317.409 210.335 317.394 210.092C317.394 209.86 317.394 209.588 317.342 209.281C317.342 209.189 317.342 209.09 317.301 208.992C317.271 208.783 317.236 208.563 317.184 208.331C317.166 208.228 317.143 208.125 317.114 208.024C316.945 207.326 316.7 206.648 316.384 206.003C316.343 205.91 316.291 205.811 316.244 205.719C315.958 205.184 315.626 204.674 315.251 204.195C315.175 204.097 315.094 203.993 315.006 203.894C314.528 203.335 313.996 202.823 313.418 202.365C313.26 202.243 313.097 202.116 312.927 202C312.833 201.924 312.734 201.854 312.63 201.792L312.11 201.456L311.625 201.178C311.199 200.946 310.75 200.72 310.259 200.506C310.107 200.436 309.944 200.372 309.78 200.309C309.617 200.245 309.36 200.146 309.144 200.065H309.109L308.671 199.892C308.338 199.782 308 199.683 307.643 199.585L307.1 199.446L306.516 199.312L305.933 199.191C305.349 199.075 304.724 198.971 304.07 198.89L303.404 198.808L302.721 198.739L302.015 198.681L301.011 198.623L299.843 198.583C294.693 198.582 289.557 199.124 284.522 200.199C281.024 199.426 277.441 199.099 273.86 199.225H273.352L272.769 199.26H272.395L271.642 199.33C271.391 199.33 271.134 199.382 270.883 199.417C270.632 199.451 270.369 199.48 270.118 199.521L269.732 199.585C269.353 199.648 268.968 199.718 268.565 199.799C268.436 199.822 268.308 199.851 268.179 199.886C267.671 199.996 267.163 200.129 266.661 200.28C266.41 200.349 266.159 200.43 265.908 200.517C265.78 200.552 265.657 200.598 265.534 200.645L265.161 200.778L264.793 200.923L264.355 201.096C264.133 201.189 263.917 201.288 263.701 201.392C263.578 201.444 263.456 201.502 263.339 201.566C263.222 201.629 263.1 201.681 262.989 201.745C261.668 202.422 260.448 203.276 259.363 204.282L259.065 204.566L258.773 204.862C258.674 204.96 258.58 205.064 258.487 205.169C258.106 205.581 257.752 206.016 257.424 206.472C257.331 206.593 257.243 206.715 257.156 206.843C256.785 207.385 256.45 207.95 256.151 208.534C256.076 208.673 256.006 208.818 255.935 208.957C255.459 209.935 255.068 210.953 254.768 211.998C254.659 212.384 254.559 212.77 254.47 213.156C254.47 213.156 242.109 218.566 231.856 222.482C229.13 223.525 226.561 224.469 224.412 225.181C223.787 225.39 223.203 225.581 222.66 225.761C221.482 226.183 220.257 226.463 219.011 226.595C218.424 226.604 217.838 226.659 217.26 226.757C212.548 227.516 204.473 230.812 203.591 234.119C203.52 234.383 203.5 234.659 203.533 234.93C203.533 234.93 203.533 234.971 203.533 234.994C204.117 239.049 200.03 238.469 200.03 238.469C200.03 238.469 198.57 249.185 196.526 252.082C195.049 254.167 194.039 258.818 193.911 262.328C193.837 263.422 193.924 264.52 194.167 265.59C194.167 265.618 194.167 265.647 194.167 265.671C194.401 266.447 193.84 268.567 192.889 271.284C191.855 274.267 190.349 277.974 188.901 281.472C186.717 286.755 184.662 291.551 184.533 292.605C184.481 293.075 184.329 293.915 184.119 294.998C183.266 299.412 181.375 307.816 180.441 311.217C179.746 313.754 178.736 317.229 178.041 319.616C178.041 319.685 178 319.755 177.982 319.818L204.157 319.564V320.05H204.239H204.204Z" fill="#322BC2"/>
<path opacity="0.1" d="M213.756 251.774C213.756 251.774 247.037 268.862 259.007 266.835L213.756 251.774Z" fill="black"/>
<path opacity="0.1" d="M281.486 244.823C281.486 244.823 313.891 255.25 324.692 256.698C335.494 258.146 281.486 244.823 281.486 244.823Z" fill="black"/>
<path opacity="0.1" d="M317.429 211.274C300.497 214.367 268.617 213.701 254.838 213.232C259.888 195.275 284.516 201.38 284.516 201.38C315 195.344 317.336 207.868 317.429 211.274Z" fill="black"/>
<path d="M317.429 210.115C300.497 213.208 268.617 212.542 254.838 212.073C259.888 194.117 284.516 200.222 284.516 200.222C315 194.186 317.336 206.709 317.429 210.115Z" fill="#322BC2"/>
<path d="M407.311 289.28C407.311 289.28 427.256 286.239 427.647 294.928C428.038 303.617 417.476 309.687 417.476 309.687L407.311 289.28Z" fill="#FBBEBE"/>
<path opacity="0.1" d="M307.089 190.305C306.231 190.685 305.354 191.022 304.461 191.313C298.167 193.468 291.82 195.64 285.193 196.428C278.566 197.215 271.613 196.52 265.832 193.242C265.225 192.902 264.64 192.525 264.081 192.112C263.438 179.369 261.891 166.915 261.891 166.915C261.891 166.915 312.688 143.166 306.849 161.992C304.526 169.597 305.314 180.278 307.089 190.305Z" fill="black"/>
<path d="M276.278 111.174C275.444 111.393 274.571 111.415 273.728 111.239C272.884 111.063 272.094 110.694 271.42 110.161L272.634 111.835C271.919 111.917 271.193 111.843 270.51 111.617C269.826 111.392 269.2 111.022 268.676 110.531C268.565 112.03 268.628 113.536 268.862 115.021C266.853 115.117 264.874 114.501 263.281 113.283C263.249 113.805 263.381 114.325 263.656 114.771C263.932 115.218 264.339 115.57 264.822 115.779C262.803 115.54 260.766 116.038 259.09 117.179C257.414 118.321 256.214 120.028 255.714 121.983L258.761 122.261C256.366 122.769 254.216 124.07 252.666 125.951C251.732 127.109 251.019 128.592 251.428 130.006C251.837 131.419 253.81 132.323 254.884 131.315C253.356 133.124 252.246 135.244 251.63 137.524C251.015 139.804 250.91 142.191 251.323 144.516C251.6 145.506 251.691 146.539 251.591 147.563C251.399 148.518 250.792 149.347 250.488 150.279C249.904 151.971 250.459 153.807 250.978 155.492L253.717 164.424C254.709 167.651 255.696 170.883 256.992 174.005C257.91 175.979 258.69 178.013 259.328 180.093C260.063 182.897 260.093 185.967 261.663 188.417C262.74 189.959 264.179 191.217 265.855 192.083C271.63 195.362 278.607 196.057 285.217 195.269C291.826 194.481 298.167 192.309 304.455 190.154C305.852 189.737 307.193 189.154 308.449 188.417C312.799 185.59 313.768 179.809 314.58 174.718C315.485 169.041 316.693 163.376 318.836 158.035C320.109 154.855 321.756 151.629 321.475 148.223C321.119 143.699 317.511 140.032 316.617 135.584C316.318 134.097 316.332 132.565 316.658 131.083C316.935 130.2 317.091 129.285 317.12 128.361C317.02 126.495 315.479 125.059 314.031 123.86C310.89 121.257 307.647 118.797 304.304 116.48C304.134 115.322 305.722 114.824 306.441 113.908C307.456 112.617 306.406 110.566 304.864 109.964C303.323 109.361 301.594 109.755 299.989 110.155C300.093 109.34 299.93 108.513 299.523 107.797C299.115 107.081 298.486 106.515 297.729 106.182C296.971 105.85 296.125 105.769 295.317 105.951C294.51 106.134 293.783 106.57 293.245 107.195C292.819 106.225 292.137 105.386 291.273 104.767C290.408 104.147 289.391 103.77 288.329 103.673C284.458 103.372 284.382 106.309 281.906 107.925C279.431 109.541 277.387 107.409 275.484 105.857C275.134 106.734 275.023 107.688 275.162 108.621C275.302 109.555 275.686 110.435 276.278 111.174Z" fill="#3F3D56"/>
<path d="M422.1 306.658C422.1 306.658 421.581 307.886 420.623 309.664C419.175 312.4 417.411 314.96 415.368 317.293L415.21 317.461H414.265L380.552 317.768H379.746L379.647 317.652L373.107 309.954L370.643 307.052L370.544 306.93L370.334 306.687L370.217 306.548L370.065 306.368L365.272 300.726L367.023 293.486L370.007 281.287L370.083 280.992L370.667 278.675L371.081 276.937L372.471 271.272L377.235 251.78L385.701 256.125L394.629 271.764L399.423 280.163H402.05C402.546 280.163 403.685 281.113 404.829 282.208C405.238 282.596 405.647 283.007 405.997 283.366C407.036 284.432 407.86 285.348 407.86 285.348C407.86 285.348 412.116 285.44 413.26 288.765C413.319 288.926 413.368 289.09 413.406 289.257C413.786 290.564 414.28 291.836 414.884 293.057C415.637 294.685 416.583 296.533 417.54 298.381C419.321 301.769 421.131 304.995 421.797 306.166L421.878 306.31L422.1 306.658Z" fill="#322BC2"/>
<path opacity="0.1" d="M371.946 280.505L371.887 281.333V281.391L371.788 282.723L371.011 293.445L370.071 306.363L369.803 310L369.219 317.785V317.884L306.744 318.463L204.222 319.563V320.05H204.14V319.563V319.401L204.403 311.083L204.905 294.83L205.337 281.049L205.378 279.677C205.403 278.848 205.599 278.033 205.952 277.282C206.306 276.531 206.81 275.859 207.434 275.308C208.058 274.757 208.789 274.337 209.582 274.076C210.375 273.814 211.213 273.715 212.046 273.786C214.802 274.017 218.381 274.301 222.661 274.602L224.412 274.73C249.128 276.433 294.804 278.634 340.895 275.888C341.864 275.836 342.839 275.778 343.814 275.709C350.961 275.263 358.102 274.689 365.173 273.971C366.066 273.878 366.97 273.981 367.819 274.272C368.669 274.563 369.444 275.035 370.09 275.655C370.735 276.275 371.236 277.028 371.557 277.861C371.877 278.694 372.01 279.587 371.946 280.476V280.505Z" fill="black"/>
<path d="M204.204 320.05V319.563L306.744 318.457L369.219 317.878H369.394V317.779L369.978 309.994L370.229 306.519L371.186 293.422L371.94 283.054V282.799C371.974 282.321 371.953 281.841 371.875 281.368C371.879 281.349 371.879 281.329 371.875 281.31C371.715 280.332 371.314 279.409 370.708 278.622C370.065 277.804 369.222 277.163 368.26 276.757C367.298 276.352 366.247 276.196 365.208 276.305C358.137 277.024 350.996 277.597 343.849 278.043C342.874 278.113 341.899 278.171 340.93 278.223C294.839 280.939 249.162 278.738 224.447 277.064L222.695 276.937C218.416 276.636 214.837 276.358 212.081 276.12C210.565 275.993 209.055 276.428 207.843 277.34C206.631 278.253 205.803 279.578 205.518 281.061C205.459 281.375 205.424 281.692 205.413 282.011L205.016 294.847L204.473 311.106L204.216 319.424V319.587V320.073L204.204 320.05Z" fill="#3F3D56"/>
<path opacity="0.1" d="M372.121 284.565L371.402 293.445L370.334 306.681L370.065 309.994L369.482 317.414L369.447 317.785V317.884L369.359 318.741L369.423 317.884H369.254L306.779 318.463L204.222 319.563V319.401L204.508 311.083L205.092 294.83L205.465 284.027C205.484 283.412 205.657 282.812 205.969 282.281C206.281 281.75 206.722 281.304 207.252 280.986C207.913 280.584 208.686 280.401 209.459 280.464C210.685 280.563 212.192 280.679 213.949 280.806C216.804 281.015 220.325 281.258 224.424 281.513C232.014 281.988 241.537 282.498 252.45 282.915C282.811 284.073 323.799 284.461 362.732 281.078C364.484 280.928 366.294 280.76 368.063 280.592C368.763 280.523 369.469 280.655 370.095 280.974C370.272 281.062 370.44 281.167 370.597 281.287C371.105 281.652 371.508 282.144 371.764 282.712C371.824 282.825 371.873 282.943 371.91 283.065C372.086 283.545 372.157 284.056 372.121 284.565Z" fill="black"/>
<path opacity="0.1" d="M174.053 292.495V294.343C174.053 295.015 173.861 295.673 173.5 296.241C173.138 296.809 172.621 297.264 172.009 297.552L148.596 297.998C147.973 297.715 147.446 297.26 147.076 296.688C146.707 296.116 146.511 295.451 146.512 294.772V293.034L174.053 292.495Z" fill="black"/>
<path d="M174.345 298.641L143.837 299.22V294.198L174.345 293.619V298.641Z" fill="#3F3D56"/>
<path opacity="0.1" d="M174.345 298.641L143.837 299.22V294.198L174.345 293.619V298.641Z" fill="black"/>
<path d="M175.513 298.641L145.005 299.22V294.198L175.513 293.619V298.641Z" fill="#3F3D56"/>
<g opacity="0.1">
<path opacity="0.1" d="M276.517 109.275C275.947 108.539 275.568 107.676 275.414 106.761C275.273 107.655 275.357 108.571 275.659 109.425C275.949 109.399 276.236 109.348 276.517 109.275Z" fill="black"/>
<path opacity="0.1" d="M269.102 113.121C268.992 112.411 268.92 111.695 268.886 110.978C268.886 111.69 268.886 112.408 268.886 113.127L269.102 113.121Z" fill="black"/>
<path opacity="0.1" d="M316.688 132.45C316.72 131.934 316.79 131.421 316.898 130.915C317.174 130.034 317.331 129.121 317.365 128.198C317.352 127.991 317.321 127.786 317.271 127.584C317.172 128.117 317.015 128.65 316.898 129.177C316.665 130.252 316.594 131.355 316.688 132.45Z" fill="black"/>
<path opacity="0.1" d="M304.543 114.552L305.18 115.009C305.716 114.624 306.218 114.194 306.68 113.723C306.9 113.422 307.036 113.068 307.075 112.698C307.114 112.328 307.054 111.955 306.902 111.615C306.844 111.747 306.769 111.871 306.68 111.985C305.962 112.901 304.374 113.405 304.543 114.552Z" fill="black"/>
<path opacity="0.1" d="M256.566 120.124C256.353 120.546 256.183 120.989 256.058 121.444C256.971 120.939 257.955 120.57 258.977 120.35L256.566 120.124Z" fill="black"/>
<path opacity="0.1" d="M264.618 113.822C264.234 113.612 263.867 113.374 263.52 113.109C263.505 113.338 263.523 113.568 263.573 113.793C263.921 113.776 264.271 113.786 264.618 113.822Z" fill="black"/>
<path opacity="0.1" d="M321.703 147.951C321.464 150.76 320.144 153.465 319.076 156.13C316.933 161.47 315.724 167.135 314.819 172.818C314.008 177.909 313.068 183.69 308.689 186.511C307.437 187.253 306.098 187.836 304.701 188.249C298.407 190.409 292.06 192.576 285.433 193.363C278.806 194.151 271.852 193.462 266.072 190.183C264.396 189.316 262.957 188.058 261.879 186.517C260.32 184.067 260.291 180.997 259.544 178.193C258.907 176.111 258.126 174.075 257.208 172.099C255.918 168.983 254.925 165.728 253.939 162.524C253.024 159.547 252.111 156.568 251.2 153.587C250.9 152.69 250.678 151.77 250.535 150.835C250.307 152.318 250.751 153.871 251.2 155.324C252.111 158.31 253.024 161.289 253.939 164.262C254.925 167.489 255.918 170.721 257.208 173.837C258.126 175.813 258.907 177.849 259.544 179.931C260.28 182.734 260.309 185.804 261.879 188.255C262.957 189.795 264.396 191.054 266.072 191.921C271.852 195.2 278.823 195.889 285.433 195.101C292.042 194.313 298.383 192.147 304.701 189.986C306.098 189.574 307.437 188.99 308.689 188.249C313.038 185.428 314.008 179.647 314.819 174.555C315.724 168.873 316.933 163.208 319.076 157.867C320.349 154.693 321.995 151.467 321.715 148.055C321.715 148.02 321.703 147.985 321.703 147.951Z" fill="black"/>
<path opacity="0.1" d="M251.819 145.709C251.819 145.709 251.819 145.668 251.819 145.645C251.925 144.624 251.833 143.592 251.551 142.604C251.434 141.969 251.358 141.326 251.323 140.681C251.256 141.906 251.332 143.135 251.551 144.342C251.644 144.794 251.749 145.251 251.819 145.709Z" fill="black"/>
<path opacity="0.1" d="M253.6 131.541C254.049 130.792 254.559 130.081 255.124 129.415C254.055 130.428 252.082 129.525 251.667 128.117C251.515 128.687 251.515 129.286 251.667 129.855C251.811 130.28 252.066 130.66 252.405 130.956C252.744 131.252 253.157 131.454 253.6 131.541Z" fill="black"/>
</g>
<path opacity="0.1" d="M399.428 280.157C399.428 280.157 401.279 286.819 399.428 292.611C397.578 298.404 399.428 280.157 399.428 280.157Z" fill="black"/>
<path opacity="0.1" d="M407.311 286.952C407.311 286.952 408.087 295.409 406.336 296.909C404.584 298.409 407.311 286.952 407.311 286.952Z" fill="black"/>
<path d="M116.185 198.6L175.513 198.021" stroke="#322BC2" stroke-width="2" stroke-miterlimit="10"/>
<path d="M116.185 205.823L175.513 205.25" stroke="#322BC2" stroke-width="2" stroke-miterlimit="10"/>
<path d="M116.185 213.052L175.513 212.473" stroke="#322BC2" stroke-width="2" stroke-miterlimit="10"/>
</g>
<defs>
<clipPath id="clip0">
<rect width="608" height="321" fill="white"/>
</clipPath>
</defs>
</svg>
