<svg width="300" height="168" viewBox="0 0 300 168" fill="none" xmlns="http://www.w3.org/2000/svg">
<g clip-path="url(#clip0)">
<path opacity="0.1" d="M300 109.172C300.016 117.851 297.647 126.368 293.151 133.791C293.151 142.87 288.918 151.099 282.053 157.096C280.334 158.595 278.484 159.936 276.525 161.103C276.446 161.153 276.365 161.2 276.283 161.247C276.137 161.334 275.99 161.42 275.84 161.51L275.701 161.591C275.074 161.945 274.435 162.286 273.782 162.606C267.765 165.565 261.144 167.09 254.439 167.064H56.9503C55.3769 167.064 53.8174 167.001 52.272 166.875C46.7798 166.442 41.383 165.193 36.2597 163.167C35.2597 162.772 34.279 162.347 33.3174 161.892C32.8594 161.677 32.4057 161.456 31.9564 161.229C31.6758 161.087 31.3952 160.941 31.1172 160.794C29.4306 159.897 27.7968 158.904 26.2239 157.82C24.7864 156.836 23.4032 155.775 22.0805 154.642C13.1566 146.984 7.63647 136.387 7.63647 124.694C2.63443 116.992 -0.0188276 108 0.000100571 98.8164C0.000100571 72.8182 20.7798 51.7421 46.4162 51.7421C47.2029 51.7421 47.9896 51.7657 48.7763 51.8077C48.8891 51.8077 48.9992 51.8077 49.112 51.8234C53.4337 44.4572 59.2108 37.6888 66.1575 31.7308C85.1015 15.4983 112.789 5.26575 143.63 5.26575C169.545 5.26575 193.233 12.4904 211.377 24.4275C218.252 20.5408 226.018 18.5033 233.916 18.514C259.547 18.514 280.332 39.59 280.332 65.5883C280.329 67.2333 280.241 68.877 280.07 70.5131C286.249 74.8867 291.284 80.6821 294.753 87.4104C298.222 94.1387 300.021 101.602 300 109.172Z" fill="#FFF021"/>
<path opacity="0.1" d="M238.817 71.8453V69.0315C241.018 68.1379 242.84 66.5071 243.971 64.4181C245.101 62.3292 245.471 59.9121 245.016 57.5808C244.56 55.2495 243.309 53.149 241.475 51.6388C239.642 50.1287 237.34 49.303 234.965 49.303C232.59 49.303 230.288 50.1287 228.455 51.6388C226.621 53.149 225.37 55.2495 224.914 57.5808C224.459 59.9121 224.829 62.3292 225.959 64.4181C227.09 66.5071 228.912 68.1379 231.113 69.0315V71.8453C228.547 72.5585 226.229 73.9681 224.415 75.9179C222.494 73.0358 219.602 70.94 216.265 70.0123V67.1958C218.466 66.3023 220.287 64.6714 221.418 62.5825C222.549 60.4935 222.918 58.0765 222.463 55.7452C222.008 53.4138 220.756 51.3133 218.923 49.8032C217.089 48.293 214.788 47.4673 212.412 47.4673C210.037 47.4673 207.736 48.293 205.902 49.8032C204.069 51.3133 202.817 53.4138 202.362 55.7452C201.907 58.0765 202.276 60.4935 203.407 62.5825C204.538 64.6714 206.359 66.3023 208.56 67.1958V70.0097C206.279 70.643 204.189 71.8282 202.474 73.4607C200.56 70.8921 197.847 69.0324 194.761 68.174V65.3602C196.962 64.4666 198.784 62.8357 199.915 60.7468C201.045 58.6579 201.415 56.2408 200.96 53.9095C200.504 51.5782 199.253 49.4776 197.419 47.9675C195.586 46.4574 193.284 45.6316 190.909 45.6316C188.534 45.6316 186.232 46.4574 184.399 47.9675C182.565 49.4776 181.314 51.5782 180.858 53.9095C180.403 56.2408 180.773 58.6579 181.903 60.7468C183.034 62.8357 184.856 64.4666 187.057 65.3602V68.174C184.432 68.9056 182.068 70.3658 180.239 72.3855C179.423 70.2949 178.132 68.423 176.467 66.9182C174.803 65.4133 172.811 64.317 170.648 63.716V60.9021C172.849 60.0086 174.671 58.3777 175.802 56.2888C176.933 54.1998 177.302 51.7828 176.847 49.4515C176.392 47.1201 175.14 45.0196 173.307 43.5095C171.473 41.9993 169.172 41.1736 166.796 41.1736C164.421 41.1736 162.119 41.9993 160.286 43.5095C158.452 45.0196 157.201 47.1201 156.746 49.4515C156.29 51.7828 156.66 54.1998 157.791 56.2888C158.921 58.3777 160.743 60.0086 162.944 60.9021V63.716C160.134 64.4984 157.627 66.1145 155.754 68.3509C153.882 70.5874 152.731 73.3392 152.454 76.243C151.131 75.3243 149.662 74.6354 148.109 74.2055V71.3917C150.31 70.4981 152.132 68.8672 153.263 66.7783C154.393 64.6893 154.763 62.2723 154.307 59.941C153.852 57.6097 152.601 55.5091 150.767 53.999C148.934 52.4889 146.632 51.6631 144.257 51.6631C141.882 51.6631 139.58 52.4889 137.747 53.999C135.913 55.5091 134.662 57.6097 134.206 59.941C133.751 62.2723 134.12 64.6893 135.251 66.7783C136.382 68.8672 138.204 70.4981 140.405 71.3917V74.2055C138.446 74.751 136.624 75.7032 135.058 76.9999C133.492 78.2967 132.217 79.909 131.315 81.7317C130.1 80.9509 128.774 80.3585 127.382 79.9747V77.1609C129.583 76.2673 131.405 74.6364 132.535 72.5475C133.666 70.4586 134.035 68.0415 133.58 65.7102C133.125 63.3789 131.873 61.2783 130.04 59.7682C128.206 58.2581 125.905 57.4323 123.53 57.4323C121.154 57.4323 118.853 58.2581 117.019 59.7682C115.186 61.2783 113.934 63.3789 113.479 65.7102C113.024 68.0415 113.393 70.4586 114.524 72.5475C115.655 74.6364 117.476 76.2673 119.677 77.1609V79.9747C118.364 80.3372 117.109 80.8865 115.951 81.6058C115.044 79.813 113.773 78.229 112.219 76.9549C110.665 75.6807 108.863 74.7443 106.927 74.2055V71.3917C109.128 70.4981 110.95 68.8672 112.081 66.7783C113.211 64.6893 113.581 62.2723 113.126 59.941C112.67 57.6097 111.419 55.5091 109.585 53.999C107.752 52.4889 105.45 51.6631 103.075 51.6631C100.7 51.6631 98.3983 52.4889 96.5648 53.999C94.7312 55.5091 93.4797 57.6097 93.0245 59.941C92.5693 62.2723 92.9387 64.6893 94.0694 66.7783C95.2002 68.8672 97.0219 70.4981 99.2228 71.3917V74.2055C97.1394 74.785 95.2127 75.8247 93.5847 77.2481C91.9567 78.6714 90.6689 80.442 89.8163 82.4292C88.3498 81.3035 86.6805 80.4702 84.8994 79.9747V77.1609C87.1002 76.2673 88.922 74.6364 90.0528 72.5475C91.1835 70.4586 91.5529 68.0415 91.0977 65.7102C90.6425 63.3789 89.3909 61.2783 87.5574 59.7682C85.7239 58.2581 83.4224 57.4323 81.0471 57.4323C78.6718 57.4323 76.3703 58.2581 74.5368 59.7682C72.7033 61.2783 71.4518 63.3789 70.9965 65.7102C70.5413 68.0415 70.9107 70.4586 72.0414 72.5475C73.1722 74.6364 74.994 76.2673 77.1948 77.1609V79.9747C74.1556 80.817 71.4763 82.6323 69.5671 85.1425C67.6579 87.6527 66.6241 90.7195 66.624 93.8733V158.908H95.4544V153.139H109.091V158.908H137.937V153.139H158.654V142.65H176.486V147.108H197.989V148.943H220.542V150.779H249.388V85.7439C249.388 82.5902 248.354 79.5234 246.445 77.0131C244.536 74.5029 241.856 72.6877 238.817 71.8453Z" fill="#FFF021"/>
<path d="M128.701 44.3182H152.677C158.542 44.3179 164.349 45.4726 169.766 47.7166C175.184 49.9605 180.107 53.2496 184.254 57.3961C188.401 61.5426 191.69 66.4654 193.935 71.8832C196.179 77.301 197.334 83.1078 197.334 88.9721V149.476H84.0471V88.9721C84.0471 77.1292 88.7517 65.7713 97.1259 57.397C105.5 49.0228 116.858 44.3182 128.701 44.3182Z" fill="#2F2E41"/>
<path opacity="0.2" d="M131.324 46.7517H150.055C155.919 46.7514 161.726 47.9061 167.144 50.15C172.562 52.3939 177.485 55.6831 181.632 59.8296C185.779 63.9761 189.068 68.8988 191.312 74.3167C193.557 79.7345 194.712 85.5413 194.712 91.4056V147.039H86.6697V91.4056C86.6697 79.5626 91.3743 68.2047 99.7485 59.8305C108.123 51.4563 119.481 46.7517 131.324 46.7517Z" fill="black"/>
<path d="M273.776 158.022V162.6C267.759 165.559 261.139 167.085 254.434 167.059H56.9503C55.3768 167.059 53.8174 166.996 52.272 166.87C46.7798 166.437 41.3829 165.187 36.2597 163.162C35.2597 162.767 34.2789 162.342 33.3174 161.887C32.8594 161.672 32.4057 161.451 31.9564 161.224C31.6758 161.082 31.3952 160.935 31.1172 160.788C29.4307 159.893 27.7969 158.902 26.2239 157.82V145.385C26.2239 143.375 27.0223 141.447 28.4436 140.026C29.8649 138.604 31.7926 137.806 33.8025 137.806H251.782C253.616 137.809 255.386 138.477 256.765 139.686L271.188 152.326C272 153.036 272.652 153.912 273.098 154.894C273.544 155.876 273.776 156.943 273.776 158.022Z" fill="#2F2E41"/>
<path d="M126.574 59.216C120.856 59.5936 115.159 60.2055 109.484 61.0517C107.871 61.2929 106.235 61.5604 104.764 62.2737C103.621 62.8724 102.567 63.6279 101.633 64.5184C97.4203 68.2924 94.0284 72.8919 91.6678 78.0315C90.2071 81.2177 89.1582 84.5875 87.7814 87.7999C82.8802 99.2728 73.9903 108.656 68.8164 120.008C67.6966 122.465 66.7526 125.03 66.3776 127.702C65.9895 130.466 66.43 133.691 68.701 135.307C69.7499 136.049 71.0244 136.356 72.2727 136.618C87.9864 140.098 103.883 142.694 119.887 144.393C118.154 142.72 117.574 140.127 117.802 137.73C118.031 135.333 118.972 133.067 119.9 130.846C110.843 128.848 101.808 126.75 92.7954 124.553C91.4501 124.225 89.8347 123.608 89.6695 122.234C89.5856 121.534 89.9318 120.86 90.2727 120.244C94.1163 113.284 98.7253 106.775 104.014 100.838C104.014 108.197 103.649 116.507 103.649 123.868H188.641C187.619 119.668 187.018 115.377 186.847 111.058C186.451 96.9599 191.198 82.9695 189.965 68.9004C189.85 67.6023 189.671 66.2649 188.992 65.1531C187.82 63.2335 185.481 62.4389 183.33 61.7833C175.086 59.2763 166.668 56.7405 158.051 56.9371C155.489 56.9975 152.937 57.2964 150.391 57.598C142.631 58.5132 134.371 58.6994 126.574 59.216Z" fill="#FFF021"/>
<path d="M86.7691 143.79L92.958 163.597C92.9975 163.722 93.0761 163.832 93.1822 163.91C93.2883 163.988 93.4164 164.03 93.548 164.03H120.105L113.811 140.953L87.3094 142.99C87.217 142.998 87.1276 143.026 87.0477 143.073C86.9677 143.12 86.8993 143.184 86.8475 143.261C86.7956 143.337 86.7617 143.425 86.7481 143.517C86.7346 143.608 86.7417 143.702 86.7691 143.79Z" fill="#656478"/>
<path d="M132.168 67.7333C131.014 68.3968 129.669 68.6354 128.357 68.8636L119.895 70.3321C118.248 70.618 116.515 70.9431 115.246 72.0314C112.649 74.2526 113.211 78.3409 113.997 81.666L115.571 88.3374C116.756 93.3513 117.968 98.4257 120.399 102.968C124.644 110.895 132.433 116.604 140.997 119.355C144.058 120.338 147.291 120.978 150.485 120.627C156.742 119.94 162.094 115.479 165.393 110.116C168.692 104.753 170.263 98.5332 171.703 92.402C173.085 86.5332 174.399 80.5804 174.309 74.5489C174.283 72.6713 174.094 70.7097 173.093 69.118C170.898 65.6223 165.923 65.3601 161.845 66.0052C161.211 66.1075 160.552 66.2176 159.941 66.0262C158.106 65.4545 158.064 62.9344 157.277 61.1853C155.79 57.8863 151.379 57.3015 147.774 57.6005C144.168 57.8994 138.553 58.2849 135.412 60.3277C132.391 62.2814 135.711 65.6905 132.168 67.7333Z" fill="#FBBEBE"/>
<path opacity="0.1" d="M132.168 67.7333C131.014 68.3968 129.669 68.6354 128.357 68.8636L119.895 70.3321C118.248 70.618 116.515 70.9431 115.246 72.0314C112.649 74.2526 113.211 78.3409 113.997 81.666L115.571 88.3374C116.756 93.3513 117.968 98.4257 120.399 102.968C124.644 110.895 132.433 116.604 140.997 119.355C144.058 120.338 147.291 120.978 150.485 120.627C156.742 119.94 162.094 115.479 165.393 110.116C168.692 104.753 170.263 98.5332 171.703 92.402C173.085 86.5332 174.399 80.5804 174.309 74.5489C174.283 72.6713 174.094 70.7097 173.093 69.118C170.898 65.6223 165.923 65.3601 161.845 66.0052C161.211 66.1075 160.552 66.2176 159.941 66.0262C158.106 65.4545 158.064 62.9344 157.277 61.1853C155.79 57.8863 151.379 57.3015 147.774 57.6005C144.168 57.8994 138.553 58.2849 135.412 60.3277C132.391 62.2814 135.711 65.6905 132.168 67.7333Z" fill="black"/>
<path d="M125.163 75.2491C126.443 77.9344 127.403 80.7823 128.95 83.3234C130.18 85.3426 131.756 87.1232 133.324 88.8933C137.386 93.4878 141.501 98.1189 146.528 101.617C148.61 90.9222 153.639 81.0219 161.048 73.0332C163.214 70.7072 165.926 68.4152 169.104 68.5017C171.076 68.5568 172.896 69.535 174.538 70.6232C176.373 71.8374 178.109 73.2456 179.428 74.9947C181.513 77.7797 182.413 81.3068 182.575 84.7815C182.738 88.2561 182.198 91.7229 181.663 95.1582L178.909 112.914C178.749 113.942 178.526 115.078 177.687 115.694C177.21 115.996 176.673 116.189 176.114 116.26C166.104 118.209 155.788 116.945 145.589 116.845C134.313 116.738 122.725 118.023 112.044 114.435C111.485 114.246 110.906 114.029 110.528 113.58C110.28 113.242 110.102 112.858 110.003 112.45C107.515 104.394 109.51 95.7378 110.987 87.4379C112.156 80.8606 112.988 74.2278 113.481 67.5655C113.525 66.965 120.123 68.292 120.86 68.7168C122.866 69.9047 124.198 73.2246 125.163 75.2491Z" fill="#FFF021"/>
<g opacity="0.2">
<path opacity="0.2" d="M43.7595 140.767C43.7595 140.887 43.7464 141.005 43.7333 141.121C42.7333 140.726 41.7525 140.301 40.791 139.846C40.2773 139.779 39.7996 139.546 39.43 139.183C39.1494 139.041 38.8688 138.894 38.5908 138.747C38.6538 138.616 38.7247 138.488 38.8032 138.365C39.3434 137.51 40.1642 136.975 41.069 137.004C41.9737 137.032 42.7578 137.617 43.2429 138.501C43.614 139.197 43.7923 139.979 43.7595 140.767Z" fill="#3F3D56"/>
<path opacity="0.2" d="M43.9011 136.277C43.8833 137.064 43.6561 137.831 43.2429 138.501C42.7027 139.353 41.8819 139.888 40.9772 139.859L40.791 139.846C40.2773 139.779 39.7996 139.546 39.43 139.183C39.1793 138.945 38.9678 138.669 38.8032 138.365C38.4414 137.666 38.2644 136.887 38.2892 136.101C38.3139 135.315 38.5397 134.549 38.9449 133.875C39.4851 133.02 40.3059 132.485 41.2106 132.514C42.1153 132.543 42.8994 133.128 43.3845 134.011C43.7556 134.707 43.9339 135.489 43.9011 136.277Z" fill="#3F3D56"/>
<path opacity="0.2" d="M44.0428 131.794C44.1069 129.766 42.9032 128.083 41.3543 128.034C39.8054 127.985 38.4978 129.589 38.4337 131.617C38.3696 133.645 39.5733 135.329 41.1222 135.378C42.6711 135.427 43.9787 133.822 44.0428 131.794Z" fill="#3F3D56"/>
<path opacity="0.2" d="M44.1858 127.305C44.2499 125.277 43.0462 123.593 41.4973 123.544C39.9484 123.495 38.6408 125.1 38.5767 127.128C38.5126 129.156 39.7163 130.839 41.2652 130.888C42.8142 130.937 44.1217 129.333 44.1858 127.305Z" fill="#3F3D56"/>
<path opacity="0.2" d="M44.3262 122.815C44.3903 120.787 43.1866 119.104 41.6377 119.055C40.0888 119.006 38.7812 120.61 38.7171 122.638C38.653 124.666 39.8567 126.35 41.4056 126.399C42.9545 126.448 44.2621 124.843 44.3262 122.815Z" fill="#3F3D56"/>
<path opacity="0.2" d="M31.9931 91.6652C31.6238 91.1652 31.2908 90.6394 30.9966 90.0918L38.4075 89.1137L30.4197 88.9249C29.7078 87.2363 29.3479 85.4203 29.3618 83.5878C29.3758 81.7554 29.7634 79.945 30.501 78.2675L41.022 84.1521L31.3847 76.5892C32.3569 75.0168 33.6429 73.6617 35.1623 72.6086C36.6818 71.5555 38.402 70.827 40.2156 70.4686C42.0293 70.1102 43.8973 70.1296 45.7031 70.5256C47.5089 70.9216 49.2136 71.6857 50.7108 72.7701C52.2081 73.8545 53.4656 75.236 54.405 76.8283C55.3443 78.4205 55.9452 80.1894 56.1702 82.0243C56.3952 83.8593 56.2395 85.7209 55.7127 87.493C55.1859 89.265 54.2994 90.9094 53.1085 92.3235C53.6824 93.1016 54.1703 93.9395 54.5639 94.8226L44.8428 99.5009L55.1566 96.3986C55.8064 98.541 55.9116 100.812 55.4629 103.005C55.0142 105.198 54.0256 107.245 52.5867 108.96C54.0845 110.992 54.9802 113.404 55.1713 115.921C55.3623 118.439 54.841 120.959 53.6669 123.193C52.4928 125.428 50.7135 127.287 48.5323 128.558C46.3512 129.829 43.8564 130.46 41.3333 130.38C38.8102 130.299 36.3608 129.51 34.2651 128.103C32.1694 126.695 30.5122 124.727 29.4831 122.422C28.4539 120.117 28.0943 117.568 28.4454 115.069C28.7966 112.569 29.8443 110.218 31.4687 108.286C29.6797 105.858 28.7588 102.899 28.8539 99.8848C28.949 96.8704 30.0546 93.9756 31.9931 91.6652Z" fill="#FFF021"/>
<path opacity="0.1" d="M55.7255 100.731C55.6331 103.747 54.5242 106.644 52.5787 108.952C54.0786 110.983 54.9764 113.395 55.1693 115.913C55.3622 118.431 54.8424 120.952 53.6695 123.187C52.4965 125.423 50.7177 127.284 48.5367 128.556C46.3557 129.828 43.8606 130.461 41.3369 130.381C38.8133 130.302 36.363 129.513 34.2665 128.106C32.1701 126.699 30.5121 124.73 29.4825 122.424C28.4528 120.119 28.093 117.57 28.4442 115.07C28.7955 112.569 29.8435 110.218 31.4685 108.286C29.7299 105.941 55.7727 99.2229 55.7255 100.731Z" fill="black"/>
</g>
<path opacity="0.1" d="M17.8375 42.695C20.9702 42.695 23.5097 40.1555 23.5097 37.0228C23.5097 33.8901 20.9702 31.3506 17.8375 31.3506C14.7048 31.3506 12.1653 33.8901 12.1653 37.0228C12.1653 40.1555 14.7048 42.695 17.8375 42.695Z" fill="#FFF021"/>
<path opacity="0.1" d="M41.4781 11.3444C44.6108 11.3444 47.1503 8.80487 47.1503 5.6722C47.1503 2.53953 44.6108 0 41.4781 0C38.3454 0 35.8059 2.53953 35.8059 5.6722C35.8059 8.80487 38.3454 11.3444 41.4781 11.3444Z" fill="#FFF021"/>
<path opacity="0.1" d="M39.5559 36.7158C44.806 36.7158 49.062 32.4598 49.062 27.2097C49.062 21.9596 44.806 17.7036 39.5559 17.7036C34.3058 17.7036 30.0498 21.9596 30.0498 27.2097C30.0498 32.4598 34.3058 36.7158 39.5559 36.7158Z" fill="#FFF021"/>
<path d="M142.395 70.6731C154.561 70.6731 164.423 60.8109 164.423 48.6452C164.423 36.4794 154.561 26.6172 142.395 26.6172C130.229 26.6172 120.367 36.4794 120.367 48.6452C120.367 60.8109 130.229 70.6731 142.395 70.6731Z" fill="#FBBEBE"/>
<path d="M133.448 5.42047C127.571 6.16523 121.227 7.14862 117.073 11.3706C114.75 13.7308 113.389 16.8776 112.269 19.993C110.533 24.8444 109.24 29.9581 109.647 35.1058C110.009 39.7107 111.713 44.4205 110.334 48.8313C109.699 50.861 108.454 52.6338 107.486 54.5245C105.692 58.0359 104.848 61.972 104.538 65.903C104.323 68.6067 104.365 71.389 105.254 73.9511C106.201 76.6783 108.047 78.9991 109.217 81.6373C110.948 85.5341 111.121 89.9187 111.254 94.1801C111.388 98.4415 111.501 102.674 111.601 106.92C111.663 109.589 111.669 112.448 110.192 114.674C115.644 112.49 121.172 110.26 125.837 106.694C130.503 103.128 134.279 97.9852 134.882 92.1425C135.37 87.4065 133.77 82.7387 132.391 78.181C128.982 66.9047 126.779 54.8838 129.26 43.3689C130.154 39.2229 132.328 34.5944 136.5 33.8313C139.046 33.3672 141.587 34.5289 143.882 35.7299C149.305 38.5673 154.896 42.2387 156.915 48.0158C158.751 53.2395 157.206 59.0586 154.817 64.0463C152.428 69.0341 149.177 73.6206 147.32 78.8339C144.469 86.8322 145.272 96.1967 150.008 103.243C154.744 110.289 163.495 114.624 171.91 113.486C171.252 110.643 169.188 108.346 168.081 105.645C166.07 100.739 167.426 95.0953 169.589 90.2544C171.753 85.4135 174.705 80.9004 176.059 75.7605C177.013 72.1416 177.129 68.3602 177.123 64.618C177.123 58.7282 176.832 52.8357 176.266 46.972C175.699 41.1084 174.834 35.1713 172.967 29.5306C171.467 25.007 169.282 20.6329 166.015 17.1635C162.538 13.4685 158.011 10.9642 153.566 8.50963C150.907 7.04635 148.191 5.56471 145.206 5.01663C142.846 4.58394 140.365 3.96768 137.958 3.92834C136.322 3.90474 134.601 4.25876 133.448 5.42047Z" fill="#434175"/>
<path d="M174.907 33.852L160.736 31.1024C160.323 31.0224 159.924 31.2918 159.844 31.7041L153.054 66.7001C152.974 67.1124 153.244 67.5115 153.656 67.5915L167.828 70.3411C168.24 70.4211 168.639 70.1517 168.719 69.7394L175.509 34.7434C175.589 34.3311 175.32 33.932 174.907 33.852Z" fill="#656478"/>
<path d="M175.979 34.0599L161.807 31.3103C161.394 31.2303 160.995 31.4997 160.915 31.912L154.125 66.908C154.045 67.3203 154.315 67.7194 154.727 67.7994L168.899 70.549C169.311 70.629 169.71 70.3596 169.79 69.9473L176.58 34.9513C176.66 34.539 176.391 34.1399 175.979 34.0599Z" fill="#3F3D56"/>
<path d="M168.411 40.7922C168.688 39.3633 168.434 38.1121 167.844 37.9976C167.254 37.8832 166.551 38.9487 166.274 40.3776C165.997 41.8065 166.25 43.0576 166.84 43.1721C167.43 43.2866 168.133 42.2211 168.411 40.7922Z" fill="#FFF021"/>
<path d="M171.766 52.7098C171.073 51.4851 170.334 50.2185 169.167 49.4344C168.496 49.023 167.775 48.6995 167.022 48.472C164.481 47.583 161.898 46.6862 159.21 46.5446C158.772 46.5236 158.271 46.5446 157.985 46.8802C157.398 47.5699 158.329 48.5087 159.134 48.9257L165.538 52.243L159.635 51.6189C158.777 51.5271 157.555 51.7605 157.618 52.6206C157.66 53.1844 158.279 53.4912 158.814 53.6696C162.603 54.9808 166.983 56.0087 169.057 59.4388C166.293 59.1766 163.469 58.9143 160.76 59.5227C160.018 59.6905 159.249 59.9502 158.764 60.5349C158.279 61.1197 158.224 62.1084 158.835 62.5725C159.212 62.8531 159.721 62.861 160.193 62.8348C162.115 62.743 164.087 62.3601 165.934 62.9082C167.78 63.4563 169.419 65.3916 168.782 67.2063C170.418 67.3531 172.353 67.2063 173.866 66.5009C175.534 65.7141 175.495 64.2351 175.393 62.4519C175.175 58.9589 173.442 55.6993 171.766 52.7098Z" fill="#FBBEBE"/>
<path opacity="0.1" d="M170.111 109.875C168.643 99.5553 166.63 89.3207 164.08 79.2141C162.768 73.9693 161.279 68.6354 161.654 63.2386C167.072 63.9282 171.926 64.4396 176.919 62.2263C177 65.0611 179.056 67.4711 179.803 70.2115C180.304 72.0471 180.115 73.9903 180.312 75.881C180.509 77.7718 181.099 79.6048 181.605 81.4431C184.116 90.5525 184.708 100.084 183.344 109.434C178.71 109.985 174.734 110.591 170.111 109.875Z" fill="black"/>
<path d="M169.324 109.875C167.857 99.5553 165.844 89.3207 163.293 79.2141C161.982 73.9693 160.492 68.6354 160.867 63.2386C166.285 63.9282 171.139 64.4396 176.132 62.2263C176.213 65.0611 178.269 67.4711 179.017 70.2115C179.518 72.0471 179.329 73.9903 179.525 75.881C179.722 77.7718 180.312 79.6048 180.818 81.4431C183.329 90.5525 183.921 100.084 182.557 109.434C177.923 109.985 173.948 110.591 169.324 109.875Z" fill="#FFF021"/>
<path d="M93.5219 160.954L96.0892 97.264C96.1301 96.2516 96.5636 95.295 97.2979 94.5969C98.0323 93.8988 99.0096 93.5141 100.023 93.5245L201.383 94.4948C201.92 94.5003 202.45 94.6168 202.94 94.837C203.43 95.0571 203.869 95.3762 204.23 95.7741C204.591 96.1721 204.865 96.6403 205.036 97.1494C205.208 97.6585 205.272 98.1975 205.225 98.7325L199.87 159.747C199.786 160.707 199.349 161.601 198.645 162.258C197.94 162.914 197.017 163.287 196.054 163.303L97.4843 165.008C96.9537 165.017 96.4268 164.917 95.9359 164.716C95.445 164.514 95.0005 164.214 94.6295 163.835C94.2586 163.455 93.969 163.004 93.7786 162.508C93.5881 162.013 93.5008 161.484 93.5219 160.954Z" fill="#3F3D56"/>
<path d="M150.131 127.71C152.593 127.71 154.589 125.362 154.589 122.465C154.589 119.568 152.593 117.22 150.131 117.22C147.669 117.22 145.673 119.568 145.673 122.465C145.673 125.362 147.669 127.71 150.131 127.71Z" fill="#FFF021"/>
<path d="M245.455 118.862L245.245 120.661L241.836 149.733C232.949 155.929 226.036 149.974 225.976 149.733L221.68 120.525L221.436 118.862H245.455Z" fill="#3F3D56"/>
<path opacity="0.1" d="M245.455 118.862L245.245 120.661C235.233 126.483 224.552 121.951 221.68 120.525L221.436 118.862H245.455Z" fill="black"/>
<path d="M220.935 117.283V119.906C220.935 119.906 234.178 127.605 246.11 119.906V117.283H220.935Z" fill="#FFF021"/>
<path d="M222.475 113.819C222.475 113.819 222.089 115.589 220.935 115.744V117.976H246.11V115.975C246.11 115.975 244.571 115.589 244.799 113.819H222.475Z" fill="#FFF021"/>
<path d="M233.447 117.283C239.718 117.283 244.802 115.818 244.802 114.011C244.802 112.203 239.718 110.738 233.447 110.738C227.176 110.738 222.092 112.203 222.092 114.011C222.092 115.818 227.176 117.283 233.447 117.283Z" fill="#FFF021"/>
<path opacity="0.1" d="M233.447 117.283C239.718 117.283 244.802 115.818 244.802 114.011C244.802 112.203 239.718 110.738 233.447 110.738C227.176 110.738 222.092 112.203 222.092 114.011C222.092 115.818 227.176 117.283 233.447 117.283Z" fill="black"/>
<path opacity="0.1" d="M243.414 113.819C243.414 115.13 239.108 116.205 233.793 116.205H233.51C229.941 116.179 226.857 115.681 225.283 114.936C224.573 114.601 224.169 114.22 224.169 113.819C224.169 113.153 225.27 112.55 227.053 112.117C229.269 111.633 231.533 111.403 233.801 111.433C239.108 111.433 243.414 112.5 243.414 113.819Z" fill="black"/>
<path opacity="0.1" d="M233.51 116.205C229.941 116.179 226.857 115.681 225.283 114.936L227.045 112.107L233.51 116.205Z" fill="black"/>
<path opacity="0.1" d="M223.453 114.003C223.316 113.974 223.136 114.021 223.109 114.157C223.106 114.227 223.124 114.296 223.162 114.354C223.462 114.829 223.899 115.203 224.415 115.427C224.503 115.476 224.601 115.507 224.701 115.518C224.753 115.525 224.806 115.515 224.853 115.491C224.9 115.466 224.938 115.428 224.963 115.382C224.978 115.342 224.984 115.3 224.981 115.258C224.977 115.216 224.965 115.175 224.945 115.138C224.865 114.996 224.754 114.874 224.62 114.781C224.268 114.506 223.909 114.079 223.453 114.003Z" fill="black"/>
<path d="M233.829 142.033C237.57 142.033 240.603 139.001 240.603 135.26C240.603 131.519 237.57 128.486 233.829 128.486C230.089 128.486 227.056 131.519 227.056 135.26C227.056 139.001 230.089 142.033 233.829 142.033Z" fill="#FFF021"/>
<path d="M49.3872 135.275H52.563C54.3017 135.275 55.9692 135.966 57.1987 137.196C58.4282 138.425 59.1189 140.093 59.1189 141.831V151.573H42.8313V141.831C42.8313 140.093 43.522 138.425 44.7515 137.196C45.981 135.966 47.6485 135.275 49.3872 135.275Z" fill="#3F3D56"/>
<path opacity="0.1" d="M49.3872 135.275H52.563C54.3017 135.275 55.9692 135.966 57.1987 137.196C58.4282 138.425 59.1189 140.093 59.1189 141.831V151.573H42.8313V141.831C42.8313 140.093 43.522 138.425 44.7515 137.196C45.981 135.966 47.6485 135.275 49.3872 135.275Z" fill="black"/>
<path d="M50.3236 138.86C51.0434 138.86 51.6269 138.277 51.6269 137.557C51.6269 136.837 51.0434 136.253 50.3236 136.253C49.6038 136.253 49.0203 136.837 49.0203 137.557C49.0203 138.277 49.6038 138.86 50.3236 138.86Z" fill="#3F3D56"/>
<path d="M50.3236 137.232C51.0434 137.232 51.6269 136.648 51.6269 135.928C51.6269 135.209 51.0434 134.625 50.3236 134.625C49.6038 134.625 49.0203 135.209 49.0203 135.928C49.0203 136.648 49.6038 137.232 50.3236 137.232Z" fill="#3F3D56"/>
<path d="M50.3236 135.601C51.0434 135.601 51.6269 135.017 51.6269 134.297C51.6269 133.577 51.0434 132.994 50.3236 132.994C49.6038 132.994 49.0203 133.577 49.0203 134.297C49.0203 135.017 49.6038 135.601 50.3236 135.601Z" fill="#3F3D56"/>
<path d="M50.3236 133.972C51.0434 133.972 51.6269 133.389 51.6269 132.669C51.6269 131.949 51.0434 131.365 50.3236 131.365C49.6038 131.365 49.0203 131.949 49.0203 132.669C49.0203 133.389 49.6038 133.972 50.3236 133.972Z" fill="#3F3D56"/>
<path d="M50.3236 132.344C51.0434 132.344 51.6269 131.76 51.6269 131.04C51.6269 130.32 51.0434 129.737 50.3236 129.737C49.6038 129.737 49.0203 130.32 49.0203 131.04C49.0203 131.76 49.6038 132.344 50.3236 132.344Z" fill="#3F3D56"/>
<path d="M50.3236 130.715C51.0434 130.715 51.6269 130.132 51.6269 129.412C51.6269 128.692 51.0434 128.108 50.3236 128.108C49.6038 128.108 49.0203 128.692 49.0203 129.412C49.0203 130.132 49.6038 130.715 50.3236 130.715Z" fill="#3F3D56"/>
<path d="M50.3236 129.086C51.0434 129.086 51.6269 128.503 51.6269 127.783C51.6269 127.063 51.0434 126.48 50.3236 126.48C49.6038 126.48 49.0203 127.063 49.0203 127.783C49.0203 128.503 49.6038 129.086 50.3236 129.086Z" fill="#3F3D56"/>
<path d="M52.2799 129.737C52.9997 129.737 53.5832 129.153 53.5832 128.434C53.5832 127.714 52.9997 127.13 52.2799 127.13C51.5601 127.13 50.9766 127.714 50.9766 128.434C50.9766 129.153 51.5601 129.737 52.2799 129.737Z" fill="#3F3D56"/>
<path d="M53.5829 129.086C54.3027 129.086 54.8862 128.503 54.8862 127.783C54.8862 127.063 54.3027 126.48 53.5829 126.48C52.8631 126.48 52.2795 127.063 52.2795 127.783C52.2795 128.503 52.8631 129.086 53.5829 129.086Z" fill="#3F3D56"/>
<path d="M54.8863 128.434C55.6061 128.434 56.1897 127.85 56.1897 127.13C56.1897 126.41 55.6061 125.827 54.8863 125.827C54.1665 125.827 53.583 126.41 53.583 127.13C53.583 127.85 54.1665 128.434 54.8863 128.434Z" fill="#3F3D56"/>
<path d="M50.3236 127.458C51.0434 127.458 51.6269 126.875 51.6269 126.155C51.6269 125.435 51.0434 124.851 50.3236 124.851C49.6038 124.851 49.0203 125.435 49.0203 126.155C49.0203 126.875 49.6038 127.458 50.3236 127.458Z" fill="#3F3D56"/>
<path d="M50.3236 125.83C51.0434 125.83 51.6269 125.246 51.6269 124.526C51.6269 123.806 51.0434 123.223 50.3236 123.223C49.6038 123.223 49.0203 123.806 49.0203 124.526C49.0203 125.246 49.6038 125.83 50.3236 125.83Z" fill="#3F3D56"/>
<path d="M50.3236 124.198C51.0434 124.198 51.6269 123.615 51.6269 122.895C51.6269 122.175 51.0434 121.592 50.3236 121.592C49.6038 121.592 49.0203 122.175 49.0203 122.895C49.0203 123.615 49.6038 124.198 50.3236 124.198Z" fill="#3F3D56"/>
<path d="M50.3236 122.57C51.0434 122.57 51.6269 121.986 51.6269 121.267C51.6269 120.547 51.0434 119.963 50.3236 119.963C49.6038 119.963 49.0203 120.547 49.0203 121.267C49.0203 121.986 49.6038 122.57 50.3236 122.57Z" fill="#3F3D56"/>
<path d="M55.7255 117.066C55.403 117.113 55.0778 117.147 54.7526 117.168C55.056 116.902 55.3375 116.613 55.5944 116.302C55.4129 115.755 55.1475 115.239 54.8077 114.774C54.4846 114.955 54.1275 115.068 53.7587 115.104C53.4362 115.151 53.111 115.185 52.7858 115.209C53.2133 114.86 53.6119 114.336 54.0314 113.898C53.0618 113.018 51.8117 112.512 50.5035 112.467C49.1953 112.423 47.9138 112.844 46.8869 113.656C45.86 114.468 45.1543 115.617 44.8953 116.9C44.6362 118.183 44.8407 119.517 45.4722 120.663C46.1037 121.81 47.1215 122.695 48.3443 123.162C49.5672 123.629 50.916 123.646 52.1509 123.212C53.3857 122.778 54.4266 121.92 55.0883 120.791C55.75 119.661 55.9897 118.334 55.7648 117.045L55.7255 117.066Z" fill="#FFF021"/>
<path d="M60.0811 123.54C59.7486 123.744 59.3735 123.869 58.985 123.905C58.6624 123.952 58.3373 123.989 58.0121 124.01C58.3577 123.7 58.6802 123.365 58.9771 123.008C58.1913 122.803 57.3574 122.899 56.6383 123.276C55.9192 123.653 55.3667 124.285 55.0888 125.048C54.8109 125.811 54.8276 126.65 55.1356 127.402C55.4436 128.153 56.0207 128.763 56.7543 129.111C57.4878 129.46 58.3248 129.522 59.1019 129.286C59.8789 129.05 60.54 128.533 60.9559 127.835C61.3719 127.138 61.5127 126.31 61.3509 125.515C61.1891 124.719 60.7364 124.012 60.0811 123.532V123.54Z" fill="#FFF021"/>
<path d="M48.3697 129.737C49.0895 129.737 49.673 129.153 49.673 128.434C49.673 127.714 49.0895 127.13 48.3697 127.13C47.6499 127.13 47.0664 127.714 47.0664 128.434C47.0664 129.153 47.6499 129.737 48.3697 129.737Z" fill="#3F3D56"/>
<path d="M47.0665 129.086C47.7863 129.086 48.3698 128.503 48.3698 127.783C48.3698 127.063 47.7863 126.48 47.0665 126.48C46.3467 126.48 45.7632 127.063 45.7632 127.783C45.7632 128.503 46.3467 129.086 47.0665 129.086Z" fill="#3F3D56"/>
<path d="M45.763 128.434C46.4828 128.434 47.0664 127.85 47.0664 127.13C47.0664 126.41 46.4828 125.827 45.763 125.827C45.0432 125.827 44.4597 126.41 44.4597 127.13C44.4597 127.85 45.0432 128.434 45.763 128.434Z" fill="#3F3D56"/>
<path d="M40.5683 123.54C40.9007 123.745 41.2759 123.869 41.6645 123.905C41.9871 123.952 42.3122 123.989 42.6374 124.01C42.2911 123.7 41.9686 123.365 41.6724 123.008C42.4582 122.803 43.2921 122.899 44.0112 123.276C44.7303 123.653 45.2828 124.285 45.5607 125.048C45.8386 125.811 45.8219 126.65 45.5139 127.402C45.2059 128.153 44.6287 128.763 43.8952 129.111C43.1617 129.46 42.3246 129.522 41.5476 129.286C40.7706 129.05 40.1095 128.533 39.6935 127.835C39.2776 127.138 39.1368 126.31 39.2986 125.515C39.4603 124.719 39.9131 124.012 40.5683 123.532V123.54Z" fill="#FFF021"/>
<path d="M49.3872 136.253H52.563C54.3017 136.253 55.9692 136.944 57.1987 138.174C58.4282 139.403 59.1189 141.071 59.1189 142.809V151.429C59.1189 151.724 59.0018 152.007 58.7932 152.215C58.5847 152.424 58.3019 152.541 58.007 152.541H43.9432C43.6483 152.541 43.3655 152.424 43.157 152.215C42.9484 152.007 42.8313 151.724 42.8313 151.429V142.809C42.8313 141.071 43.522 139.403 44.7515 138.174C45.981 136.944 47.6485 136.253 49.3872 136.253Z" fill="#3F3D56"/>
<g opacity="0.1">
<path opacity="0.1" d="M55.8251 117.422C55.6932 117.563 55.5531 117.696 55.4055 117.821C55.555 117.821 55.7018 117.797 55.8513 117.782C55.8566 117.661 55.8382 117.54 55.8251 117.422Z" fill="black"/>
<path opacity="0.1" d="M53.4492 115.865C53.777 115.844 54.0996 115.81 54.4247 115.762C54.7165 115.725 55.0016 115.648 55.2718 115.532C55.1397 115.269 54.9872 115.017 54.8155 114.779C54.6524 114.878 54.4757 114.953 54.291 115.002C54.0338 115.311 53.7524 115.6 53.4492 115.865Z" fill="black"/>
<path opacity="0.1" d="M45.4379 118.663C45.4359 117.668 45.7022 116.692 46.2085 115.836C46.7148 114.981 47.4426 114.278 48.315 113.801C49.1875 113.324 50.1723 113.091 51.1659 113.127C52.1595 113.163 53.1249 113.467 53.9606 114.005L54.0445 113.916C53.4991 113.431 52.8631 113.058 52.1731 112.82C51.4831 112.582 50.7527 112.482 50.0241 112.527C49.2954 112.573 48.583 112.761 47.9277 113.083C47.2724 113.405 46.6872 113.853 46.206 114.402C45.7247 114.951 45.3568 115.59 45.1235 116.282C44.8901 116.973 44.796 117.704 44.8465 118.433C44.897 119.161 45.0911 119.872 45.4176 120.525C45.7442 121.178 46.1967 121.76 46.7491 122.237C45.901 121.239 45.4361 119.972 45.4379 118.663Z" fill="black"/>
</g>
<g opacity="0.1">
<path opacity="0.1" d="M58.0122 124.66C58.3374 124.639 58.6626 124.605 58.9851 124.558C59.3738 124.521 59.7489 124.395 60.0813 124.191C60.4494 124.462 60.7565 124.807 60.9824 125.205C61.2083 125.602 61.348 126.043 61.3924 126.498C61.4052 126.384 61.4113 126.269 61.4108 126.155C61.4133 125.645 61.2959 125.143 61.0681 124.687C60.8403 124.232 60.5086 123.836 60.0996 123.532C59.7671 123.736 59.392 123.861 59.0035 123.897L58.7412 123.931C58.5174 124.192 58.2737 124.436 58.0122 124.66Z" fill="black"/>
<path opacity="0.1" d="M58.1432 123.548C58.252 123.549 58.3606 123.557 58.4684 123.572C58.6389 123.391 58.8067 123.197 58.9771 123.008C58.495 122.879 57.9898 122.863 57.5004 122.961C57.0111 123.059 56.5509 123.268 56.1554 123.572C55.7598 123.876 55.4396 124.267 55.2196 124.715C54.9995 125.163 54.8854 125.656 54.8862 126.155C54.8862 126.265 54.8862 126.372 54.902 126.48C54.9826 125.676 55.3589 124.931 55.9578 124.39C56.5568 123.848 57.3356 123.548 58.1432 123.548Z" fill="black"/>
</g>
<g opacity="0.1">
<path opacity="0.1" d="M42.6371 124.66C42.312 124.639 41.9868 124.605 41.6643 124.558C41.2754 124.522 40.9003 124.396 40.5681 124.191C40.1999 124.462 39.8929 124.807 39.667 125.205C39.4411 125.602 39.3014 126.043 39.2569 126.498C39.2442 126.384 39.2381 126.269 39.2386 126.155C39.2361 125.645 39.3535 125.143 39.5813 124.687C39.809 124.232 40.1408 123.836 40.5497 123.532C40.8821 123.737 41.2573 123.862 41.6459 123.897L41.9081 123.931C42.1305 124.194 42.3743 124.438 42.6371 124.66Z" fill="black"/>
<path opacity="0.1" d="M42.506 123.548C42.3964 123.549 42.2869 123.557 42.1782 123.572C42.0104 123.391 41.8426 123.197 41.6721 123.008C42.1542 122.879 42.6595 122.863 43.1488 122.961C43.6381 123.059 44.0984 123.268 44.4939 123.572C44.8894 123.876 45.2096 124.267 45.4297 124.715C45.6498 125.163 45.7638 125.656 45.763 126.155C45.763 126.265 45.763 126.372 45.7473 126.48C45.6667 125.676 45.2904 124.931 44.6914 124.39C44.0925 123.848 43.3136 123.548 42.506 123.548Z" fill="black"/>
</g>
</g>
<defs>
<clipPath id="clip0">
<rect width="300" height="167.045" fill="white"/>
</clipPath>
</defs>
</svg>
