<svg width="526" height="411" viewBox="0 0 526 411" fill="none" xmlns="http://www.w3.org/2000/svg">
<g clip-path="url(#clip0)">
<path opacity="0.1" d="M184.512 403.039C235.186 403.039 276.266 395.268 276.266 385.682C276.266 376.096 235.186 368.325 184.512 368.325C133.838 368.325 92.759 376.096 92.759 385.682C92.759 395.268 133.838 403.039 184.512 403.039Z" fill="#FFF021"/>
<path opacity="0.1" d="M305.609 57.962C271.888 56.7966 239.772 45.9223 209.104 34.0283C178.436 22.1342 148.06 8.96024 115.147 2.65942C93.9773 -1.39371 69.765 -1.97124 52.7118 9.35047C36.2941 20.2768 30.99 39.0856 28.14 56.552C25.9934 69.6948 24.7325 83.5295 30.6097 95.8346C34.6946 104.378 41.9369 111.558 46.9492 119.742C64.388 148.213 52.0605 183.323 33.1679 211.123C24.3104 224.161 14.0201 236.617 7.179 250.483C0.33788 264.349 -2.82477 280.291 3.16186 294.474C9.09118 308.523 23.2267 319.053 38.5398 326.468C69.64 341.53 106.274 345.838 142.021 348.284C221.129 353.684 300.654 351.348 379.97 349.002C409.325 348.138 438.805 347.259 467.68 342.727C483.718 340.209 500.271 336.213 511.916 326.566C526.692 314.324 530.355 293.595 520.45 278.246C503.84 252.491 457.927 246.097 446.303 218.464C439.915 203.25 446.475 186.309 455.764 172.204C475.689 141.938 509.081 115.387 510.837 80.798C512.046 57.0411 495.993 33.2478 471.171 22.0041C445.156 10.2194 409.075 11.7022 389.891 31.2082C370.118 51.271 335.386 58.9974 305.609 57.962Z" fill="#FFF021"/>
<path d="M278.813 188.213L262.854 177.469L270.904 165.502L228.753 162.146L213.607 173.842L194.646 163.228L178.833 165.127L178.646 160.965C178.45 156.626 178.013 152.301 177.338 148.01C177.405 146.709 177.452 145.216 177.447 143.592C177.447 136.75 176.52 127.681 172.445 121.636L173.383 113.217L165.776 104.242C166.998 101.812 168.391 99.4716 169.944 97.2387C170.205 96.8641 170.465 96.4999 170.747 96.1461C180.62 95.4333 188.41 87.327 188.41 77.4153C188.41 76.9575 188.41 76.4996 188.357 76.0469C188.357 75.8648 188.321 75.6775 188.3 75.4954C189.264 76.0157 190.238 76.536 191.213 77.0563C191.395 77.3165 191.604 77.5766 191.833 77.8836L191.88 77.9408L192.171 78.2998L192.265 78.4091C192.369 78.534 192.479 78.6536 192.588 78.7785L192.661 78.8618C192.937 79.1687 193.229 79.4809 193.542 79.7879C193.579 79.8181 193.614 79.8512 193.646 79.8867L194.037 80.2509L194.146 80.3498C194.48 80.6464 194.834 80.9325 195.188 81.2031L195.303 81.2863L195.751 81.5933L195.897 81.687C196.069 81.791 196.246 81.9003 196.418 81.9992L196.48 82.0356C196.684 82.1448 196.892 82.2489 197.1 82.3478L197.205 82.3894C197.382 82.4657 197.555 82.5385 197.726 82.6079L197.887 82.6651C198.069 82.7276 198.247 82.7848 198.434 82.8368L198.549 82.8681C198.778 82.9253 199.007 82.9721 199.242 83.0085H199.268C199.489 83.0442 199.711 83.0668 199.935 83.0762H200.086C200.285 83.0866 200.485 83.0866 200.685 83.0762H200.815C201.065 83.0618 201.314 83.0323 201.56 82.9877C202.726 82.8347 203.845 82.4337 204.843 81.8118C205.097 81.6423 205.322 81.4333 205.51 81.1927C206.552 79.8295 205.406 78.3362 205.406 78.3362C204.999 77.3685 202.363 76.6869 202.363 76.6869C202.363 76.6869 194.026 73.2113 194.026 70.4433C194.026 67.6753 191.942 53.3151 170.429 50.032C170.429 50.032 156.434 49.2463 152.5 56.7282L152.417 57.6023C151.26 58.3255 150.302 59.7772 149.16 60.2038C148.667 60.3096 148.192 60.4847 147.748 60.7241V60.6253C147.617 60.7403 147.509 60.8799 147.431 61.0363C147.186 61.5233 147.039 62.0536 146.998 62.5972C146.881 63.2612 146.65 63.9001 146.316 64.4859C146.222 64.6523 146.118 64.8123 146.003 64.9646L145.914 65.105C146.519 65.1521 147.127 65.054 147.686 64.8189C147.598 65.5312 147.423 66.2301 147.165 66.9001C147.496 66.9108 147.823 66.8262 148.108 66.6565C148.392 66.4868 148.622 66.239 148.77 65.9427V65.9011L148.837 65.8074C148.968 65.5666 149.077 65.314 149.16 65.053L149.103 65.1154C149.207 64.7772 149.301 64.4338 149.416 64.1009C149.468 63.9133 149.555 63.7369 149.671 63.5806C149.81 63.4406 149.98 63.3351 150.168 63.2728C150.355 63.2104 150.554 63.1929 150.75 63.2215L150.536 67.7325H150.63C150.504 68.0607 150.351 68.3775 150.171 68.6795C149.431 69.8762 148.087 70.693 147.592 72.0042C147.379 72.6366 147.297 73.3059 147.352 73.9709C147.352 74.3612 147.399 74.7566 147.431 75.1468V75.1156C147.504 76.1562 147.524 77.1448 146.962 77.9824C146.576 78.5548 145.956 78.9866 145.743 79.637C145.683 79.8182 145.657 80.0085 145.664 80.1989C145.706 80.7691 145.825 81.331 146.019 81.8691C146.021 81.8588 146.021 81.8481 146.019 81.8379C146.149 82.2337 146.179 82.6554 146.107 83.0658C145.873 84.1064 144.607 84.9753 144.669 85.969C144.666 86.0997 144.685 86.23 144.726 86.3541C144.97 86.8395 145.392 87.2122 145.904 87.3947C146.707 87.8508 147.63 88.0539 148.551 87.9774C148.896 87.9151 149.23 87.8011 149.541 87.6392C149.176 88.4769 148.801 89.3041 148.421 90.0898C148.363 90.2147 148.301 90.3395 148.238 90.4644C148.238 90.4644 145.018 88.3156 143.189 92.6965C142.656 93.6069 142.274 94.598 142.059 95.631C141.967 96.0442 141.838 96.4482 141.673 96.8381C140.861 98.2107 139.646 99.3006 138.193 99.9599C134.462 101.666 119.394 120.434 119.128 125.293C118.998 127.19 118.677 129.069 118.17 130.902C116.983 135.218 116.679 139.728 117.273 144.164C117.46 145.598 117.768 147.013 118.196 148.395C119.795 153.249 120.863 162.307 120.863 162.307L122.593 178.031C122.529 180.201 122.623 182.373 122.875 184.529C121.108 186.543 114.017 194.935 116.726 197.219C118.81 199.02 122.458 198.723 124.505 198.354C122.781 202.615 120.066 210.024 119.707 215.113C119.186 222.641 120.598 232.615 122.833 236.445C125.068 240.274 132.519 250.097 132.519 250.097C132.519 250.097 132.17 263.573 134.832 268.469C137.495 273.365 138.568 283.521 138.568 283.521C138.568 283.521 141.053 292.096 139.808 295.249C138.563 298.402 142.116 301.024 138.386 303.121C134.655 305.218 129.882 352.477 129.882 352.477C129.882 352.477 127.96 383.45 129.882 385.027C129.985 385.101 130.095 385.166 130.211 385.219V395.625C130.211 395.625 128.877 397.81 134.301 398.253C138.016 398.549 148.546 399.22 154.793 399.611L159.633 399.912C159.633 399.912 171.096 402.191 176.16 399.912C181.225 397.633 190.202 397.686 188.868 391.666C188.691 390.846 188.454 390.041 188.16 389.257C186.695 385.521 184.21 385.094 179.63 384.054C179.365 383.996 179.109 383.944 178.875 383.903C174.05 383.065 172.466 385.308 169.762 382.389C167.412 379.865 159.93 377.04 157.382 376.145C157.445 375.958 157.523 375.776 157.585 375.583C156.864 375.461 156.193 375.134 155.652 374.641L162.556 375.078L166.667 375.333C166.667 375.333 176.41 377.274 180.735 375.333C185.059 373.393 192.666 373.445 191.531 368.33C191.381 367.633 191.181 366.948 190.931 366.28C189.686 363.106 187.571 362.758 183.679 361.879C183.455 361.832 183.246 361.785 183.038 361.748C178.937 361.036 177.593 362.94 175.295 360.463C173.326 358.351 167.11 355.984 164.875 355.177C164.875 354.022 163.312 352.378 162.327 350.729C161.17 348.803 163.306 342.066 163.306 342.066L164.526 314.11C164.99 313.903 165.481 313.763 165.984 313.694C165.984 313.694 171.497 308.439 170.252 302.84C169.998 301.147 169.866 299.438 169.856 297.726C171.669 296.045 174.165 293.563 174.873 292.034C176.03 289.541 174.873 277.465 174.873 277.465V231.289L184.095 232.22L192.463 233.078L195.011 233.339L203.379 234.181L222.61 236.122L239.939 232.844L247.437 231.429L262.854 228.515V190.846L278.813 188.213ZM151.885 63.388L150.812 63.2736C151.166 63.2892 151.542 63.3568 151.885 63.388Z" fill="url(#paint0_linear)"/>
<path d="M241.409 212.672C236.198 220.118 217.467 216.174 217.467 216.174L202.951 202.61L200.998 200.773L204.275 193.822C204.275 193.822 205.317 194.108 207.104 194.618C216.488 197.339 245.806 206.413 241.409 212.672Z" fill="#EFB7B9"/>
<path opacity="0.1" d="M207.094 194.618C206.453 196.845 204.697 200.18 202.951 202.61L200.998 200.773L204.275 193.822C204.275 193.822 205.327 194.108 207.094 194.618Z" fill="black"/>
<path d="M157.309 116.23C157.309 116.23 143.929 122.156 144.586 136.709C145.058 146.084 146.081 155.424 147.649 164.68C147.649 164.68 144.914 186.579 156.304 192.225C167.693 197.87 178.234 202.511 178.234 202.511C178.234 202.511 196.053 204.426 198.267 205.216C200.482 206.007 207.401 193.916 206.124 192.032C204.848 190.149 188.493 186.199 186.409 183.057C184.325 179.914 179.505 177.974 179.505 177.974C179.505 177.974 174.529 174.966 174.191 172.25C173.852 169.534 175.165 167.51 175.498 166.319C175.832 165.127 176.676 153.624 176.676 153.624C176.676 153.624 182.293 112.676 157.309 116.23Z" fill="white"/>
<path opacity="0.1" d="M166.141 164.082C166.141 164.082 147.785 167.151 149.562 173.567C149.562 173.567 156.226 166.641 166.141 164.082Z" fill="black"/>
<path opacity="0.1" d="M166.281 166.678C166.281 166.678 156.189 174.904 158.164 175.325C160.139 175.747 166.281 166.678 166.281 166.678Z" fill="black"/>
<path opacity="0.1" d="M171.132 169.545C171.132 169.545 168.428 175.075 170.09 174.701C171.752 174.326 171.132 169.545 171.132 169.545Z" fill="black"/>
<path opacity="0.1" d="M207.771 195.206L206.656 194.889C206.974 193.848 207.062 193.005 206.802 192.615C205.525 190.731 189.181 186.787 187.102 183.64C185.023 180.492 180.198 178.556 180.198 178.556C180.198 178.556 175.222 175.549 174.884 172.833C174.545 170.117 175.858 168.093 176.191 166.902C176.525 165.71 177.369 154.201 177.369 154.201C177.369 154.201 182.97 113.259 157.987 116.812C157.987 116.812 144.607 122.744 145.258 137.297C145.73 146.672 146.755 156.012 148.327 165.268C148.327 165.268 145.591 187.167 156.981 192.812C168.371 198.458 178.911 203.099 178.911 203.099C178.911 203.099 196.725 205.008 198.945 205.804C199.784 206.106 201.3 204.55 202.785 202.412L203.629 203.198L218.145 216.757C218.145 216.757 236.876 220.706 242.086 213.26C246.489 206.996 217.176 197.922 207.771 195.206Z" fill="black"/>
<path d="M149.608 61.6086C149.098 61.7082 148.61 61.8967 148.165 62.1654C147.644 62.5972 147.644 63.336 147.514 63.9812C147.361 64.8787 147.004 65.7294 146.472 66.4682C147.065 66.5117 147.659 66.4136 148.207 66.1821C148.118 66.8942 147.943 67.593 147.686 68.2633C148.01 68.2715 148.33 68.1861 148.608 68.0172C148.885 67.8483 149.108 67.6032 149.249 67.3111C149.524 66.7248 149.743 66.1132 149.9 65.4849C149.949 65.2969 150.034 65.1203 150.15 64.9646C150.629 64.3974 151.52 64.6524 152.26 64.7252C152.876 64.7771 153.494 64.6635 154.051 64.3964C154.608 64.1293 155.084 63.7183 155.428 63.206C156.215 62.0145 156.262 58.9655 154.386 58.6429C152.427 58.3204 151.208 61.0155 149.608 61.6086Z" fill="#965D7B"/>
<g opacity="0.1">
<path opacity="0.1" d="M148.113 62.8053C148.16 62.5504 148.191 62.285 148.249 62.0301C147.754 62.4619 147.727 63.1956 147.597 63.8459C147.532 64.2212 147.429 64.5889 147.29 64.9438C147.7 64.2908 147.98 63.5646 148.113 62.8053Z" fill="black"/>
<path opacity="0.1" d="M148.28 67.103C148.539 66.4335 148.714 65.7344 148.801 65.0218C148.279 65.2411 147.714 65.3389 147.149 65.308C146.985 65.6739 146.784 66.0225 146.55 66.3486C147.141 66.3942 147.734 66.2979 148.28 66.0676C148.193 66.7802 148.018 67.4793 147.759 68.1488C148.083 68.1564 148.403 68.0707 148.68 67.9019C148.957 67.7331 149.18 67.4883 149.322 67.1966C149.452 66.9602 149.556 66.7108 149.635 66.4526C149.482 66.666 149.277 66.8374 149.041 66.9511C148.804 67.0648 148.542 67.117 148.28 67.103Z" fill="black"/>
<path opacity="0.1" d="M152.855 63.565C152.115 63.4921 151.219 63.2372 150.739 63.8043C150.625 63.9612 150.54 64.1375 150.489 64.3246C150.442 64.4599 150.4 64.6004 150.364 64.7408C150.859 64.3506 151.661 64.5587 152.334 64.6264C152.949 64.6766 153.567 64.5623 154.124 64.2953C154.68 64.0283 155.156 63.6182 155.501 63.1071C155.659 62.8545 155.777 62.5789 155.85 62.2902C155.494 62.7312 155.034 63.0781 154.512 63.3003C153.989 63.5226 153.42 63.6134 152.855 63.565Z" fill="black"/>
</g>
<path d="M165.291 104.58L173.237 114.122L172.2 123.753L162.598 108.743L165.291 104.58Z" fill="white"/>
<path opacity="0.1" d="M173.232 114.122L172.258 123.181L172.195 123.753L163.53 110.205L162.598 108.743L162.869 108.321L165.286 104.58L165.823 105.225L173.232 114.122Z" fill="black"/>
<path d="M177.358 91.6611C174.67 92.4311 172.101 95.0743 169.866 98.2845C168.355 100.499 167.004 102.819 165.823 105.225C165.088 106.693 164.442 108.103 163.905 109.33L163.53 110.205C162.624 112.343 162.118 113.774 162.118 113.774C162.118 113.774 141.538 98.3209 144.794 97.2803C145.888 96.9317 147.326 94.5904 148.749 91.6403L148.926 91.2657C149.827 89.3718 150.713 87.2594 151.5 85.2718C153.11 81.1875 154.303 77.639 154.303 77.639C154.303 77.639 185.565 89.3198 177.358 91.6611Z" fill="#EFB7B9"/>
<path d="M189.67 76.7702C189.67 76.7702 194.422 85.3551 200.805 84.1844C207.187 83.0138 204.561 79.5746 204.561 79.5746L189.67 76.7702Z" fill="#444053"/>
<path d="M180.464 373.939C176.254 375.859 166.735 373.939 166.735 373.939L162.723 373.689C157.512 373.356 148.79 372.794 145.706 372.545C141.204 372.175 142.309 370.333 142.309 370.333V359.204L164.15 353.679C164.15 353.679 172.784 356.629 175.149 359.204C177.395 361.66 178.708 359.771 182.715 360.479C182.912 360.515 183.121 360.557 183.34 360.609C187.143 361.478 189.207 361.821 190.426 364.969C190.671 365.63 190.868 366.309 191.014 366.998C192.14 372.066 184.668 372.03 180.464 373.939Z" fill="#A36468"/>
<path opacity="0.1" d="M190.426 364.969C189.643 365.457 188.82 365.879 187.966 366.228C185.101 367.534 182.376 369.126 179.479 370.359C176.582 371.592 173.461 372.472 170.324 372.238C168.683 372.118 167.005 371.717 165.437 372.186C164.467 372.56 163.554 373.066 162.723 373.689C157.512 373.356 148.79 372.794 145.706 372.545C141.204 372.175 142.309 370.333 142.309 370.333V369.033C142.47 369.033 142.653 368.986 142.861 368.97C143.939 368.953 145.013 369.113 146.039 369.444C148.301 370.058 150.551 370.661 152.813 371.265C152.999 370.564 153.325 369.908 153.773 369.337C154.221 368.767 154.781 368.293 155.418 367.945C156.708 367.261 158.157 366.929 159.617 366.983C163.124 367.029 166.443 368.689 169.944 368.856C170.923 368.946 171.908 368.781 172.805 368.377C173.284 368.138 173.706 367.789 174.175 367.524C174.925 367.161 175.718 366.894 176.535 366.728C178.831 366.157 181.086 365.43 183.282 364.553C183.908 364.308 184.637 363.866 184.554 363.2C184.444 362.316 183.053 362.211 182.688 361.4C182.624 361.253 182.594 361.094 182.602 360.934C182.609 360.775 182.653 360.619 182.73 360.479C182.928 360.515 183.137 360.557 183.355 360.609C187.143 361.478 189.207 361.821 190.426 364.969Z" fill="black"/>
<path d="M176.014 398.289C171.064 400.547 159.862 398.289 159.862 398.289L155.147 398.013C149.04 397.623 138.755 396.973 135.124 396.666C129.825 396.229 131.127 394.064 131.127 394.064V380.947L156.83 374.444C156.83 374.444 166.99 377.914 169.772 380.947C172.414 383.835 173.94 381.613 178.677 382.446C178.911 382.488 179.156 382.54 179.411 382.597C183.887 383.637 186.315 384.028 187.748 387.732C188.038 388.51 188.269 389.308 188.441 390.12C189.733 396.083 180.964 396.036 176.014 398.289Z" fill="#A36468"/>
<path opacity="0.1" d="M187.737 387.732C186.817 388.306 185.849 388.802 184.845 389.215C181.474 390.75 178.265 392.623 174.857 394.075C171.45 395.526 167.777 396.556 164.082 396.286C162.155 396.145 160.18 395.662 158.351 396.223C157.205 396.669 156.127 397.271 155.147 398.013C149.04 397.623 138.755 396.973 135.124 396.666C129.825 396.229 131.127 394.064 131.127 394.064V392.535C131.343 392.499 131.56 392.475 131.779 392.462C133.048 392.439 134.312 392.627 135.52 393.018L143.486 395.162C143.708 394.335 144.097 393.562 144.628 392.89C145.159 392.219 145.822 391.662 146.576 391.255C148.094 390.446 149.801 390.055 151.52 390.12C155.647 390.178 159.549 392.129 163.671 392.326C164.819 392.431 165.974 392.239 167.026 391.77C167.594 391.484 168.068 391.073 168.641 390.766C169.523 390.335 170.456 390.02 171.419 389.829C174.106 389.152 176.744 388.297 179.317 387.269C180.052 386.978 180.912 386.457 180.813 385.677C180.682 384.636 179.046 384.512 178.614 383.554C178.541 383.381 178.508 383.194 178.517 383.007C178.526 382.82 178.577 382.637 178.666 382.472C178.901 382.514 179.145 382.566 179.401 382.623C183.876 383.622 186.304 384.028 187.737 387.732Z" fill="black"/>
<path d="M164.812 308.282L163.421 340.973C163.421 340.973 161.337 347.648 162.468 349.558C163.598 351.467 165.505 353.372 164.812 354.501C164.119 355.63 155.783 367.836 153.089 363.153C150.395 358.471 147.738 338.179 147.738 338.179L150.223 313.116L164.812 308.282Z" fill="#444053"/>
<path d="M170.846 226.835L174.712 231.996V276.888C174.712 276.888 175.842 288.855 174.712 291.326C173.581 293.797 167.85 298.74 167.85 298.74L163.03 274.026L164.072 247.881L170.846 226.835Z" fill="#444053"/>
<path opacity="0.1" d="M164.812 308.282L163.421 340.973C163.421 340.973 161.337 347.648 162.468 349.558C163.598 351.467 165.505 353.372 164.812 354.501C164.119 355.63 155.783 367.836 153.089 363.153C150.395 358.471 147.738 338.179 147.738 338.179L150.223 313.116L164.812 308.282Z" fill="black"/>
<path opacity="0.1" d="M170.846 226.835L174.712 231.996V276.888C174.712 276.888 175.842 288.855 174.712 291.326C173.581 293.797 167.85 298.74 167.85 298.74L163.03 274.026L164.072 247.881L170.846 226.835Z" fill="black"/>
<path d="M174.711 207.688V231.97L170.371 250.873C170.371 250.873 168.98 296.487 170.194 302.034C171.408 307.58 166.026 312.788 166.026 312.788C166.026 312.788 162.9 313.137 162.9 315.562C162.9 317.986 157.689 324.927 157.689 324.927L157.861 338.455C157.861 338.455 160.123 363.778 156.647 368.632C153.172 373.486 157.861 374.184 157.861 374.184C153.521 388.403 132.68 385.11 130.799 383.549C128.918 381.988 130.799 351.29 130.799 351.29C130.799 351.29 135.457 304.464 139.104 302.382C142.752 300.301 139.281 297.7 140.495 294.578C141.709 291.456 139.281 282.96 139.281 282.96C139.281 282.96 138.239 272.897 135.634 268.043C133.029 263.188 133.373 249.832 133.373 249.832C133.373 249.832 126.079 240.118 123.911 236.304C121.744 232.491 120.347 222.605 120.868 215.144C121.223 210.102 123.875 202.761 125.558 198.536C126.365 196.512 126.949 195.201 126.949 195.201L127.444 195.331L155.902 202.771L174.711 207.688Z" fill="#444053"/>
<path opacity="0.1" d="M177.359 91.6611C174.67 92.4312 172.101 95.0743 169.866 98.2845H169.283C166.006 98.2868 162.787 97.4254 159.951 95.7874C157.115 94.1493 154.762 91.7926 153.131 88.9556C152.449 87.78 151.9 86.5323 151.495 85.2354C153.105 81.1511 154.298 77.6026 154.298 77.6026C154.298 77.6026 185.565 89.3198 177.359 91.6611Z" fill="black"/>
<path d="M187.909 78.6537C187.914 81.5005 187.264 84.3105 186.01 86.867C184.756 89.4236 182.931 91.6586 180.675 93.3998C178.42 95.141 175.794 96.3419 173 96.9102C170.207 97.4784 167.32 97.3988 164.562 96.6773C161.805 95.9559 159.249 94.612 157.094 92.749C154.938 90.8861 153.239 88.5539 152.128 85.9321C151.017 83.3102 150.524 80.4687 150.686 77.6265C150.848 74.7842 151.661 72.017 153.063 69.538C153.628 68.5308 154.287 67.5795 155.032 66.6972C156.261 65.2354 157.705 63.9688 159.315 62.9406C162.035 61.2149 165.156 60.2231 168.374 60.0622C171.592 59.9013 174.797 60.5768 177.676 62.0227C180.554 63.4686 183.008 65.6354 184.797 68.3115C186.586 70.9875 187.65 74.0813 187.883 77.2905C187.894 77.7483 187.909 78.201 187.909 78.6537Z" fill="#EFB7B9"/>
<path opacity="0.1" d="M172.257 123.181L172.195 123.753L163.53 110.225C162.624 112.364 162.118 113.795 162.118 113.795C162.118 113.795 141.538 98.3209 144.794 97.2803C145.888 96.9317 147.326 94.5904 148.749 91.6403L148.926 91.2657C150.437 95.7611 159.216 104.747 162.868 108.347C163.29 108.763 163.64 109.107 163.911 109.356L164.468 109.877L164.76 110.168C166.088 111.537 171.695 117.572 172.257 123.181Z" fill="black"/>
<path d="M178.734 169.082L177.786 199.556L177.619 204.982C177.619 204.982 166.385 203.942 155.902 202.797C147.462 201.876 139.505 200.882 138.281 200.3C136.718 199.566 133.368 198.999 130.726 198.64C128.684 198.364 127.079 198.218 127.079 198.218C127.079 198.218 126.48 198.395 125.558 198.562C123.546 198.926 120.014 199.223 117.956 197.438C115.325 195.154 122.239 186.855 123.963 184.862L124.344 184.43L123.692 178.421L121.999 162.838C121.999 162.838 120.957 153.863 119.394 149.05C118.976 147.682 118.674 146.281 118.492 144.862C117.912 140.466 118.209 135.999 119.368 131.719C119.863 129.9 120.177 128.037 120.306 126.157C120.566 121.344 135.285 102.744 138.932 101.053C140.573 100.289 141.893 98.9738 142.663 97.3376C142.917 96.8231 143.108 96.2798 143.231 95.7195C144.794 88.9556 148.749 91.6403 148.749 91.6403C149.702 96.9318 164.463 110.938 164.463 110.938L164.755 111.23C166.219 112.728 172.742 119.762 172.278 125.767C172.186 128.001 172.52 130.233 173.263 132.343C176.265 141.784 177.991 151.583 178.395 161.48L178.734 169.082Z" fill="white"/>
<path opacity="0.1" d="M157.82 132.895C157.82 132.895 154.173 141.74 151.437 143.171C148.702 144.602 159.122 146.188 157.82 132.895Z" fill="black"/>
<path opacity="0.1" d="M160.555 149.414C160.555 149.414 152.219 150.455 152.219 152.016C152.219 153.577 160.555 149.414 160.555 149.414Z" fill="black"/>
<path opacity="0.1" d="M169.283 159.56C169.283 159.56 157.169 185.315 153.782 186.095C150.395 186.876 169.283 159.56 169.283 159.56Z" fill="black"/>
<path opacity="0.1" d="M164.234 112.244L154.214 116.594L142.121 98.3521C142.375 97.8377 142.566 97.2943 142.689 96.734C144.252 89.9701 148.207 92.6549 148.207 92.6549C149.16 97.9463 163.921 111.953 163.921 111.953L164.234 112.244Z" fill="black"/>
<path d="M164.755 111.204L154.735 115.553L142.642 97.3116C142.896 96.7971 143.087 96.2537 143.21 95.6934C144.773 88.9295 148.728 91.6143 148.728 91.6143C149.681 96.9057 164.442 110.912 164.442 110.912L164.755 111.204Z" fill="white"/>
<path opacity="0.1" d="M177.619 204.982C177.619 204.982 166.386 203.942 155.902 202.797L174.712 207.714V213.437C173.888 214.181 173.175 214.566 172.711 214.369C170.543 213.458 152.854 210.596 152.854 210.596C152.854 210.596 142.58 205.393 131.492 199.15C131.223 199.001 130.962 198.838 130.711 198.661C129.418 197.784 128.304 196.67 127.428 195.378C125.381 192.417 124.38 188.614 123.948 184.883C123.705 182.745 123.614 180.593 123.677 178.442C123.73 176.003 123.953 173.571 124.344 171.163C123.271 161.836 122.749 152.455 122.781 143.067C122.911 128.498 136.588 123.295 136.588 123.295C161.728 121.084 153.933 161.667 153.933 161.667C153.933 161.667 152.479 173.114 152.083 174.285C151.687 175.455 150.265 177.406 150.458 180.138C150.65 182.87 155.454 186.137 155.454 186.137C155.454 186.137 160.144 188.333 162.077 191.585C163.483 193.983 172.622 197.235 177.786 199.556L177.619 204.982Z" fill="black"/>
<path opacity="0.1" d="M186.039 67.103C186.048 67.96 185.871 68.8088 185.518 69.59C185.251 70.2276 184.941 70.8464 184.59 71.4423C184.042 72.5385 183.264 73.5038 182.308 74.2727C181.105 75.1312 179.583 75.3706 178.14 75.7192C176.697 76.0678 175.196 76.6245 174.373 77.8524C173.927 78.6418 173.628 79.5057 173.492 80.4019C173.354 81.2973 172.996 82.1446 172.45 82.8681C172.166 83.2213 171.772 83.4702 171.331 83.5757C170.89 83.6812 170.426 83.6373 170.012 83.4508C169.576 83.1575 169.246 82.7327 169.069 82.2385C168.475 80.9013 168.324 79.4185 168.084 77.9773C167.845 76.536 167.506 75.0532 166.62 73.8929C165.734 72.7326 164.166 71.9678 162.775 72.4205C162.309 72.5995 161.885 72.8706 161.527 73.2175C161.168 73.5644 160.884 73.9799 160.691 74.4392C160.306 75.3588 160.041 76.3241 159.904 77.3113C159.258 80.8424 158.496 84.3527 157.617 87.8421C157.59 87.9852 157.531 88.1203 157.445 88.2376C157.306 88.3754 157.119 88.4538 156.924 88.4561C155.757 88.6122 154.636 87.7953 153.459 87.8838C153.338 87.8918 153.217 87.911 153.099 87.941C151.196 84.6369 150.355 80.8282 150.691 77.031C151.028 73.2338 152.525 69.6317 154.98 66.7128L155.074 66.6868C155.857 66.4091 156.569 65.9613 157.158 65.3756C157.91 64.624 158.607 63.8189 159.242 62.9666L159.659 62.4463C160.857 61.0056 162.221 59.7114 163.723 58.5909C164.133 58.2554 164.604 58.0011 165.109 57.8417C165.542 57.7575 165.985 57.7435 166.422 57.8001C168.221 58.0158 170.036 58.0836 171.846 58.003C173.108 57.8049 174.379 57.6764 175.655 57.618C178.953 57.7116 181.766 60.0373 183.851 62.5868C184.971 63.8928 185.971 65.3964 186.039 67.103Z" fill="black"/>
<path d="M150.629 70.0323C149.905 71.2186 148.597 72.025 148.108 73.3258C147.389 75.2145 148.603 77.5662 147.488 79.252C147.118 79.8191 146.508 80.2406 146.3 80.8909C145.945 81.9888 146.915 83.1594 146.664 84.2885C146.414 85.4175 144.924 86.3697 145.32 87.4727C145.554 87.9538 145.965 88.3264 146.466 88.5133C147.256 88.9656 148.165 89.167 149.072 89.0908C150.494 88.8567 151.552 87.4623 152.995 87.3582C154.167 87.275 155.287 88.0867 156.455 87.9358C156.65 87.929 156.836 87.8491 156.976 87.7121C157.064 87.5961 157.123 87.4604 157.148 87.3166C158.023 83.8306 158.787 80.3203 159.44 76.7858C159.573 75.7983 159.836 74.8326 160.222 73.9137C160.417 73.4553 160.701 73.0406 161.059 72.6939C161.417 72.3472 161.841 72.0755 162.306 71.895C163.697 71.4475 165.26 72.2071 166.151 73.3674C167.042 74.5277 167.381 76.0105 167.62 77.4518C167.86 78.893 168.011 80.3758 168.6 81.713C168.779 82.2089 169.111 82.6353 169.548 82.9305C170.33 83.3832 171.382 83.0242 171.981 82.3478C172.53 81.624 172.888 80.7742 173.023 79.8763C173.159 78.9818 173.458 78.1196 173.904 77.3321C174.727 76.1042 176.233 75.5475 177.671 75.1989C179.109 74.8503 180.625 74.6057 181.839 73.7472C182.793 72.9791 183.571 72.0157 184.121 70.922C184.892 69.5796 185.611 68.1228 185.549 66.5775C185.481 64.8917 184.481 63.3881 183.413 62.0769C181.329 59.5274 178.51 57.2017 175.212 57.1133C173.936 57.1665 172.664 57.2951 171.403 57.4983C169.592 57.5796 167.778 57.51 165.979 57.2902C165.542 57.2379 165.099 57.2537 164.666 57.337C164.16 57.4913 163.69 57.7462 163.285 58.0862C161.782 59.2049 160.416 60.4973 159.216 61.9364C158.443 62.9606 157.604 63.9338 156.705 64.8501C156.115 65.4367 155.404 65.8862 154.621 66.1665C154.1 66.3121 153.579 66.2081 153.084 66.3694C151.547 66.8533 151.343 68.8564 150.629 70.0323Z" fill="#965D7B"/>
<path opacity="0.1" d="M200.805 84.1792C196.637 84.9441 193.182 81.5777 191.27 79.1219C190.683 78.3761 190.148 77.5903 189.67 76.7702L203.978 79.4653L204.556 79.5746C204.556 79.5746 207.187 83.0138 200.805 84.1792Z" fill="black"/>
<g opacity="0.1">
<path opacity="0.1" d="M146.665 82.8004C146.723 82.1199 146.619 81.4354 146.363 80.8025C146.363 80.8545 146.316 80.9065 146.3 80.9586C146.076 81.6558 146.378 82.379 146.571 83.1022C146.612 83.005 146.644 82.9039 146.665 82.8004Z" fill="black"/>
<path opacity="0.1" d="M147.905 74.2831C147.851 75.0026 147.865 75.7255 147.946 76.4424C148 75.7229 147.986 75 147.905 74.2831Z" fill="black"/>
<path opacity="0.1" d="M184.09 69.4183C183.542 70.5145 182.764 71.4798 181.808 72.2487C180.605 73.1072 179.088 73.3466 177.64 73.6952C176.191 74.0438 174.696 74.6005 173.873 75.8284C173.427 76.6181 173.129 77.4819 172.992 78.3779C172.857 79.2755 172.498 80.1251 171.95 80.8493C171.351 81.5257 170.299 81.8899 169.517 81.432C169.08 81.1368 168.748 80.7105 168.569 80.2145C167.98 78.8774 167.824 77.3997 167.589 75.9533C167.355 74.5068 167.006 73.0292 166.12 71.8689C165.234 70.7087 163.666 69.9438 162.275 70.3965C161.81 70.5763 161.385 70.8476 161.027 71.1944C160.669 71.5412 160.385 71.9564 160.191 72.4152C159.805 73.3342 159.542 74.2998 159.409 75.2873C158.759 78.8219 157.995 82.3321 157.117 85.8181C157.092 85.9619 157.033 86.0976 156.945 86.2136C156.805 86.3507 156.619 86.4305 156.424 86.4373C155.256 86.5882 154.136 85.7765 152.964 85.8598C151.521 85.9638 150.463 87.3582 149.041 87.5872C148.133 87.6684 147.223 87.4666 146.435 87.0096C146.073 86.854 145.748 86.6235 145.482 86.3333C145.36 86.5076 145.279 86.7073 145.246 86.9173C145.213 87.1272 145.227 87.3421 145.289 87.5455C145.519 88.0299 145.931 88.404 146.435 88.5861C147.223 89.0431 148.133 89.2449 149.041 89.1637C150.463 88.9347 151.521 87.5403 152.964 87.4363C154.136 87.353 155.256 88.1647 156.424 88.0138C156.619 88.007 156.805 87.9272 156.945 87.7901C157.033 87.6741 157.092 87.5384 157.117 87.3947C157.992 83.926 158.756 80.4157 159.409 76.8638C159.542 75.8763 159.805 74.9107 160.191 73.9917C160.385 73.5329 160.669 73.1177 161.027 72.7709C161.385 72.4241 161.81 72.1528 162.275 71.973C163.666 71.5203 165.229 72.2852 166.12 73.4454C167.011 74.6057 167.35 76.0885 167.589 77.5298C167.829 78.971 167.98 80.4539 168.569 81.791C168.748 82.287 169.08 82.7133 169.517 83.0085C170.299 83.4612 171.351 83.1022 171.95 82.4258C172.498 81.7016 172.857 80.852 172.992 79.9544C173.129 79.0584 173.427 78.1946 173.873 77.4049C174.696 76.177 176.202 75.6255 177.64 75.2717C179.078 74.9179 180.594 74.6837 181.808 73.8252C182.764 73.0563 183.542 72.091 184.09 70.9948C184.861 69.6576 185.58 68.2008 185.518 66.6555C185.508 66.4568 185.487 66.2588 185.455 66.0624C185.204 67.2532 184.742 68.3897 184.09 69.4183Z" fill="black"/>
</g>
<path opacity="0.1" d="M185.538 69.5744C186.875 71.9467 187.667 74.5857 187.857 77.3009C183.215 74.6994 178.848 71.8429 176.645 70.8491C172.805 69.1165 158.445 69.3767 153.047 69.538C153.612 68.5307 154.271 67.5795 155.017 66.6972C156.25 65.2342 157.7 63.9675 159.315 62.9406C161.455 61.5846 163.849 60.6786 166.351 60.2779C168.853 59.8773 171.411 59.9904 173.867 60.6103C176.324 61.2302 178.629 62.344 180.64 63.8835C182.651 65.423 184.327 67.3559 185.565 69.564L185.538 69.5744Z" fill="black"/>
<path opacity="0.1" d="M202.107 81.9732C199.601 82.7432 195.511 81.2552 191.27 79.1219C190.683 78.3761 190.148 77.5903 189.67 76.7702L203.978 79.4653C204.926 80.1105 205.166 81.0314 202.107 81.9732Z" fill="black"/>
<path d="M170.392 51.5357C170.392 51.5357 156.715 50.7552 152.87 58.1695L152.25 64.7409L151.208 64.6264L151 69.0958C151 69.0958 171.903 68.1852 176.66 70.3289C181.417 72.4725 196.199 83.2739 202.123 81.4529C208.047 79.6318 201.602 77.9408 201.602 77.9408C201.602 77.9408 193.448 74.4913 193.448 71.7857C193.448 69.0801 191.426 54.7875 170.392 51.5357Z" fill="#444053"/>
<path opacity="0.1" d="M144.012 295.14C144.012 295.14 152.74 303.595 156.517 302.944C156.517 302.944 145.836 302.034 144.012 295.14Z" fill="black"/>
<path opacity="0.1" d="M142.189 299.058C142.189 299.058 142.971 303.407 145.055 302.981C147.139 302.554 142.189 299.058 142.189 299.058Z" fill="black"/>
<path opacity="0.1" d="M155.866 371.754C155.866 371.754 143.476 381.379 145.565 381.64C147.655 381.9 155.866 371.754 155.866 371.754Z" fill="black"/>
<path d="M172.44 180.716L212.559 174.196V212.126L174.441 210.133L172.44 180.716Z" fill="#FFF021"/>
<path opacity="0.05" d="M172.44 180.716L212.559 174.196V212.126L174.441 210.133L172.44 180.716Z" fill="black"/>
<path d="M212.559 174.196L260.671 177.791L258.008 210.799L212.559 212.126V174.196Z" fill="#FFF021"/>
<path opacity="0.1" d="M212.559 174.196L260.671 177.791L258.008 210.799L212.559 212.126V174.196Z" fill="black"/>
<path d="M227.351 162.62L212.559 174.196L260.671 177.791L268.533 165.944L227.351 162.62Z" fill="#FFF021"/>
<path d="M157.914 168.072L194.031 163.681L212.559 174.196L172.44 180.716L157.914 168.072Z" fill="#FFF021"/>
<path d="M221.354 184.046V235.904L202.561 233.979L194.386 233.146L191.895 232.886L183.725 232.048L172.44 230.893V180.716L212.554 183.442L221.354 184.046Z" fill="#FFF021"/>
<path d="M260.671 177.791V228.365L245.608 231.252L238.282 232.657L221.354 235.904V184.045L260.671 177.791Z" fill="#FFF021"/>
<path opacity="0.05" d="M260.671 177.791V228.365L245.608 231.252L238.282 232.657L221.354 235.904V184.045L260.671 177.791Z" fill="black"/>
<path d="M157.914 191.631L172.44 180.716L221.354 184.046L214.153 196.158L157.914 191.631Z" fill="#FFF021"/>
<path opacity="0.1" d="M157.914 191.631L172.44 180.716L221.354 184.046L214.153 196.158L157.914 191.631Z" fill="white"/>
<path d="M260.671 177.791L221.354 184.045L234.151 195.492L276.266 188.437L260.671 177.791Z" fill="#FFF021"/>
<path opacity="0.1" d="M260.671 177.791L221.354 184.045L234.151 195.492L276.266 188.437L260.671 177.791Z" fill="white"/>
<path opacity="0.1" d="M245.608 231.252L238.282 232.657V221.85L245.144 220.123L245.608 231.252Z" fill="white"/>
<path opacity="0.1" d="M202.561 226.83V233.979L194.386 233.146V226.83H202.561Z" fill="white"/>
<path opacity="0.1" d="M191.895 229.083V232.886L183.725 232.048V229.083H191.895Z" fill="white"/>
<path opacity="0.1" d="M216.436 223.037C210.835 230.191 192.338 225.248 192.338 225.248L178.593 210.929L176.728 208.989L180.375 202.225C180.375 202.225 181.417 202.568 183.158 203.172C192.369 206.387 221.151 217.017 216.436 223.037Z" fill="black"/>
<path d="M215.915 221.996C210.314 229.15 191.817 224.207 191.817 224.207L178.072 209.889L176.207 207.948L179.854 201.184C179.854 201.184 180.896 201.528 182.637 202.131C191.848 205.347 220.63 215.976 215.915 221.996Z" fill="#EFB7B9"/>
<path opacity="0.1" d="M182.616 202.131C181.855 204.316 179.922 207.553 178.051 209.889L176.186 207.948L179.833 201.184C179.833 201.184 180.881 201.528 182.616 202.131Z" fill="black"/>
<path d="M137.109 121.214C137.109 121.214 123.432 126.417 123.302 140.986C123.27 150.373 123.792 159.755 124.865 169.082C124.865 169.082 120.957 190.804 132.029 197.048C143.101 203.291 153.391 208.494 153.391 208.494C153.391 208.494 171.08 211.356 173.253 212.267C175.425 213.177 182.975 201.47 181.803 199.519C180.63 197.568 164.525 192.755 162.613 189.503C160.701 186.252 155.991 184.061 155.991 184.061C155.991 184.061 151.187 180.788 150.994 178.057C150.802 175.325 152.219 173.374 152.62 172.203C153.021 171.033 154.475 159.586 154.475 159.586C154.475 159.586 162.249 118.977 137.109 121.214Z" fill="white"/>
<path opacity="0.1" d="M143.361 169.446C143.361 169.446 124.865 171.527 126.297 178.031C126.297 178.031 133.326 171.47 143.361 169.446Z" fill="black"/>
<path opacity="0.1" d="M143.361 172.047C143.361 172.047 132.862 179.722 134.79 180.242C136.718 180.762 143.361 172.047 143.361 172.047Z" fill="black"/>
<path opacity="0.1" d="M148.05 175.169C148.05 175.169 145.054 180.549 146.748 180.268C148.441 179.987 148.05 175.169 148.05 175.169Z" fill="black"/>
<path d="M340.633 58.4764C340.633 58.4764 320.834 57.285 323.148 71.1561C323.148 71.1561 322.684 73.6067 324.909 74.7202C324.909 74.7202 324.945 73.6796 326.941 74.0386C327.651 74.158 328.374 74.193 329.093 74.1427C330.067 74.0778 330.993 73.6958 331.729 73.0552C331.729 73.0552 337.299 70.7607 339.466 61.6659C339.466 61.6659 341.071 59.6783 341.029 59.1684L337.684 60.5993C337.684 60.5993 338.825 63.0083 337.924 65.0114C337.924 65.0114 337.82 60.6877 337.174 60.7866C337.044 60.7866 335.439 61.6243 335.439 61.6243C335.439 61.6243 337.403 65.8179 335.918 68.872C335.918 68.872 336.481 63.7003 334.824 61.926L332.469 63.2996C332.469 63.2996 334.767 67.6337 333.209 71.1718C333.209 71.1718 333.61 65.745 331.974 63.6326L329.838 65.2924C329.838 65.2924 332 69.5692 330.682 72.5037C330.682 72.5037 330.51 66.1873 329.374 65.7086C329.374 65.7086 327.509 67.3528 327.227 68.0291C327.227 68.0291 328.702 71.1509 327.785 72.7691C327.785 72.7691 327.222 68.5598 326.743 68.539C326.743 68.539 324.883 71.3278 324.69 73.2217C324.78 71.4561 325.332 69.7448 326.29 68.2581C325.217 68.4606 324.228 68.9725 323.445 69.7305C323.445 69.7305 323.731 67.7586 326.748 67.5869C326.748 67.5869 328.311 65.4693 328.697 65.3392C328.697 65.3392 325.696 65.0894 323.877 65.8959C323.877 65.8959 325.477 64.0384 329.249 64.8553L331.333 63.1383C331.333 63.1383 327.384 62.618 325.706 63.1956C325.706 63.1956 327.634 61.5514 331.901 62.7481L334.194 61.3797C334.194 61.3797 330.828 60.6513 328.822 60.9167C328.822 60.9167 330.937 59.7772 334.866 61.0103L336.507 60.2767C336.507 60.2767 334.037 59.7928 333.318 59.7148C332.599 59.6367 332.558 59.439 332.558 59.439C334.12 59.1793 335.724 59.3595 337.189 59.9593C337.189 59.9593 340.706 58.695 340.633 58.4764Z" fill="#FFF021"/>
<path opacity="0.1" d="M400.791 127.853C400.791 127.853 380.992 126.662 383.306 140.533C383.306 140.533 382.842 142.983 385.067 144.097C385.067 144.097 385.103 143.056 387.104 143.415C387.815 143.535 388.537 143.57 389.256 143.519C390.219 143.45 391.133 143.07 391.861 142.437C391.861 142.437 397.436 140.137 399.603 131.043C399.603 131.043 401.203 129.06 401.14 128.55L397.795 129.976C397.795 129.976 398.937 132.385 398.04 134.388C398.04 134.388 397.931 130.064 397.29 130.163C397.16 130.163 395.55 131.001 395.55 131.001C395.55 131.001 397.519 135.2 396.034 138.249C396.034 138.249 396.597 133.077 394.935 131.303L392.606 132.661C392.606 132.661 394.904 136.995 393.346 140.533C393.346 140.533 393.747 135.106 392.111 132.994L389.98 134.659C389.98 134.659 392.137 138.93 390.824 141.865C390.824 141.865 390.652 135.548 389.516 135.07C389.516 135.07 387.651 136.714 387.364 137.39C387.364 137.39 388.844 140.512 387.927 142.13C387.927 142.13 387.364 137.921 386.885 137.9C386.885 137.9 385.025 140.689 384.832 142.583C384.925 140.817 385.479 139.106 386.437 137.619C385.364 137.822 384.373 138.334 383.587 139.092C383.587 139.092 383.879 137.12 386.896 136.948C386.896 136.948 388.433 134.83 388.844 134.7C388.844 134.7 385.843 134.451 384.025 135.257C384.025 135.257 385.624 133.4 389.391 134.242L391.475 132.525C391.475 132.525 387.521 132.005 385.848 132.583C385.848 132.583 387.776 130.938 392.043 132.135L394.336 130.767C394.336 130.767 390.965 130.044 388.959 130.304C388.959 130.304 391.079 129.164 395.008 130.397L396.649 129.664C396.649 129.664 394.18 129.18 393.455 129.102C392.731 129.024 392.695 128.826 392.695 128.826C394.259 128.566 395.864 128.746 397.332 129.346C397.332 129.346 400.854 128.072 400.791 127.853Z" fill="#FFF021"/>
<path opacity="0.1" d="M280.512 115.538C280.512 115.538 285.071 96.2397 270.982 96.1721C270.982 96.1721 268.643 95.298 267.168 97.296C267.168 97.296 268.174 97.5093 267.491 99.4136C267.255 100.087 267.098 100.785 267.022 101.495C266.921 102.462 267.139 103.436 267.642 104.268C267.642 104.268 268.961 110.147 277.542 113.831C277.542 113.831 279.23 115.746 279.741 115.767L278.907 112.234C278.907 112.234 276.333 112.947 274.51 111.713C274.51 111.713 278.798 112.343 278.803 111.713C278.803 111.583 278.282 109.861 278.282 109.861C278.282 109.861 273.806 111.079 271.045 109.096C271.045 109.096 276.052 110.532 278.089 109.206L277.151 106.646C277.151 106.646 272.462 108.17 269.252 106.032C269.252 106.032 274.541 107.353 276.906 106.105L275.63 103.722C275.63 103.722 271.045 105.116 268.372 103.321C268.372 103.321 274.624 104.226 275.302 103.196C275.302 103.196 273.999 101.079 273.379 100.683C273.379 100.683 270.065 101.609 268.606 100.428C268.606 100.428 272.853 100.589 272.952 100.142C272.952 100.142 270.519 97.8371 268.664 97.3168C270.392 97.7098 271.989 98.5454 273.296 99.7414C273.277 98.6509 272.94 97.5897 272.327 96.6872C272.327 96.6872 274.223 97.3116 273.89 100.329C273.89 100.329 275.713 102.202 275.771 102.629C275.771 102.629 276.526 99.7206 276.041 97.7902C276.041 97.7902 277.605 99.6841 276.13 103.248L277.464 105.616C277.464 105.616 278.673 101.817 278.365 100.069C278.365 100.069 279.663 102.244 277.75 106.24L278.714 108.732C278.714 108.732 280.001 105.538 280.085 103.529C280.085 103.529 280.851 105.808 278.959 109.466L279.407 111.204C279.407 111.204 280.304 108.857 280.501 108.16C280.699 107.463 280.903 107.457 280.903 107.457C280.895 109.04 280.445 110.59 279.605 111.932C279.605 111.932 280.288 115.564 280.512 115.538Z" fill="#FFF021"/>
<path opacity="0.1" d="M237.152 122.114C237.152 122.114 221.25 110.236 215.565 123.103C215.565 123.103 213.83 124.898 215.076 127.047C215.076 127.047 215.67 126.209 217.16 127.598C217.688 128.089 218.272 128.515 218.9 128.868C219.751 129.341 220.733 129.524 221.698 129.388C221.698 129.388 227.617 130.527 234.432 124.123C234.432 124.123 236.865 123.342 237.094 122.884L233.504 122.255C233.504 122.255 233.129 124.893 231.28 126.074C231.28 126.074 233.567 122.4 232.973 122.135C232.853 122.078 231.061 121.875 231.061 121.875C231.061 121.875 230.394 126.464 227.476 128.197C227.476 128.197 230.795 124.185 230.383 121.792L227.658 121.646C227.658 121.646 227.195 126.532 223.944 128.634C223.944 128.634 227.262 124.32 227.07 121.656L224.371 121.875C224.371 121.875 223.824 126.625 221.109 128.353C221.109 128.353 224.439 122.983 223.756 121.963C223.756 121.963 221.292 122.312 220.682 122.718C220.682 122.718 220.208 126.121 218.54 126.984C218.54 126.984 220.39 123.16 220.015 122.895C220.015 122.895 216.925 124.201 215.711 125.689C216.761 124.264 218.166 123.138 219.786 122.421C218.778 122.003 217.67 121.887 216.597 122.088C216.597 122.088 217.92 120.6 220.536 122.114C220.536 122.114 222.985 121.193 223.402 121.308C223.402 121.308 221.031 119.45 219.067 119.128C219.067 119.128 221.432 118.451 224.115 121.209L226.82 120.933C226.82 120.933 223.813 118.332 222.089 117.895C222.089 117.895 224.605 117.577 227.507 120.918L230.175 121.037C230.175 121.037 227.763 118.581 225.944 117.697C225.944 117.697 228.336 117.905 230.941 121.094L232.718 121.381C232.718 121.381 230.92 119.622 230.357 119.164C229.795 118.706 229.873 118.514 229.873 118.514C231.322 119.155 232.565 120.185 233.463 121.49C233.463 121.49 237.084 122.328 237.152 122.114Z" fill="#FFF021"/>
<path opacity="0.1" d="M290.093 11.7536C290.093 11.7536 274.192 -0.13007 268.507 12.7421C268.507 12.7421 266.772 14.5372 268.017 16.686C268.017 16.686 268.611 15.8483 270.102 17.2375C270.632 17.7253 271.218 18.1497 271.847 18.5018C272.698 18.9754 273.68 19.1581 274.645 19.0221C274.645 19.0221 280.564 20.1616 287.379 13.7515C287.379 13.7515 289.812 12.9763 290.036 12.5132L286.446 11.894C286.446 11.894 286.076 14.532 284.221 15.713C284.221 15.713 286.514 12.0397 285.92 11.7744C285.8 11.7171 284.008 11.5142 284.008 11.5142C284.008 11.5142 283.32 16.1137 280.402 17.8359C280.402 17.8359 283.716 13.8244 283.31 11.431L280.585 11.2853C280.585 11.2853 280.116 16.1709 276.87 18.2677C276.87 18.2677 280.189 13.9544 279.996 11.2905L277.302 11.509C277.302 11.509 276.75 16.2646 274.035 17.992C274.035 17.992 277.37 12.6225 276.687 11.6027C276.687 11.6027 274.223 11.9513 273.613 12.3571C273.613 12.3571 273.139 15.7599 271.472 16.6236C271.472 16.6236 273.322 12.7994 272.946 12.5288C272.946 12.5288 269.857 13.84 268.643 15.328C269.691 13.9017 271.096 12.7751 272.717 12.0605C271.708 11.6391 270.598 11.5233 269.523 11.7276C269.523 11.7276 270.852 10.2395 273.467 11.7536C273.467 11.7536 275.916 10.8274 276.333 10.9471C276.333 10.9471 273.962 9.08964 271.998 8.76185C271.998 8.76185 274.358 8.09066 277.042 10.843L279.746 10.5673C279.746 10.5673 276.745 7.96579 275.015 7.52353C275.015 7.52353 277.531 7.21135 280.439 10.5517L283.106 10.6661C283.106 10.6661 280.694 8.21033 278.871 7.33103C278.871 7.33103 281.267 7.53914 283.872 10.7286L285.644 11.0147C285.644 11.0147 283.841 9.27694 283.278 8.82949C282.716 8.38203 282.794 8.18432 282.794 8.18432C284.244 8.82459 285.487 9.85504 286.384 11.1604C286.384 11.1604 290.005 11.9513 290.093 11.7536Z" fill="#FFF021"/>
<path opacity="0.1" d="M350.856 26.8058C350.856 26.8058 344.5 8.0178 332.511 15.4008C332.511 15.4008 330.062 15.9211 329.869 18.3718C329.869 18.3718 330.833 18.018 331.26 19.9951C331.419 20.6984 331.659 21.381 331.974 22.0295C332.405 22.9021 333.107 23.6122 333.975 24.0534C333.975 24.0534 338.206 28.3459 347.459 26.9255C347.459 26.9255 349.903 27.6643 350.351 27.4094L347.746 24.8547C347.746 24.8547 345.943 26.8162 343.744 26.7382C343.744 26.7382 347.72 25.0108 347.391 24.4541C347.324 24.3448 345.964 23.1637 345.964 23.1637C345.964 23.1637 342.806 26.5613 339.42 26.3375C339.42 26.3375 344.427 24.9119 345.448 22.6954L343.291 21.0357C343.291 21.0357 340.133 24.7922 336.262 24.6778C336.262 24.6778 341.472 23.0076 342.791 20.6975L340.446 19.3499C340.446 19.3499 337.32 22.9556 334.079 22.8411C334.079 22.8411 339.873 20.3073 339.889 19.0794C339.889 19.0794 337.664 17.9711 336.929 17.9607C336.929 17.9607 334.605 20.4946 332.761 20.2656C332.761 20.2656 336.45 18.1584 336.293 17.7266C336.293 17.7266 333.011 17.0554 331.161 17.5965C332.834 17.0148 334.63 16.8803 336.372 17.2063C335.777 16.29 334.928 15.5668 333.928 15.1251C333.928 15.1251 335.866 14.6516 337.164 17.378C337.164 17.378 339.706 18.0075 339.977 18.3353C339.977 18.3353 339.081 15.4685 337.648 14.0845C337.648 14.0845 339.977 14.8701 340.613 18.6735L342.999 19.9743C342.999 19.9743 342.014 16.1189 340.826 14.7713C340.826 14.7713 343.082 15.9368 343.572 20.3333L345.708 21.941C345.708 21.941 345.114 18.5487 344.114 16.79C344.114 16.79 345.969 18.3197 346.302 22.4249L347.6 23.6632C347.6 23.6632 347.12 21.197 346.922 20.4998C346.724 19.8026 346.886 19.7558 346.886 19.7558C347.714 21.1055 348.152 22.6577 348.152 24.2407C348.152 24.2407 350.674 26.9411 350.856 26.8058Z" fill="#FFF021"/>
<path opacity="0.1" d="M309.372 27.7319C309.372 27.7319 289.625 25.5363 291.255 39.5271C291.255 39.5271 290.667 41.9517 292.818 43.1692C292.818 43.1692 292.907 42.1286 294.903 42.5969C295.608 42.7484 296.328 42.82 297.049 42.8102C298.024 42.7926 298.966 42.4584 299.733 41.858C299.733 41.858 305.417 39.8445 308.069 30.8693C308.069 30.8693 309.768 28.9702 309.731 28.4551L306.318 29.7143C306.318 29.7143 307.36 32.1753 306.318 34.1316C306.318 34.1316 306.428 29.8079 305.797 29.8756C305.667 29.8756 304.021 30.6248 304.021 30.6248C304.021 30.6248 305.771 34.9173 304.135 37.909C304.135 37.909 304.958 32.7684 303.39 30.9162L300.967 32.1649C300.967 32.1649 303.052 36.6134 301.306 40.0682C301.306 40.0682 301.983 34.6675 300.457 32.4771L298.242 34.038C298.242 34.038 300.181 38.4137 298.717 41.2805C298.717 41.2805 298.868 34.9641 297.758 34.4282C297.758 34.4282 295.809 35.9891 295.491 36.6342C295.491 36.6342 296.81 39.8081 295.814 41.395C295.814 41.395 295.465 37.165 295.007 37.1233C295.007 37.1233 293.006 39.8133 292.714 41.7124C292.895 39.9517 293.535 38.269 294.569 36.832C293.488 36.9812 292.474 37.4423 291.651 38.1587C291.651 38.1587 292.037 36.2076 295.059 36.1868C295.059 36.1868 296.7 34.1524 297.143 34.0432C297.143 34.0432 294.158 33.6425 292.297 34.3553C292.297 34.3553 293.991 32.5759 297.711 33.6113L299.905 32.0036C299.905 32.0036 295.939 31.2023 294.262 31.7226C294.262 31.7226 296.273 30.1617 300.472 31.5926L302.833 30.3386C302.833 30.3386 299.503 29.4437 297.487 29.605C297.487 29.605 299.66 28.5644 303.52 30.0056L305.198 29.3553C305.198 29.3553 302.755 28.7465 302.035 28.632C301.316 28.5176 301.29 28.3199 301.29 28.3199C302.866 28.1394 304.46 28.3988 305.896 29.0691C305.896 29.0691 309.408 27.9505 309.372 27.7319Z" fill="#FFF021"/>
<path opacity="0.1" d="M482.145 180.788C482.145 180.788 462.408 178.593 464.039 192.568C464.039 192.568 463.45 194.993 465.602 196.21C465.602 196.21 465.691 195.169 467.686 195.632C468.391 195.789 469.111 195.861 469.833 195.846C470.808 195.831 471.751 195.496 472.516 194.894C472.516 194.894 478.201 192.88 480.827 183.91C480.827 183.91 482.525 182.006 482.489 181.496L479.076 182.75C479.076 182.75 480.118 185.216 479.076 187.172C479.076 187.172 479.186 182.844 478.555 182.916C478.425 182.916 476.778 183.66 476.778 183.66C476.778 183.66 478.529 187.953 476.893 190.945C476.893 190.945 477.716 185.809 476.148 183.952L473.725 185.206C473.725 185.206 475.809 189.654 474.069 193.109C474.069 193.109 474.741 187.708 473.214 185.513L471 187.074C471 187.074 472.938 191.449 471.474 194.311C471.474 194.311 471.625 187.994 470.516 187.464C470.516 187.464 468.572 189.025 468.249 189.67C468.249 189.67 469.572 192.844 468.572 194.431C468.572 194.431 468.223 190.201 467.765 190.159C467.765 190.159 465.764 192.849 465.472 194.748C465.653 192.987 466.292 191.305 467.327 189.868C466.245 190.014 465.23 190.476 464.409 191.194C464.409 191.194 464.795 189.238 467.817 189.217C467.817 189.217 469.463 187.183 469.901 187.079C469.901 187.079 466.915 186.673 465.055 187.386C465.055 187.386 466.749 185.612 470.474 186.647L472.662 185.039C472.662 185.039 468.744 184.3 467.04 184.81C467.04 184.81 469.051 183.249 473.251 184.675L475.611 183.426C475.611 183.426 472.282 182.531 470.265 182.693C470.265 182.693 472.438 181.652 476.299 183.093L477.977 182.438C477.977 182.438 475.533 181.829 474.814 181.72C474.095 181.61 474.069 181.408 474.069 181.408C475.644 181.224 477.239 181.481 478.675 182.152C478.675 182.152 482.197 181.012 482.145 180.788Z" fill="#FFF021"/>
<path opacity="0.1" d="M512.318 199.197C512.318 199.197 492.581 197.006 494.212 210.976C494.212 210.976 493.628 213.401 495.775 214.618C495.775 214.618 495.864 213.578 497.859 214.046C498.562 214.199 499.281 214.269 500.001 214.254C500.97 214.234 501.908 213.902 502.673 213.307C502.673 213.307 508.353 211.294 510.979 202.318C510.979 202.318 512.682 200.419 512.641 199.904L509.228 201.158C509.228 201.158 510.27 203.624 509.228 205.581C509.228 205.581 509.337 201.257 508.707 201.325C508.577 201.325 506.93 202.069 506.93 202.069C506.93 202.069 508.681 206.361 507.045 209.353C507.045 209.353 507.868 204.218 506.3 202.365L503.877 203.614C503.877 203.614 505.961 208.063 504.221 211.517C504.221 211.517 504.893 206.117 503.366 203.926L501.152 205.487C501.152 205.487 503.09 209.863 501.631 212.73C501.631 212.73 501.777 206.408 500.668 205.877C500.668 205.877 498.724 207.438 498.401 208.083C498.401 208.083 499.724 211.257 498.724 212.844C498.724 212.844 498.375 208.614 497.916 208.572C497.916 208.572 495.916 211.262 495.629 213.161C495.81 211.402 496.447 209.719 497.479 208.281C496.398 208.43 495.384 208.891 494.561 209.608C494.561 209.608 494.952 207.651 497.974 207.636C497.974 207.636 499.615 205.602 500.058 205.492C500.058 205.492 497.072 205.092 495.212 205.804C495.212 205.804 496.906 204.025 500.631 205.06L502.819 203.453C502.819 203.453 498.901 202.714 497.197 203.224C497.197 203.224 499.209 201.663 503.408 203.094L505.768 201.84C505.768 201.84 502.439 200.945 500.423 201.106C500.423 201.106 502.595 200.066 506.456 201.507L508.134 200.856C508.134 200.856 505.69 200.248 504.976 200.133C504.263 200.019 504.226 199.821 504.226 199.821C505.801 199.64 507.396 199.9 508.832 200.57C508.832 200.57 512.37 199.42 512.318 199.197Z" fill="#FFF021"/>
<path opacity="0.1" d="M445.329 44.1422C445.329 44.1422 429.427 32.2638 423.743 45.1308C423.743 45.1308 422.008 46.9258 423.253 49.0746C423.253 49.0746 423.847 48.2369 425.337 49.6261C425.865 50.1165 426.449 50.5426 427.077 50.8957C427.929 51.3685 428.911 51.5512 429.875 51.416C429.875 51.416 435.794 52.5554 442.614 46.1505C442.614 46.1505 445.042 45.3701 445.272 44.9122L441.692 44.2671C441.692 44.2671 441.317 46.905 439.467 48.0861C439.467 48.0861 441.755 44.4127 441.161 44.1474C441.041 44.0902 439.254 43.8872 439.254 43.8872C439.254 43.8872 438.582 48.4763 435.664 50.2089C435.664 50.2089 438.983 46.1974 438.571 43.804L435.846 43.6583C435.846 43.6583 435.383 48.5439 432.131 50.6459C432.131 50.6459 435.456 46.3327 435.258 43.6687L432.559 43.8872C432.559 43.8872 432.038 48.6376 429.297 50.365C429.297 50.365 432.632 44.9955 431.944 43.9757C431.944 43.9757 429.479 44.3243 428.87 44.7301C428.87 44.7301 428.401 48.1329 426.734 48.9966C426.734 48.9966 428.578 45.1724 428.203 44.907C428.203 44.907 425.113 46.213 423.899 47.701C424.949 46.2763 426.354 45.15 427.974 44.4336C426.966 44.0153 425.858 43.8995 424.785 44.1006C424.785 44.1006 426.114 42.6125 428.729 44.1266C428.729 44.1266 431.173 43.2056 431.59 43.3201C431.59 43.3201 429.219 41.4627 427.255 41.1401C427.255 41.1401 429.62 40.4637 432.303 43.2213L435.007 42.9455C435.007 42.9455 432.006 40.344 430.277 39.907C430.277 39.907 432.793 39.5896 435.695 42.9299L438.368 43.0496C438.368 43.0496 435.951 40.5938 434.132 39.7092C434.132 39.7092 436.529 39.9174 439.129 43.1068L440.905 43.393C440.905 43.393 439.108 41.6343 438.545 41.1765C437.983 40.7186 438.066 40.5677 438.066 40.5677C439.513 41.2098 440.754 42.2399 441.651 43.5438C441.651 43.5438 445.261 44.3555 445.329 44.1422Z" fill="#FFF021"/>
<path opacity="0.1" d="M457.615 129.898C457.615 129.898 452.134 110.839 439.806 117.681C439.806 117.681 437.336 118.061 437.029 120.527C437.029 120.527 438.009 120.22 438.347 122.213C438.473 122.929 438.683 123.628 438.972 124.294C439.359 125.191 440.029 125.936 440.879 126.417C440.879 126.417 444.912 130.892 454.218 129.893C454.218 129.893 456.625 130.736 457.083 130.507L454.619 127.832C454.619 127.832 452.728 129.716 450.539 129.539C450.539 129.539 454.583 127.978 454.27 127.421C454.207 127.307 452.905 126.063 452.905 126.063C452.905 126.063 449.601 129.32 446.225 128.941C446.225 128.941 451.295 127.744 452.41 125.59L450.326 123.831C450.326 123.831 447.002 127.442 443.141 127.161C443.141 127.161 448.393 125.72 449.841 123.477L447.559 122.026C447.559 122.026 444.251 125.486 441.041 125.226C441.041 125.226 446.944 122.952 447.017 121.729C447.017 121.729 444.839 120.522 444.105 120.481C444.105 120.481 441.671 122.905 439.822 122.593C439.822 122.593 443.604 120.652 443.469 120.215C443.469 120.215 440.218 119.398 438.347 119.851C440.041 119.349 441.837 119.297 443.558 119.7C443.006 118.759 442.191 117.999 441.213 117.515C441.213 117.515 443.172 117.125 444.339 119.908C444.339 119.908 446.845 120.647 447.106 120.99C447.106 120.99 446.34 118.082 444.97 116.641C444.97 116.641 447.262 117.525 447.726 121.355L450.05 122.765C450.05 122.765 449.237 118.862 448.111 117.489C448.111 117.489 450.31 118.753 450.607 123.165L452.691 124.867C452.691 124.867 452.248 121.453 451.331 119.664C451.331 119.664 453.118 121.277 453.264 125.387L454.504 126.688C454.504 126.688 454.14 124.201 453.983 123.493C453.827 122.785 453.983 122.687 453.983 122.687C454.754 124.071 455.124 125.642 455.051 127.224C455.051 127.224 457.427 130.023 457.615 129.898Z" fill="#FFF021"/>
<path opacity="0.1" d="M335.475 172.843C335.475 172.843 324.831 156.1 314.947 166.121C314.947 166.121 312.685 167.162 313.081 169.633C313.081 169.633 313.941 169.061 314.827 170.882C315.145 171.527 315.541 172.132 316.004 172.682C316.626 173.433 317.477 173.96 318.427 174.181C318.427 174.181 323.559 177.344 332.208 173.764C332.208 173.764 334.756 173.9 335.131 173.551L332.005 171.678C332.005 171.678 330.718 174.019 328.566 174.462C328.566 174.462 332.016 171.86 331.552 171.381C331.463 171.288 329.859 170.466 329.859 170.466C329.859 170.466 327.603 174.514 324.258 175.102C324.258 175.102 328.785 172.526 329.254 170.143L326.758 169.045C326.758 169.045 324.586 173.442 320.803 174.248C320.803 174.248 325.44 171.392 326.196 168.832L323.591 168.083C323.591 168.083 321.392 172.334 318.24 172.984C318.24 172.984 323.262 169.144 322.986 167.947C322.986 167.947 320.558 167.401 319.86 167.568C319.86 167.568 318.208 170.58 316.343 170.799C316.343 170.799 319.428 167.875 319.172 167.49C319.172 167.49 315.822 167.62 314.155 168.582C315.642 167.62 317.356 167.064 319.125 166.969C318.333 166.22 317.339 165.719 316.265 165.528C316.265 165.528 318.031 164.607 319.912 166.948C319.912 166.948 322.517 166.948 322.877 167.209C322.877 167.209 321.314 164.607 319.6 163.634C319.6 163.634 322.048 163.842 323.57 167.385L326.201 168.083C326.201 168.083 324.32 164.571 322.856 163.566C322.856 163.566 325.32 164.16 326.847 168.317L329.306 169.357C329.306 169.357 327.92 166.21 326.529 164.737C326.529 164.737 328.697 165.778 329.994 169.685L331.557 170.585C331.557 170.585 330.515 168.301 330.145 167.672C329.775 167.042 329.921 166.896 329.921 166.896C331.049 168.009 331.844 169.412 332.219 170.95C332.219 170.95 335.335 173.02 335.475 172.843Z" fill="#FFF021"/>
<path d="M405.434 87.2958C405.434 87.2958 395.31 70.2352 385.114 79.944C385.114 79.944 382.821 80.9326 383.144 83.3988C383.144 83.3988 384.014 82.8473 384.848 84.6943C385.146 85.3509 385.522 85.9693 385.968 86.5362C386.567 87.3035 387.402 87.8521 388.344 88.0971C388.344 88.0971 393.372 91.4166 402.131 88.0971C402.131 88.0971 404.673 88.3104 405.059 87.9722L402 86.0055C402 86.0055 400.646 88.3 398.478 88.6798C398.478 88.6798 402.005 86.1668 401.563 85.6933C401.469 85.5945 399.895 84.7204 399.895 84.7204C399.895 84.7204 397.514 88.7006 394.164 89.1845C394.164 89.1845 398.77 86.7495 399.307 84.3874L396.847 83.2323C396.847 83.2323 394.539 87.5664 390.73 88.2584C390.73 88.2584 395.456 85.5476 396.29 83.0138L393.716 82.1813C393.716 82.1813 391.382 86.3437 388.214 86.916C388.214 86.916 393.351 83.2323 393.111 82.0304C393.111 82.0304 390.704 81.406 389.985 81.5517C389.985 81.5517 388.24 84.5122 386.369 84.6735C386.369 84.6735 389.542 81.8535 389.303 81.4581C389.303 81.4581 385.947 81.4841 384.254 82.3946C385.771 81.4809 387.5 80.9787 389.271 80.9378C388.501 80.1643 387.522 79.6326 386.453 79.4081C386.453 79.4081 388.25 78.5392 390.1 80.9378C390.1 80.9378 392.705 81.0262 393.054 81.2916C393.054 81.2916 391.58 78.6901 389.892 77.6183C389.892 77.6183 392.33 77.8992 393.742 81.4893L396.347 82.2697C396.347 82.2697 394.581 78.7005 393.143 77.6495C393.143 77.6495 395.592 78.3207 396.988 82.5195L399.411 83.6485C399.411 83.6485 398.124 80.4591 396.806 78.9658C396.806 78.9658 398.937 80.0741 400.119 84.0179L401.646 84.9649C401.646 84.9649 400.666 82.6496 400.323 82.0096C399.979 81.3696 400.125 81.2291 400.125 81.2291C401.217 82.3755 401.969 83.802 402.297 85.3499C402.297 85.3499 405.283 87.4675 405.434 87.2958Z" fill="#FFF021"/>
<path d="M341.384 123.17C341.384 123.17 341.905 103.347 328.113 106.141C328.113 106.141 325.643 105.761 324.601 108.019C324.601 108.019 325.643 108.019 325.352 110.022C325.256 110.737 325.246 111.46 325.32 112.177C325.415 113.149 325.826 114.063 326.493 114.778C326.493 114.778 328.978 120.262 338.153 122.125C338.153 122.125 340.191 123.66 340.701 123.576L339.138 120.288C339.138 120.288 336.767 121.506 334.73 120.678C334.73 120.678 339.055 120.423 338.935 119.789C338.935 119.658 338.039 118.077 338.039 118.077C338.039 118.077 333.902 120.184 330.802 118.8C330.802 118.8 336.012 119.19 337.716 117.478L336.262 115.173C336.262 115.173 332 117.608 328.405 116.172C328.405 116.172 333.85 116.391 335.913 114.69L334.178 112.608C334.178 112.608 329.973 114.908 326.993 113.691C326.993 113.691 333.308 113.311 333.766 112.161C333.766 112.161 332.057 110.355 331.369 110.08C331.369 110.08 328.316 111.641 326.649 110.798C326.649 110.798 330.817 110.101 330.843 109.637C330.843 109.637 327.993 107.874 326.071 107.744C327.843 107.775 329.577 108.27 331.099 109.18C330.861 108.116 330.318 107.145 329.535 106.386C329.535 106.386 331.521 106.609 331.792 109.611C331.792 109.611 333.964 111.079 334.105 111.485C334.105 111.485 334.256 108.482 333.386 106.693C333.386 106.693 335.303 108.227 334.584 112.015L336.371 114.065C336.371 114.065 336.778 110.101 336.126 108.451C336.126 108.451 337.835 110.319 336.783 114.617L338.226 116.859C338.226 116.859 338.841 113.472 338.513 111.479C338.513 111.479 339.722 113.561 338.617 117.52L339.409 119.133C339.409 119.133 339.81 116.651 339.862 115.928C339.914 115.205 340.112 115.158 340.112 115.158C340.426 116.71 340.302 118.319 339.753 119.804C339.753 119.804 341.154 123.238 341.384 123.17Z" fill="#FFF021"/>
<path opacity="0.1" d="M364.184 375.058C371.933 375.058 378.215 373.998 378.215 372.69C378.215 371.383 371.933 370.323 364.184 370.323C356.435 370.323 350.153 371.383 350.153 372.69C350.153 373.998 356.435 375.058 364.184 375.058Z" fill="#FFF021"/>
<path opacity="0.1" d="M313.034 411C320.784 411 327.066 409.94 327.066 408.633C327.066 407.325 320.784 406.265 313.034 406.265C305.285 406.265 299.003 407.325 299.003 408.633C299.003 409.94 305.285 411 313.034 411Z" fill="#FFF021"/>
<path opacity="0.1" d="M48.5286 392.587C56.2779 392.587 62.56 391.527 62.56 390.219C62.56 388.912 56.2779 387.852 48.5286 387.852C40.7794 387.852 34.4973 388.912 34.4973 390.219C34.4973 391.527 40.7794 392.587 48.5286 392.587Z" fill="#FFF021"/>
<path opacity="0.1" d="M419.46 408.633C427.209 408.633 433.491 407.573 433.491 406.265C433.491 404.958 427.209 403.898 419.46 403.898C411.711 403.898 405.429 404.958 405.429 406.265C405.429 407.573 411.711 408.633 419.46 408.633Z" fill="#FFF021"/>
<path d="M434.069 379.766C445.64 379.766 455.02 378.182 455.02 376.228C455.02 374.274 445.64 372.69 434.069 372.69C422.499 372.69 413.119 374.274 413.119 376.228C413.119 378.182 422.499 379.766 434.069 379.766Z" fill="#FFF021"/>
<path d="M442.755 370.437C443.712 369.661 444.408 368.612 444.751 367.43C445.011 366.233 444.501 364.803 443.36 364.366C442.078 363.877 440.708 364.761 439.666 365.656C438.623 366.551 437.441 367.576 436.081 367.389C436.779 366.755 437.301 365.952 437.597 365.058C437.893 364.164 437.952 363.208 437.769 362.284C437.71 361.902 437.548 361.542 437.3 361.244C436.586 360.484 435.299 360.812 434.445 361.41C431.735 363.315 430.98 366.988 430.964 370.297C430.693 369.106 430.923 367.862 430.917 366.655C430.912 365.448 430.574 364.053 429.537 363.419C428.9 363.064 428.181 362.885 427.453 362.898C426.233 362.857 424.874 362.976 424.045 363.866C423.003 364.969 423.279 366.827 424.175 368.028C425.072 369.23 426.442 370.006 427.703 370.849C428.712 371.45 429.573 372.27 430.224 373.247C430.299 373.383 430.36 373.526 430.407 373.674H438.045C439.755 372.814 441.34 371.725 442.755 370.437Z" fill="#FFF021"/>
<path d="M39.1084 379.215C39.1084 379.215 47.1062 378.97 49.529 377.253C51.9518 375.536 61.8409 373.492 62.4401 376.244C63.0393 378.996 74.4655 389.923 65.4308 389.996C56.3962 390.068 44.4385 388.591 42.0314 387.123C39.6242 385.656 39.1084 379.215 39.1084 379.215Z" fill="white"/>
<path opacity="0.2" d="M65.5819 389.038C56.5473 389.111 44.5896 387.633 42.1825 386.166C40.3485 385.053 39.619 381.052 39.3741 379.204H39.1084C39.1084 379.204 39.6294 385.651 42.021 387.113C44.4125 388.575 56.3857 390.058 65.4204 389.985C68.0255 389.985 68.9269 389.038 68.88 387.665C68.5153 388.502 67.5201 389.023 65.5819 389.038Z" fill="black"/>
</g>
<defs>
<linearGradient id="paint0_linear" x1="116.185" y1="225.508" x2="278.813" y2="225.508" gradientUnits="userSpaceOnUse">
<stop stop-color="#808080" stop-opacity="0.25"/>
<stop offset="0.54" stop-color="#808080" stop-opacity="0.12"/>
<stop offset="1" stop-color="#808080" stop-opacity="0.1"/>
</linearGradient>
<clipPath id="clip0">
<rect width="526" height="411" fill="white"/>
</clipPath>
</defs>
</svg>
